{"glyphs":{"0":{"ha":847,"x_min":0,"x_max":0,"o":"m 425 -21 b 92 308 213 -21 92 107 l 92 678 b 425 1007 92 879 213 1007 b 756 678 635 1007 756 879 l 756 308 b 425 -21 756 107 635 -21 m 425 104 b 622 308 553 104 622 179 l 622 678 b 425 882 622 807 553 882 b 225 678 294 882 225 807 l 225 308 b 425 104 225 179 294 104 "},"1":{"ha":554,"x_min":0,"x_max":0,"o":"m 326 0 b 290 36 299 0 290 10 l 290 825 l 125 733 b 74 744 96 719 86 721 l 47 792 b 64 842 35 815 42 826 l 285 971 b 336 986 304 983 314 986 l 388 986 b 424 950 414 986 424 976 l 424 36 b 388 0 424 10 414 0 l 326 0 "},"2":{"ha":797,"x_min":0,"x_max":0,"o":"m 115 0 b 81 38 90 0 81 10 l 81 153 b 336 471 81 342 210 415 b 579 701 457 524 579 551 b 410 882 579 815 513 882 b 208 739 306 882 249 836 b 167 715 197 713 190 707 l 107 736 b 86 782 83 744 76 756 b 417 1007 140 924 232 1007 b 718 706 610 1007 718 872 b 425 371 718 506 599 447 b 226 172 315 325 226 279 l 226 125 l 681 125 b 714 88 706 125 714 115 l 714 36 b 681 0 714 10 706 0 l 115 0 "},"3":{"ha":814,"x_min":0,"x_max":0,"o":"m 417 -21 b 78 218 221 -21 122 64 b 99 265 69 244 75 257 l 158 285 b 203 261 182 292 193 288 b 413 104 231 157 286 104 b 600 278 543 104 600 171 b 442 443 600 378 546 443 l 297 443 b 264 479 272 443 264 451 l 264 528 b 297 564 264 554 272 564 l 433 564 b 575 717 529 564 575 628 b 408 882 575 819 519 882 b 204 729 288 882 235 835 b 160 707 196 703 185 699 l 106 725 b 85 771 82 733 75 746 b 413 1007 129 922 222 1007 b 710 728 601 1007 710 901 b 599 514 710 635 674 554 b 736 276 693 472 736 382 b 417 -21 736 99 633 -21 "},"4":{"ha":832,"x_min":0,"x_max":0,"o":"m 553 0 b 519 36 528 0 519 10 l 519 250 l 81 250 b 47 286 56 250 47 260 l 47 325 b 64 374 47 350 53 358 l 494 967 b 544 993 511 988 519 993 l 610 993 b 644 957 635 993 644 985 l 644 369 l 746 369 b 779 333 772 369 779 360 l 779 286 b 746 250 779 260 772 250 l 644 250 l 644 36 b 610 0 644 10 635 0 l 553 0 m 519 369 l 519 813 l 197 369 "},"5":{"ha":789,"x_min":0,"x_max":0,"o":"m 403 -21 b 71 204 215 -21 121 61 b 90 250 61 229 67 242 l 149 269 b 192 246 171 276 183 274 b 400 104 222 153 286 104 b 586 299 511 104 586 179 b 397 482 586 413 515 482 l 136 482 b 100 526 107 482 97 496 l 139 932 b 194 986 143 974 154 986 l 651 986 b 685 950 678 986 685 976 l 685 899 b 651 861 685 871 678 861 l 261 861 l 239 606 l 410 606 b 721 300 629 606 721 468 b 403 -21 721 121 613 -21 "},"6":{"ha":843,"x_min":0,"x_max":0,"o":"m 428 -21 b 90 336 207 -21 90 115 l 90 657 b 428 1007 90 883 208 1007 b 749 794 601 1007 699 931 b 729 749 757 768 753 758 l 675 729 b 631 753 651 721 642 725 b 429 882 599 840 538 882 b 224 664 292 882 224 817 l 224 553 b 440 590 258 564 336 590 b 765 289 663 590 765 490 b 428 -21 765 97 639 -21 m 428 104 b 632 289 564 104 632 169 b 432 469 632 408 575 469 b 224 429 328 469 253 442 l 224 335 b 428 104 224 188 290 104 "},"7":{"ha":707,"x_min":0,"x_max":0,"o":"m 193 0 b 175 36 169 0 164 14 l 524 861 l 83 861 b 49 899 57 861 49 871 l 49 950 b 83 986 49 976 57 986 l 639 986 b 672 950 664 986 672 976 l 672 913 b 664 861 672 892 672 883 l 314 32 b 263 0 301 4 297 0 l 193 0 "},"8":{"ha":836,"x_min":0,"x_max":0,"o":"m 417 -21 b 78 240 174 -21 78 89 b 256 501 78 397 190 472 b 106 739 172 546 106 607 b 419 1007 106 910 226 1007 b 731 749 622 1007 731 915 b 582 511 731 606 639 540 b 758 260 678 469 758 406 b 417 -21 758 97 661 -21 m 454 551 b 601 738 490 568 601 607 b 418 890 601 838 536 890 b 239 738 307 890 239 838 b 421 564 239 625 325 594 l 454 551 m 417 96 b 619 257 560 96 619 160 b 375 450 619 393 508 413 b 211 253 339 438 211 396 b 417 96 211 157 272 96 "},"9":{"ha":843,"x_min":0,"x_max":0,"o":"m 415 -21 b 96 192 243 -21 144 56 b 114 238 86 218 90 228 l 169 257 b 213 233 193 265 203 261 b 415 104 244 147 306 104 b 621 321 551 104 621 168 l 621 433 b 404 396 585 422 507 396 b 78 697 181 396 78 496 b 415 1007 78 889 204 1007 b 754 650 638 1007 754 871 l 754 328 b 415 -21 754 101 636 -21 m 411 517 b 621 557 517 517 590 544 l 621 651 b 415 882 621 800 554 882 b 211 697 281 882 211 817 b 411 517 211 576 268 517 "},"A":{"ha":874,"x_min":0,"x_max":0,"o":"m 53 0 b 31 36 26 0 22 13 l 360 958 b 403 989 368 983 379 989 l 471 989 b 514 960 494 989 506 983 l 843 36 b 819 0 851 13 846 0 l 756 0 b 699 32 718 0 706 7 l 622 257 l 247 257 l 169 32 b 113 0 163 7 150 0 l 53 0 m 585 369 l 464 735 b 438 857 450 782 440 832 l 431 857 b 406 735 428 831 419 781 l 283 369 "},"Á":{"ha":874,"x_min":0,"x_max":0,"o":"m 353 1058 b 310 1061 332 1050 319 1049 l 294 1081 b 297 1117 281 1099 281 1107 l 490 1247 b 551 1246 511 1260 533 1267 l 579 1213 b 575 1175 596 1193 596 1183 l 353 1058 m 53 0 b 31 36 26 0 22 13 l 360 958 b 403 989 368 983 379 989 l 471 989 b 514 960 494 989 506 983 l 843 36 b 819 0 851 13 846 0 l 756 0 b 699 32 718 0 706 7 l 622 257 l 247 257 l 169 32 b 113 0 163 7 150 0 l 53 0 m 585 369 l 464 735 b 438 857 450 782 440 832 l 431 857 b 406 735 428 831 419 781 l 283 369 "},"Ă":{"ha":874,"x_min":0,"x_max":0,"o":"m 436 1057 b 236 1204 336 1057 268 1110 b 250 1235 231 1221 235 1229 l 293 1250 b 326 1239 311 1256 319 1254 b 436 1147 346 1179 381 1147 b 547 1239 493 1147 526 1176 b 575 1251 554 1254 561 1256 l 625 1235 b 639 1204 640 1228 644 1221 b 436 1057 606 1110 539 1057 m 53 0 b 31 36 26 0 22 13 l 360 958 b 403 989 368 983 379 989 l 471 989 b 514 960 494 989 506 983 l 843 36 b 819 0 851 13 846 0 l 756 0 b 699 32 718 0 706 7 l 622 257 l 247 257 l 169 32 b 113 0 163 7 150 0 l 53 0 m 585 369 l 464 735 b 438 857 450 782 440 832 l 431 857 b 406 735 428 831 419 781 l 283 369 "},"Â":{"ha":874,"x_min":0,"x_max":0,"o":"m 239 1054 b 224 1081 211 1054 210 1067 l 368 1224 b 433 1253 396 1251 401 1253 l 446 1253 b 507 1224 472 1253 479 1253 l 651 1081 b 635 1054 664 1067 664 1054 l 586 1054 b 533 1072 560 1054 549 1056 l 436 1172 l 336 1072 b 285 1054 319 1056 313 1054 l 239 1054 m 53 0 b 31 36 26 0 22 13 l 360 958 b 403 989 368 983 379 989 l 471 989 b 514 960 494 989 506 983 l 843 36 b 819 0 851 13 846 0 l 756 0 b 699 32 718 0 706 7 l 622 257 l 247 257 l 169 32 b 113 0 163 7 150 0 l 53 0 m 585 369 l 464 735 b 438 857 450 782 440 832 l 431 857 b 406 735 428 831 419 781 l 283 369 "},"Ä":{"ha":874,"x_min":0,"x_max":0,"o":"m 300 1089 b 243 1146 257 1089 243 1103 l 243 1158 b 300 1215 243 1200 257 1215 l 310 1215 b 367 1158 354 1215 367 1200 l 367 1146 b 310 1089 367 1103 354 1089 l 300 1089 m 563 1089 b 504 1146 518 1089 504 1103 l 504 1158 b 563 1215 504 1200 518 1215 l 572 1215 b 629 1158 615 1215 629 1200 l 629 1146 b 572 1089 629 1103 615 1089 l 563 1089 m 53 0 b 31 36 26 0 22 13 l 360 958 b 403 989 368 983 379 989 l 471 989 b 514 960 494 989 506 983 l 843 36 b 819 0 851 13 846 0 l 756 0 b 699 32 718 0 706 7 l 622 257 l 247 257 l 169 32 b 113 0 163 7 150 0 l 53 0 m 585 369 l 464 735 b 438 857 450 782 440 832 l 431 857 b 406 735 428 831 419 781 l 283 369 "},"À":{"ha":874,"x_min":0,"x_max":0,"o":"m 300 1174 b 296 1213 279 1183 279 1193 l 324 1246 b 385 1247 342 1267 363 1260 l 578 1117 b 581 1079 594 1107 594 1097 l 565 1060 b 522 1058 556 1047 543 1050 m 53 0 b 31 36 26 0 22 13 l 360 958 b 403 989 368 983 379 989 l 471 989 b 514 960 494 989 506 983 l 843 36 b 819 0 851 13 846 0 l 756 0 b 699 32 718 0 706 7 l 622 257 l 247 257 l 169 32 b 113 0 163 7 150 0 l 53 0 m 585 369 l 464 735 b 438 857 450 782 440 832 l 431 857 b 406 735 428 831 419 781 l 283 369 "},"Ā":{"ha":874,"x_min":0,"x_max":0,"o":"m 279 1103 b 249 1135 256 1103 249 1110 l 249 1163 b 279 1193 249 1186 257 1193 l 594 1193 b 625 1163 618 1193 625 1186 l 625 1135 b 594 1103 625 1110 618 1103 l 279 1103 m 53 0 b 31 36 26 0 22 13 l 360 958 b 403 989 368 983 379 989 l 471 989 b 514 960 494 989 506 983 l 843 36 b 819 0 851 13 846 0 l 756 0 b 699 32 718 0 706 7 l 622 257 l 247 257 l 169 32 b 113 0 163 7 150 0 l 53 0 m 585 369 l 464 735 b 438 857 450 782 440 832 l 431 857 b 406 735 428 831 419 781 l 283 369 "},"Ą":{"ha":874,"x_min":0,"x_max":0,"o":"m 736 -342 b 624 -265 683 -342 638 -322 b 743 3 607 -194 653 -93 b 699 32 714 3 704 11 l 622 257 l 247 257 l 169 32 b 113 0 163 7 150 0 l 53 0 b 31 36 26 0 22 13 l 360 958 b 403 989 368 983 379 989 l 471 989 b 514 960 494 989 506 983 l 843 36 b 842 6 849 22 847 13 b 731 -217 754 -94 718 -175 b 772 -250 738 -239 754 -250 b 822 -226 789 -250 807 -242 b 843 -232 831 -221 839 -222 l 858 -268 b 856 -293 863 -279 863 -286 b 736 -342 822 -325 781 -342 m 585 369 l 464 735 b 438 857 450 782 440 832 l 431 857 b 406 735 428 831 419 781 l 283 369 "},"Å":{"ha":874,"x_min":0,"x_max":0,"o":"m 53 0 b 31 36 26 0 22 13 l 356 942 b 281 1069 310 964 281 1010 b 438 1226 281 1163 344 1226 b 589 1069 526 1226 589 1163 b 519 943 589 1011 564 965 l 843 36 b 819 0 851 13 846 0 l 756 0 b 699 32 718 0 706 7 l 622 257 l 247 257 l 169 32 b 113 0 163 7 150 0 l 53 0 m 438 989 b 514 1069 482 989 514 1022 b 438 1153 514 1119 482 1153 b 356 1069 389 1153 356 1119 b 438 989 356 1022 389 989 m 585 369 l 464 735 b 438 857 450 782 440 832 l 431 857 b 406 735 428 831 419 781 l 283 369 "},"Ǻ":{"ha":874,"x_min":0,"x_max":0,"o":"m 342 1201 b 308 1206 322 1196 317 1197 l 294 1221 b 306 1251 282 1235 289 1244 l 500 1347 b 547 1340 519 1357 529 1357 l 572 1314 b 567 1288 586 1300 586 1293 l 342 1201 m 53 0 b 31 36 26 0 22 13 l 354 938 b 290 1042 314 957 290 994 b 438 1176 290 1121 351 1176 b 579 1040 521 1176 579 1119 b 521 939 579 994 557 957 l 843 36 b 819 0 851 13 846 0 l 756 0 b 699 32 718 0 706 7 l 622 257 l 247 257 l 169 32 b 113 0 163 7 150 0 l 53 0 m 438 971 b 511 1043 481 971 511 999 b 438 1114 511 1083 481 1114 b 360 1043 392 1114 360 1083 b 438 971 360 999 392 971 m 585 369 l 464 735 b 438 857 450 782 440 832 l 432 857 b 406 735 429 831 419 781 l 283 369 "},"Ã":{"ha":874,"x_min":0,"x_max":0,"o":"m 251 1068 b 229 1089 236 1068 229 1074 b 338 1235 229 1192 269 1235 b 517 1147 429 1235 456 1147 b 558 1214 543 1147 558 1171 b 578 1235 558 1228 563 1235 l 613 1235 b 633 1214 629 1235 633 1228 b 525 1068 633 1111 599 1068 b 349 1154 439 1068 411 1154 b 307 1089 322 1154 307 1132 b 286 1068 307 1074 301 1068 l 251 1068 m 53 0 b 31 36 26 0 22 13 l 360 958 b 403 989 368 983 379 989 l 471 989 b 514 960 494 989 506 983 l 843 36 b 819 0 851 13 846 0 l 756 0 b 699 32 718 0 706 7 l 622 257 l 247 257 l 169 32 b 113 0 163 7 150 0 l 53 0 m 585 369 l 464 735 b 438 857 450 782 440 832 l 431 857 b 406 735 428 831 419 781 l 283 369 "},"Æ":{"ha":1144,"x_min":0,"x_max":0,"o":"m 35 0 b 13 36 10 0 3 13 l 553 956 b 596 986 567 978 572 986 l 1031 986 b 1065 950 1057 986 1065 976 l 1065 899 b 1031 861 1065 871 1057 861 l 703 861 l 703 561 l 968 561 b 1004 525 994 561 1004 553 l 1004 474 b 968 438 1004 446 994 438 l 703 438 l 703 125 l 1046 125 b 1081 88 1072 125 1081 115 l 1081 36 b 1046 0 1081 10 1072 0 l 607 0 b 572 36 581 0 572 10 l 572 226 l 268 226 l 163 32 b 99 0 150 8 142 0 l 35 0 m 572 336 l 576 776 l 336 336 "},"Ǽ":{"ha":1144,"x_min":0,"x_max":0,"o":"m 728 1058 b 685 1061 707 1050 694 1049 l 669 1081 b 672 1117 656 1099 656 1107 l 865 1247 b 926 1246 886 1260 908 1267 l 954 1213 b 950 1175 971 1193 971 1183 l 728 1058 m 35 0 b 13 36 10 0 3 13 l 553 956 b 596 986 567 978 572 986 l 1031 986 b 1065 950 1057 986 1065 976 l 1065 899 b 1031 861 1065 871 1057 861 l 703 861 l 703 561 l 968 561 b 1004 525 994 561 1004 553 l 1004 474 b 968 438 1004 446 994 438 l 703 438 l 703 125 l 1046 125 b 1081 88 1072 125 1081 115 l 1081 36 b 1046 0 1081 10 1072 0 l 607 0 b 572 36 581 0 572 10 l 572 226 l 268 226 l 163 32 b 99 0 150 8 142 0 l 35 0 m 572 336 l 576 776 l 336 336 "},"B":{"ha":871,"x_min":0,"x_max":0,"o":"m 151 0 b 117 36 125 0 117 10 l 117 950 b 151 986 117 976 125 986 l 496 986 b 765 728 657 986 765 892 b 653 513 765 619 726 553 l 653 510 b 799 268 744 475 799 397 b 518 0 799 94 689 0 l 151 0 m 493 558 b 635 711 581 558 635 608 b 492 864 635 814 579 864 l 251 864 l 251 558 m 513 122 b 665 283 604 122 665 176 b 515 444 665 389 607 444 l 251 444 l 251 122 "},"C":{"ha":858,"x_min":0,"x_max":0,"o":"m 449 -21 b 89 335 217 -21 89 115 l 89 651 b 449 1007 89 871 215 1007 b 794 771 642 1007 747 924 b 774 725 804 744 797 732 l 714 707 b 671 729 689 699 679 703 b 449 882 640 833 575 882 b 222 653 297 882 222 799 l 222 333 b 449 104 222 189 297 106 b 668 261 575 104 636 158 b 713 285 678 288 689 293 l 775 264 b 796 218 799 257 804 244 b 449 -21 747 65 643 -21 "},"Ć":{"ha":858,"x_min":0,"x_max":0,"o":"m 368 1058 b 325 1061 347 1050 335 1049 l 310 1081 b 313 1117 296 1099 296 1107 l 506 1247 b 567 1246 526 1260 549 1267 l 594 1213 b 590 1175 611 1193 611 1183 l 368 1058 m 449 -21 b 89 335 217 -21 89 115 l 89 651 b 449 1007 89 871 215 1007 b 794 771 642 1007 747 924 b 774 725 804 744 797 732 l 714 707 b 671 729 689 699 679 703 b 449 882 640 833 575 882 b 222 653 297 882 222 799 l 222 333 b 449 104 222 189 297 106 b 668 261 575 104 636 158 b 713 285 678 288 689 293 l 775 264 b 796 218 799 257 804 244 b 449 -21 747 65 643 -21 "},"Č":{"ha":858,"x_min":0,"x_max":0,"o":"m 444 1053 b 381 1082 414 1053 407 1054 l 236 1225 b 251 1251 222 1239 224 1251 l 297 1251 b 349 1233 324 1251 332 1251 l 447 1133 l 546 1233 b 599 1251 560 1250 571 1251 l 647 1251 b 664 1225 675 1251 676 1239 l 518 1082 b 457 1053 490 1053 483 1053 l 444 1053 m 449 -21 b 89 335 217 -21 89 115 l 89 651 b 449 1007 89 871 215 1007 b 794 771 642 1007 747 924 b 774 725 804 744 797 732 l 714 707 b 671 729 689 699 679 703 b 449 882 640 833 575 882 b 222 653 297 882 222 799 l 222 333 b 449 104 222 189 297 106 b 668 261 575 104 636 158 b 713 285 678 288 689 293 l 775 264 b 796 218 799 257 804 244 b 449 -21 747 65 643 -21 "},"Ç":{"ha":858,"x_min":0,"x_max":0,"o":"m 438 -340 b 340 -318 408 -340 364 -332 b 322 -286 326 -311 322 -303 l 321 -253 b 339 -239 321 -242 325 -232 b 421 -267 360 -254 379 -267 b 499 -203 474 -267 499 -244 b 433 -151 499 -169 476 -153 b 397 -156 421 -151 408 -153 b 381 -128 379 -157 374 -147 l 417 -18 b 89 335 206 -7 89 125 l 89 651 b 449 1007 89 871 215 1007 b 794 771 642 1007 747 924 b 774 725 804 744 797 732 l 714 707 b 671 729 689 699 679 703 b 449 882 640 833 575 882 b 222 653 297 882 222 799 l 222 333 b 449 104 222 189 297 106 b 668 261 575 104 636 158 b 713 285 678 288 689 293 l 775 264 b 796 218 799 257 804 244 b 493 -18 751 78 661 -6 l 471 -92 b 493 -89 478 -90 486 -89 b 606 -210 561 -89 611 -140 b 438 -340 599 -308 522 -340 "},"Ĉ":{"ha":858,"x_min":0,"x_max":0,"o":"m 254 1054 b 239 1081 226 1054 225 1067 l 383 1224 b 449 1253 411 1251 417 1253 l 461 1253 b 522 1224 488 1253 494 1253 l 667 1081 b 650 1054 679 1067 679 1054 l 601 1054 b 549 1072 575 1054 564 1056 l 451 1172 l 351 1072 b 300 1054 335 1056 328 1054 l 254 1054 m 449 -21 b 89 335 217 -21 89 115 l 89 651 b 449 1007 89 871 215 1007 b 794 771 642 1007 747 924 b 774 725 804 744 797 732 l 714 707 b 671 729 689 699 679 703 b 449 882 640 833 575 882 b 222 653 297 882 222 799 l 222 333 b 449 104 222 189 297 106 b 668 261 575 104 636 158 b 713 285 678 288 689 293 l 775 264 b 796 218 799 257 804 244 b 449 -21 747 65 643 -21 "},"Ċ":{"ha":858,"x_min":0,"x_max":0,"o":"m 449 1085 b 389 1144 403 1085 389 1099 l 389 1154 b 449 1213 389 1200 403 1213 l 456 1213 b 515 1154 501 1213 515 1200 l 515 1144 b 456 1085 515 1099 501 1085 l 449 1085 m 449 -21 b 89 335 217 -21 89 115 l 89 651 b 449 1007 89 871 215 1007 b 794 771 642 1007 747 924 b 774 725 804 744 797 732 l 714 707 b 671 729 689 699 679 703 b 449 882 640 833 575 882 b 222 653 297 882 222 799 l 222 333 b 449 104 222 189 297 106 b 668 261 575 104 636 158 b 713 285 678 288 689 293 l 775 264 b 796 218 799 257 804 244 b 449 -21 747 65 643 -21 "},"D":{"ha":889,"x_min":0,"x_max":0,"o":"m 151 0 b 117 36 125 0 117 10 l 117 950 b 151 986 117 976 125 986 l 431 986 b 803 619 669 986 803 846 l 803 367 b 431 0 803 140 669 0 l 151 0 m 435 125 b 669 365 588 125 669 211 l 669 621 b 435 861 669 775 588 861 l 251 861 l 251 125 "},"Ð":{"ha":888,"x_min":0,"x_max":0,"o":"m 150 0 b 115 36 124 0 115 10 l 115 451 l 46 451 b 22 476 28 451 22 457 l 22 525 b 46 549 22 543 29 549 l 115 549 l 115 950 b 150 986 115 976 124 986 l 429 986 b 801 619 668 986 801 846 l 801 367 b 429 0 801 140 668 0 l 150 0 m 432 125 b 668 365 586 125 668 211 l 668 621 b 432 861 668 775 586 861 l 249 861 l 249 549 l 429 549 b 451 525 446 549 451 543 l 451 476 b 429 451 451 457 446 451 l 249 451 l 249 125 "},"Ď":{"ha":889,"x_min":0,"x_max":0,"o":"m 417 1053 b 353 1082 386 1053 379 1054 l 208 1225 b 224 1251 194 1239 196 1251 l 269 1251 b 321 1233 296 1251 304 1251 l 419 1133 l 518 1233 b 571 1251 532 1250 543 1251 l 619 1251 b 636 1225 647 1251 649 1239 l 490 1082 b 429 1053 463 1053 456 1053 l 417 1053 m 151 0 b 117 36 125 0 117 10 l 117 950 b 151 986 117 976 125 986 l 431 986 b 803 619 669 986 803 846 l 803 367 b 431 0 803 140 669 0 l 151 0 m 435 125 b 669 365 588 125 669 211 l 669 621 b 435 861 669 775 588 861 l 251 861 l 251 125 "},"Đ":{"ha":888,"x_min":0,"x_max":0,"o":"m 150 0 b 115 36 124 0 115 10 l 115 451 l 46 451 b 22 476 28 451 22 457 l 22 525 b 46 549 22 543 29 549 l 115 549 l 115 950 b 150 986 115 976 124 986 l 429 986 b 801 619 668 986 801 846 l 801 367 b 429 0 801 140 668 0 l 150 0 m 432 125 b 668 365 586 125 668 211 l 668 621 b 432 861 668 775 586 861 l 249 861 l 249 549 l 429 549 b 451 525 446 549 451 543 l 451 476 b 429 451 451 457 446 451 l 249 451 l 249 125 "},"E":{"ha":774,"x_min":0,"x_max":0,"o":"m 151 0 b 117 36 125 0 117 10 l 117 950 b 151 986 117 976 125 986 l 661 986 b 694 950 686 986 694 976 l 694 899 b 661 861 694 871 686 861 l 251 861 l 251 563 l 603 563 b 635 525 626 563 635 553 l 635 474 b 603 438 635 446 626 438 l 251 438 l 251 125 l 675 125 b 710 88 701 125 710 115 l 710 36 b 675 0 710 10 701 0 l 151 0 "},"É":{"ha":774,"x_min":0,"x_max":0,"o":"m 324 1058 b 281 1061 303 1050 290 1049 l 265 1081 b 268 1117 251 1099 251 1107 l 461 1247 b 522 1246 482 1260 504 1267 l 550 1213 b 546 1175 567 1193 567 1183 l 324 1058 m 151 0 b 117 36 125 0 117 10 l 117 950 b 151 986 117 976 125 986 l 661 986 b 694 950 686 986 694 976 l 694 899 b 661 861 694 871 686 861 l 251 861 l 251 563 l 603 563 b 635 525 626 563 635 553 l 635 474 b 603 438 635 446 626 438 l 251 438 l 251 125 l 675 125 b 710 88 701 125 710 115 l 710 36 b 675 0 710 10 701 0 l 151 0 "},"Ĕ":{"ha":774,"x_min":0,"x_max":0,"o":"m 407 1057 b 207 1204 307 1057 239 1110 b 221 1235 201 1221 206 1229 l 264 1250 b 297 1239 282 1256 290 1254 b 407 1147 317 1179 351 1147 b 518 1239 464 1147 497 1176 b 546 1251 525 1254 532 1256 l 596 1235 b 610 1204 611 1228 615 1221 b 407 1057 576 1110 510 1057 m 151 0 b 117 36 125 0 117 10 l 117 950 b 151 986 117 976 125 986 l 661 986 b 694 950 686 986 694 976 l 694 899 b 661 861 694 871 686 861 l 251 861 l 251 563 l 603 563 b 635 525 626 563 635 553 l 635 474 b 603 438 635 446 626 438 l 251 438 l 251 125 l 675 125 b 710 88 701 125 710 115 l 710 36 b 675 0 710 10 701 0 l 151 0 "},"Ě":{"ha":774,"x_min":0,"x_max":0,"o":"m 400 1053 b 336 1082 369 1053 363 1054 l 192 1225 b 207 1251 178 1239 179 1251 l 253 1251 b 304 1233 279 1251 288 1251 l 403 1133 l 501 1233 b 554 1251 515 1250 526 1251 l 603 1251 b 619 1225 631 1251 632 1239 l 474 1082 b 413 1053 446 1053 439 1053 l 400 1053 m 151 0 b 117 36 125 0 117 10 l 117 950 b 151 986 117 976 125 986 l 661 986 b 694 950 686 986 694 976 l 694 899 b 661 861 694 871 686 861 l 251 861 l 251 563 l 603 563 b 635 525 626 563 635 553 l 635 474 b 603 438 635 446 626 438 l 251 438 l 251 125 l 675 125 b 710 88 701 125 710 115 l 710 36 b 675 0 710 10 701 0 l 151 0 "},"Ê":{"ha":774,"x_min":0,"x_max":0,"o":"m 210 1054 b 194 1081 182 1054 181 1067 l 339 1224 b 404 1253 367 1251 372 1253 l 417 1253 b 478 1224 443 1253 450 1253 l 622 1081 b 606 1054 635 1067 635 1054 l 557 1054 b 504 1072 531 1054 519 1056 l 407 1172 l 307 1072 b 256 1054 290 1056 283 1054 l 210 1054 m 151 0 b 117 36 125 0 117 10 l 117 950 b 151 986 117 976 125 986 l 661 986 b 694 950 686 986 694 976 l 694 899 b 661 861 694 871 686 861 l 251 861 l 251 563 l 603 563 b 635 525 626 563 635 553 l 635 474 b 603 438 635 446 626 438 l 251 438 l 251 125 l 675 125 b 710 88 701 125 710 115 l 710 36 b 675 0 710 10 701 0 l 151 0 "},"Ë":{"ha":774,"x_min":0,"x_max":0,"o":"m 271 1089 b 214 1146 228 1089 214 1103 l 214 1158 b 271 1215 214 1200 228 1215 l 281 1215 b 338 1158 325 1215 338 1200 l 338 1146 b 281 1089 338 1103 325 1089 l 271 1089 m 533 1089 b 475 1146 489 1089 475 1103 l 475 1158 b 533 1215 475 1200 489 1215 l 543 1215 b 600 1158 586 1215 600 1200 l 600 1146 b 543 1089 600 1103 586 1089 l 533 1089 m 151 0 b 117 36 125 0 117 10 l 117 950 b 151 986 117 976 125 986 l 661 986 b 694 950 686 986 694 976 l 694 899 b 661 861 694 871 686 861 l 251 861 l 251 563 l 603 563 b 635 525 626 563 635 553 l 635 474 b 603 438 635 446 626 438 l 251 438 l 251 125 l 675 125 b 710 88 701 125 710 115 l 710 36 b 675 0 710 10 701 0 l 151 0 "},"Ė":{"ha":774,"x_min":0,"x_max":0,"o":"m 404 1085 b 344 1144 358 1085 344 1099 l 344 1154 b 404 1213 344 1200 358 1213 l 411 1213 b 471 1154 457 1213 471 1200 l 471 1144 b 411 1085 471 1099 457 1085 l 404 1085 m 151 0 b 117 36 125 0 117 10 l 117 950 b 151 986 117 976 125 986 l 661 986 b 694 950 686 986 694 976 l 694 899 b 661 861 694 871 686 861 l 251 861 l 251 563 l 603 563 b 635 525 626 563 635 553 l 635 474 b 603 438 635 446 626 438 l 251 438 l 251 125 l 675 125 b 710 88 701 125 710 115 l 710 36 b 675 0 710 10 701 0 l 151 0 "},"È":{"ha":774,"x_min":0,"x_max":0,"o":"m 271 1174 b 267 1213 250 1183 250 1193 l 294 1246 b 356 1247 313 1267 333 1260 l 549 1117 b 551 1079 565 1107 565 1097 l 536 1060 b 493 1058 526 1047 514 1050 m 151 0 b 117 36 125 0 117 10 l 117 950 b 151 986 117 976 125 986 l 661 986 b 694 950 686 986 694 976 l 694 899 b 661 861 694 871 686 861 l 251 861 l 251 563 l 603 563 b 635 525 626 563 635 553 l 635 474 b 603 438 635 446 626 438 l 251 438 l 251 125 l 675 125 b 710 88 701 125 710 115 l 710 36 b 675 0 710 10 701 0 l 151 0 "},"Ē":{"ha":774,"x_min":0,"x_max":0,"o":"m 250 1103 b 219 1135 226 1103 219 1110 l 219 1163 b 250 1193 219 1186 228 1193 l 565 1193 b 596 1163 589 1193 596 1186 l 596 1135 b 565 1103 596 1110 589 1103 l 250 1103 m 151 0 b 117 36 125 0 117 10 l 117 950 b 151 986 117 976 125 986 l 661 986 b 694 950 686 986 694 976 l 694 899 b 661 861 694 871 686 861 l 251 861 l 251 563 l 603 563 b 635 525 626 563 635 553 l 635 474 b 603 438 635 446 626 438 l 251 438 l 251 125 l 675 125 b 710 88 701 125 710 115 l 710 36 b 675 0 710 10 701 0 l 151 0 "},"Ę":{"ha":774,"x_min":0,"x_max":0,"o":"m 593 -342 b 482 -265 542 -342 496 -322 b 608 0 464 -193 515 -97 l 151 0 b 117 36 125 0 117 10 l 117 950 b 151 986 117 976 125 986 l 661 986 b 694 950 686 986 694 976 l 694 899 b 661 861 694 871 686 861 l 251 861 l 251 563 l 603 563 b 635 525 626 563 635 553 l 635 474 b 603 438 635 446 626 438 l 251 438 l 251 125 l 675 125 b 710 88 701 125 710 115 l 710 36 b 701 7 710 22 707 13 b 589 -217 611 -93 575 -175 b 631 -250 596 -239 611 -250 b 679 -226 647 -250 665 -242 b 700 -232 689 -221 697 -222 l 715 -268 b 714 -293 721 -279 721 -286 b 593 -342 681 -325 639 -342 "},"F":{"ha":742,"x_min":0,"x_max":0,"o":"m 151 0 b 117 36 125 0 117 10 l 117 950 b 151 986 117 976 125 986 l 650 986 b 685 950 676 986 685 976 l 685 899 b 650 861 685 871 676 861 l 250 861 l 250 549 l 589 549 b 622 513 613 549 622 539 l 622 460 b 589 424 622 433 613 424 l 250 424 l 250 36 b 217 0 250 10 242 0 l 151 0 "},"G":{"ha":886,"x_min":0,"x_max":0,"o":"m 450 -21 b 89 335 217 -21 89 115 l 89 651 b 449 1007 89 871 215 1007 b 792 769 642 1007 747 924 b 771 724 800 744 794 732 l 710 704 b 667 728 686 696 676 701 b 449 882 636 832 572 882 b 222 653 296 882 222 799 l 222 335 b 450 104 222 188 297 104 b 679 306 600 104 679 178 l 679 406 l 463 406 b 429 442 438 406 429 414 l 429 493 b 463 529 429 519 438 529 l 774 529 b 808 492 800 529 808 519 l 808 310 b 450 -21 808 115 681 -21 "},"Ğ":{"ha":886,"x_min":0,"x_max":0,"o":"m 449 1071 b 249 1218 349 1071 281 1124 b 263 1249 243 1235 247 1243 l 306 1264 b 339 1253 324 1269 332 1268 b 449 1161 358 1193 393 1161 b 560 1253 506 1161 539 1190 b 588 1265 567 1268 574 1269 l 638 1249 b 651 1218 653 1242 657 1235 b 449 1071 618 1124 551 1071 m 450 -21 b 89 335 217 -21 89 115 l 89 651 b 449 1007 89 871 215 1007 b 792 769 642 1007 747 924 b 771 724 800 744 794 732 l 710 704 b 667 728 686 696 676 701 b 449 882 636 832 572 882 b 222 653 296 882 222 799 l 222 335 b 450 104 222 188 297 104 b 679 306 600 104 679 178 l 679 406 l 463 406 b 429 442 438 406 429 414 l 429 493 b 463 529 429 519 438 529 l 774 529 b 808 492 800 529 808 519 l 808 310 b 450 -21 808 115 681 -21 "},"Ĝ":{"ha":886,"x_min":0,"x_max":0,"o":"m 251 1068 b 236 1094 224 1068 222 1081 l 381 1238 b 446 1267 408 1265 414 1267 l 458 1267 b 519 1238 485 1267 492 1267 l 664 1094 b 647 1068 676 1081 676 1068 l 599 1068 b 546 1086 572 1068 561 1069 l 449 1186 l 349 1086 b 297 1068 332 1069 325 1068 l 251 1068 m 450 -21 b 89 335 217 -21 89 115 l 89 651 b 449 1007 89 871 215 1007 b 792 769 642 1007 747 924 b 771 724 800 744 794 732 l 710 704 b 667 728 686 696 676 701 b 449 882 636 832 572 882 b 222 653 296 882 222 799 l 222 335 b 450 104 222 188 297 104 b 679 306 600 104 679 178 l 679 406 l 463 406 b 429 442 438 406 429 414 l 429 493 b 463 529 429 519 438 529 l 774 529 b 808 492 800 529 808 519 l 808 310 b 450 -21 808 115 681 -21 "},"Ģ":{"ha":886,"x_min":0,"x_max":0,"o":"m 450 -21 b 89 335 217 -21 89 115 l 89 651 b 449 1007 89 871 215 1007 b 792 769 642 1007 747 924 b 771 724 800 744 794 732 l 710 704 b 667 728 686 696 676 701 b 449 882 636 832 572 882 b 222 653 296 882 222 799 l 222 335 b 450 104 222 188 297 104 b 679 306 600 104 679 178 l 679 406 l 463 406 b 429 442 438 406 429 414 l 429 493 b 463 529 429 519 438 529 l 774 529 b 808 492 800 529 808 519 l 808 310 b 450 -21 808 115 681 -21 m 369 -351 b 349 -326 350 -351 346 -346 l 386 -128 b 426 -93 389 -100 399 -93 l 482 -93 b 513 -128 513 -93 521 -106 l 449 -319 b 410 -351 440 -343 432 -351 l 369 -351 "},"Ġ":{"ha":886,"x_min":0,"x_max":0,"o":"m 446 1099 b 386 1158 400 1099 386 1113 l 386 1168 b 446 1226 386 1214 400 1226 l 453 1226 b 513 1168 499 1226 513 1214 l 513 1158 b 453 1099 513 1113 499 1099 l 446 1099 m 450 -21 b 89 335 217 -21 89 115 l 89 651 b 449 1007 89 871 215 1007 b 792 769 642 1007 747 924 b 771 724 800 744 794 732 l 710 704 b 667 728 686 696 676 701 b 449 882 636 832 572 882 b 222 653 296 882 222 799 l 222 335 b 450 104 222 188 297 104 b 679 306 600 104 679 178 l 679 406 l 463 406 b 429 442 438 406 429 414 l 429 493 b 463 529 429 519 438 529 l 774 529 b 808 492 800 529 808 519 l 808 310 b 450 -21 808 115 681 -21 "},"H":{"ha":922,"x_min":0,"x_max":0,"o":"m 151 0 b 117 36 125 0 117 10 l 117 950 b 151 986 117 976 125 986 l 217 986 b 251 950 243 986 251 976 l 251 563 l 672 563 l 672 950 b 706 986 672 976 679 986 l 771 986 b 806 950 797 986 806 976 l 806 36 b 771 0 806 10 797 0 l 706 0 b 672 36 679 0 672 10 l 672 438 l 251 438 l 251 36 b 217 0 251 10 243 0 l 151 0 "},"Ħ":{"ha":921,"x_min":0,"x_max":0,"o":"m 150 0 b 115 36 124 0 115 10 l 115 753 l 50 753 b 28 776 32 753 28 757 l 28 807 b 50 832 28 826 35 832 l 115 832 l 115 950 b 150 986 115 976 124 986 l 215 986 b 250 950 242 986 250 976 l 250 832 l 669 832 l 669 950 b 704 986 669 976 678 986 l 769 986 b 804 950 796 986 804 976 l 804 832 l 871 832 b 893 807 889 832 893 826 l 893 776 b 871 753 893 757 889 753 l 804 753 l 804 36 b 769 0 804 10 796 0 l 704 0 b 669 36 678 0 669 10 l 669 438 l 250 438 l 250 36 b 215 0 250 10 242 0 l 150 0 m 669 563 l 669 753 l 250 753 l 250 563 "},"Ĥ":{"ha":922,"x_min":0,"x_max":0,"o":"m 264 1054 b 249 1081 236 1054 235 1067 l 393 1224 b 458 1253 421 1251 426 1253 l 471 1253 b 532 1224 497 1253 504 1253 l 676 1081 b 660 1054 689 1067 689 1054 l 611 1054 b 558 1072 585 1054 574 1056 l 461 1172 l 361 1072 b 310 1054 344 1056 338 1054 l 264 1054 m 151 0 b 117 36 125 0 117 10 l 117 950 b 151 986 117 976 125 986 l 217 986 b 251 950 243 986 251 976 l 251 563 l 672 563 l 672 950 b 706 986 672 976 679 986 l 771 986 b 806 950 797 986 806 976 l 806 36 b 771 0 806 10 797 0 l 706 0 b 672 36 679 0 672 10 l 672 438 l 251 438 l 251 36 b 217 0 251 10 243 0 l 151 0 "},"I":{"ha":368,"x_min":0,"x_max":0,"o":"m 149 0 b 117 33 131 0 117 6 l 117 954 b 149 986 117 982 131 986 l 221 986 b 251 954 239 986 251 982 l 251 33 b 219 0 251 6 236 0 l 149 0 "},"Ĳ":{"ha":1111,"x_min":0,"x_max":0,"o":"m 685 -19 b 381 228 515 -19 419 72 b 401 275 372 254 378 267 l 461 294 b 506 269 486 303 496 296 b 686 106 529 163 586 106 b 867 317 807 106 867 182 l 867 951 b 900 988 867 978 875 988 l 968 988 b 1000 951 992 988 1000 978 l 1000 318 b 685 -19 1000 110 892 -19 m 149 0 b 117 33 131 0 117 6 l 117 954 b 149 986 117 982 131 986 l 221 986 b 251 954 239 986 251 982 l 251 33 b 219 0 251 6 236 0 l 149 0 "},"Í":{"ha":368,"x_min":0,"x_max":0,"o":"m 101 1058 b 58 1061 81 1050 68 1049 l 43 1081 b 46 1117 29 1099 29 1107 l 239 1247 b 300 1246 260 1260 282 1267 l 328 1213 b 324 1175 344 1193 344 1183 l 101 1058 m 149 0 b 117 33 131 0 117 6 l 117 954 b 149 986 117 982 131 986 l 221 986 b 251 954 239 986 251 982 l 251 33 b 219 0 251 6 236 0 l 149 0 "},"Ĭ":{"ha":368,"x_min":0,"x_max":0,"o":"m 185 1057 b -15 1204 85 1057 17 1110 b -1 1235 -21 1221 -17 1229 l 42 1250 b 75 1239 60 1256 68 1254 b 185 1147 94 1179 129 1147 b 296 1239 242 1147 275 1176 b 324 1251 303 1254 310 1256 l 374 1235 b 388 1204 389 1228 393 1221 b 185 1057 354 1110 288 1057 m 149 0 b 117 33 131 0 117 6 l 117 954 b 149 986 117 982 131 986 l 221 986 b 251 954 239 986 251 982 l 251 33 b 219 0 251 6 236 0 l 149 0 "},"Î":{"ha":368,"x_min":0,"x_max":0,"o":"m -12 1054 b -28 1081 -40 1054 -42 1067 l 117 1224 b 182 1253 144 1251 150 1253 l 194 1253 b 256 1224 221 1253 228 1253 l 400 1081 b 383 1054 413 1067 413 1054 l 335 1054 b 282 1072 308 1054 297 1056 l 185 1172 l 85 1072 b 33 1054 68 1056 61 1054 l -12 1054 m 149 0 b 117 33 131 0 117 6 l 117 954 b 149 986 117 982 131 986 l 221 986 b 251 954 239 986 251 982 l 251 33 b 219 0 251 6 236 0 l 149 0 "},"Ï":{"ha":368,"x_min":0,"x_max":0,"o":"m 49 1089 b -8 1146 6 1089 -8 1103 l -8 1158 b 49 1215 -8 1200 6 1215 l 58 1215 b 115 1158 103 1215 115 1200 l 115 1146 b 58 1089 115 1103 103 1089 l 49 1089 m 311 1089 b 253 1146 267 1089 253 1103 l 253 1158 b 311 1215 253 1200 267 1215 l 321 1215 b 378 1158 364 1215 378 1200 l 378 1146 b 321 1089 378 1103 364 1089 l 311 1089 m 149 0 b 117 33 131 0 117 6 l 117 954 b 149 986 117 982 131 986 l 221 986 b 251 954 239 986 251 982 l 251 33 b 219 0 251 6 236 0 l 149 0 "},"İ":{"ha":368,"x_min":0,"x_max":0,"o":"m 182 1085 b 122 1144 136 1085 122 1099 l 122 1154 b 182 1213 122 1200 136 1213 l 189 1213 b 249 1154 235 1213 249 1200 l 249 1144 b 189 1085 249 1099 235 1085 l 182 1085 m 149 0 b 117 33 131 0 117 6 l 117 954 b 149 986 117 982 131 986 l 221 986 b 251 954 239 986 251 982 l 251 33 b 219 0 251 6 236 0 l 149 0 "},"Ì":{"ha":368,"x_min":0,"x_max":0,"o":"m 49 1174 b 44 1213 28 1183 28 1193 l 72 1246 b 133 1247 90 1267 111 1260 l 326 1117 b 329 1079 343 1107 343 1097 l 314 1060 b 271 1058 304 1047 292 1050 m 149 0 b 117 33 131 0 117 6 l 117 954 b 149 986 117 982 131 986 l 221 986 b 251 954 239 986 251 982 l 251 33 b 219 0 251 6 236 0 l 149 0 "},"Ī":{"ha":368,"x_min":0,"x_max":0,"o":"m 28 1103 b -3 1135 4 1103 -3 1110 l -3 1163 b 28 1193 -3 1186 6 1193 l 343 1193 b 374 1163 367 1193 374 1186 l 374 1135 b 343 1103 374 1110 367 1103 l 28 1103 m 149 0 b 117 33 131 0 117 6 l 117 954 b 149 986 117 982 131 986 l 221 986 b 251 954 239 986 251 982 l 251 33 b 219 0 251 6 236 0 l 149 0 "},"Į":{"ha":368,"x_min":0,"x_max":0,"o":"m 171 -342 b 57 -265 118 -342 69 -322 b 157 1 38 -192 72 -99 b 117 38 124 1 117 14 l 117 950 b 154 986 117 976 126 986 l 215 986 b 251 950 242 986 251 976 l 251 36 b 242 4 251 22 249 13 b 163 -215 168 -90 149 -174 b 210 -250 169 -239 189 -250 b 265 -226 231 -250 249 -242 b 286 -232 274 -221 282 -222 l 301 -268 b 299 -292 306 -279 306 -286 b 171 -342 265 -325 219 -342 "},"Ĩ":{"ha":368,"x_min":0,"x_max":0,"o":"m 0 1068 b -22 1089 -15 1068 -22 1074 b 86 1235 -22 1192 18 1235 b 265 1147 178 1235 204 1147 b 307 1214 292 1147 307 1171 b 326 1235 307 1228 311 1235 l 361 1235 b 382 1214 378 1235 382 1228 b 274 1068 382 1111 347 1068 b 97 1154 188 1068 160 1154 b 56 1089 71 1154 56 1132 b 35 1068 56 1074 50 1068 l 0 1068 m 149 0 b 117 33 131 0 117 6 l 117 954 b 149 986 117 982 131 986 l 221 986 b 251 954 239 986 251 982 l 251 33 b 219 0 251 6 236 0 l 149 0 "},"J":{"ha":769,"x_min":0,"x_max":0,"o":"m 343 -21 b 40 228 174 -21 78 71 b 60 274 32 253 36 265 l 119 294 b 164 269 144 303 154 296 b 344 104 189 161 244 104 b 526 317 465 104 526 181 l 526 950 b 558 986 526 976 533 986 l 626 986 b 660 950 650 986 660 976 l 660 317 b 343 -21 660 108 550 -21 "},"Ĵ":{"ha":769,"x_min":0,"x_max":0,"o":"m 396 1054 b 381 1081 368 1054 367 1067 l 525 1224 b 590 1253 553 1251 558 1253 l 603 1253 b 664 1224 629 1253 636 1253 l 808 1081 b 792 1054 821 1067 821 1054 l 743 1054 b 690 1072 717 1054 706 1056 l 593 1172 l 493 1072 b 442 1054 476 1056 469 1054 l 396 1054 m 343 -21 b 40 228 174 -21 78 71 b 60 274 32 253 36 265 l 119 294 b 164 269 144 303 154 296 b 344 104 189 161 244 104 b 526 317 465 104 526 181 l 526 950 b 558 986 526 976 533 986 l 626 986 b 660 950 650 986 660 976 l 660 317 b 343 -21 660 108 550 -21 "},"K":{"ha":831,"x_min":0,"x_max":0,"o":"m 151 0 b 117 36 125 0 117 10 l 117 950 b 151 986 117 976 125 986 l 217 986 b 251 950 243 986 251 976 l 251 561 l 354 561 l 376 561 l 625 956 b 683 986 640 982 649 986 l 758 986 b 776 951 782 986 788 969 l 501 535 b 632 379 560 510 594 457 l 790 38 b 769 0 800 15 796 0 l 700 0 b 644 32 664 0 657 4 l 513 329 b 365 439 476 410 449 439 l 251 439 l 251 36 b 217 0 251 10 243 0 l 151 0 "},"Ķ":{"ha":831,"x_min":0,"x_max":0,"o":"m 151 0 b 117 36 125 0 117 10 l 117 950 b 151 986 117 976 125 986 l 217 986 b 251 950 243 986 251 976 l 251 561 l 354 561 l 376 561 l 625 956 b 683 986 640 982 649 986 l 758 986 b 776 951 782 986 788 969 l 501 535 b 632 379 560 510 594 457 l 790 38 b 769 0 800 15 796 0 l 700 0 b 644 32 664 0 657 4 l 513 329 b 365 439 476 410 449 439 l 251 439 l 251 36 b 217 0 251 10 243 0 l 151 0 m 367 -351 b 346 -326 347 -351 343 -346 l 383 -128 b 424 -93 386 -100 396 -93 l 479 -93 b 510 -128 510 -93 518 -106 l 446 -319 b 407 -351 438 -343 429 -351 l 367 -351 "},"L":{"ha":701,"x_min":0,"x_max":0,"o":"m 150 0 b 117 36 125 0 117 10 l 117 950 b 150 986 117 976 125 986 l 217 986 b 251 950 243 986 251 976 l 251 125 l 636 125 b 669 88 661 125 669 115 l 669 36 b 636 0 669 10 661 0 l 150 0 "},"Ĺ":{"ha":701,"x_min":0,"x_max":0,"o":"m 100 1058 b 57 1061 79 1050 67 1049 l 42 1081 b 44 1117 28 1099 28 1107 l 238 1247 b 299 1246 258 1260 281 1267 l 326 1213 b 322 1175 343 1193 343 1183 l 100 1058 m 150 0 b 117 36 125 0 117 10 l 117 950 b 150 986 117 976 125 986 l 217 986 b 251 950 243 986 251 976 l 251 125 l 636 125 b 669 88 661 125 669 115 l 669 36 b 636 0 669 10 661 0 l 150 0 "},"Ľ":{"ha":701,"x_min":0,"x_max":0,"o":"m 150 0 b 117 36 125 0 117 10 l 117 950 b 150 986 117 976 125 986 l 217 986 b 250 950 242 986 250 976 l 250 125 l 636 125 b 669 88 661 125 669 115 l 669 36 b 636 0 669 10 661 0 l 150 0 m 494 682 b 474 706 475 682 471 688 l 515 953 b 554 986 518 979 528 986 l 606 986 b 635 951 635 986 643 975 l 563 713 b 525 682 554 690 547 682 l 494 682 "},"Ļ":{"ha":701,"x_min":0,"x_max":0,"o":"m 150 0 b 117 36 125 0 117 10 l 117 950 b 150 986 117 976 125 986 l 217 986 b 251 950 243 986 251 976 l 251 125 l 636 125 b 669 88 661 125 669 115 l 669 36 b 636 0 669 10 661 0 l 150 0 m 313 -351 b 292 -326 293 -351 289 -346 l 329 -128 b 369 -93 332 -100 342 -93 l 425 -93 b 456 -128 456 -93 464 -106 l 392 -319 b 353 -351 383 -343 375 -351 l 313 -351 "},"Ŀ":{"ha":701,"x_min":0,"x_max":0,"o":"m 150 0 b 117 36 125 0 117 10 l 117 950 b 150 986 117 976 125 986 l 217 986 b 251 950 243 986 251 976 l 251 125 l 636 125 b 669 88 661 125 669 115 l 669 36 b 636 0 669 10 661 0 l 150 0 m 492 439 b 419 511 438 439 419 456 l 419 521 b 492 593 419 575 438 593 l 500 593 b 571 521 554 593 571 575 l 571 511 b 500 439 571 457 554 439 l 492 439 "},"Ł":{"ha":731,"x_min":0,"x_max":0,"o":"m 176 0 b 140 36 149 0 140 10 l 140 381 l 65 339 b 29 350 46 329 38 333 l 10 389 b 19 422 1 404 7 415 l 140 483 l 140 950 b 176 986 140 976 149 986 l 238 986 b 274 950 265 986 274 976 l 274 543 l 497 656 b 533 647 518 665 526 661 l 554 604 b 542 574 561 590 557 581 l 274 440 l 274 125 l 661 125 b 697 88 688 125 697 115 l 697 36 b 661 0 697 10 688 0 l 176 0 "},"M":{"ha":1092,"x_min":0,"x_max":0,"o":"m 151 0 b 117 36 125 0 117 10 l 117 950 b 151 986 117 976 125 986 l 208 986 b 257 958 236 986 247 981 l 546 376 l 832 957 b 878 986 843 981 851 986 l 939 986 b 974 950 965 986 974 976 l 974 36 b 939 0 974 10 965 0 l 881 0 b 846 36 854 0 846 10 l 846 539 b 867 799 846 615 851 697 l 860 799 b 763 567 828 707 800 640 l 606 256 b 565 229 596 235 588 229 l 525 229 b 485 256 503 229 494 233 l 322 568 b 231 800 286 642 261 706 l 224 800 b 243 539 239 697 243 621 l 243 36 b 210 0 243 10 235 0 l 151 0 "},"N":{"ha":936,"x_min":0,"x_max":0,"o":"m 151 0 b 117 36 125 0 117 10 l 117 950 b 151 986 117 976 125 986 l 228 986 b 261 968 246 986 254 981 l 600 400 b 706 176 647 319 674 250 l 713 176 b 689 447 699 263 689 342 l 689 950 b 724 986 689 976 699 986 l 785 986 b 818 950 810 986 818 976 l 818 36 b 785 0 818 10 810 0 l 710 0 b 676 18 693 0 685 4 l 333 596 b 235 810 290 671 261 749 l 229 810 b 247 550 236 738 247 647 l 247 36 b 213 0 247 10 238 0 l 151 0 "},"Ń":{"ha":936,"x_min":0,"x_max":0,"o":"m 386 1058 b 343 1061 365 1050 353 1049 l 328 1081 b 331 1117 314 1099 314 1107 l 524 1247 b 585 1246 544 1260 567 1267 l 613 1213 b 608 1175 629 1193 629 1183 l 386 1058 m 151 0 b 117 36 125 0 117 10 l 117 950 b 151 986 117 976 125 986 l 228 986 b 261 968 246 986 254 981 l 600 400 b 706 176 647 319 674 250 l 713 176 b 689 447 699 263 689 342 l 689 950 b 724 986 689 976 699 986 l 785 986 b 818 950 810 986 818 976 l 818 36 b 785 0 818 10 810 0 l 710 0 b 676 18 693 0 685 4 l 333 596 b 235 810 290 671 261 749 l 229 810 b 247 550 236 738 247 647 l 247 36 b 213 0 247 10 238 0 l 151 0 "},"Ň":{"ha":936,"x_min":0,"x_max":0,"o":"m 464 1053 b 400 1082 433 1053 426 1054 l 256 1225 b 271 1251 242 1239 243 1251 l 317 1251 b 368 1233 343 1251 351 1251 l 467 1133 l 565 1233 b 618 1251 579 1250 590 1251 l 667 1251 b 683 1225 694 1251 696 1239 l 538 1082 b 476 1053 510 1053 503 1053 l 464 1053 m 151 0 b 117 36 125 0 117 10 l 117 950 b 151 986 117 976 125 986 l 228 986 b 261 968 246 986 254 981 l 600 400 b 706 176 647 319 674 250 l 713 176 b 689 447 699 263 689 342 l 689 950 b 724 986 689 976 699 986 l 785 986 b 818 950 810 986 818 976 l 818 36 b 785 0 818 10 810 0 l 710 0 b 676 18 693 0 685 4 l 333 596 b 235 810 290 671 261 749 l 229 810 b 247 550 236 738 247 647 l 247 36 b 213 0 247 10 238 0 l 151 0 "},"Ņ":{"ha":936,"x_min":0,"x_max":0,"o":"m 151 0 b 117 36 125 0 117 10 l 117 950 b 151 986 117 976 125 986 l 228 986 b 261 968 246 986 254 981 l 600 400 b 706 176 647 319 674 250 l 713 176 b 689 447 699 263 689 342 l 689 950 b 724 986 689 976 699 986 l 785 986 b 818 950 810 986 818 976 l 818 36 b 785 0 818 10 810 0 l 710 0 b 676 18 693 0 685 4 l 333 596 b 235 810 290 671 261 749 l 229 810 b 247 550 236 738 247 647 l 247 36 b 213 0 247 10 238 0 l 151 0 m 397 -351 b 376 -326 378 -351 374 -346 l 414 -128 b 454 -93 417 -100 426 -93 l 510 -93 b 540 -128 540 -93 549 -106 l 476 -319 b 438 -351 468 -343 460 -351 l 397 -351 "},"Ŋ":{"ha":936,"x_min":0,"x_max":0,"o":"m 535 -319 b 501 -286 510 -319 501 -311 l 501 -237 b 535 -204 501 -212 510 -204 b 689 -18 664 -204 689 -136 l 689 6 l 333 596 b 235 810 290 671 261 749 l 229 810 b 247 550 236 738 247 647 l 247 36 b 213 0 247 10 238 0 l 151 0 b 117 36 125 0 117 10 l 117 950 b 151 986 117 976 125 986 l 228 986 b 261 968 246 986 254 981 l 600 400 b 706 176 647 319 674 250 l 713 176 b 689 447 699 263 689 342 l 689 950 b 724 986 689 976 699 986 l 785 986 b 818 950 810 986 818 976 l 818 -37 b 535 -319 815 -229 751 -319 "},"Ñ":{"ha":936,"x_min":0,"x_max":0,"o":"m 285 1068 b 263 1089 269 1068 263 1074 b 371 1235 263 1192 303 1235 b 550 1147 463 1235 489 1147 b 592 1214 576 1147 592 1171 b 611 1235 592 1228 596 1235 l 646 1235 b 667 1214 663 1235 667 1228 b 558 1068 667 1111 632 1068 b 382 1154 472 1068 444 1154 b 340 1089 356 1154 340 1132 b 319 1068 340 1074 335 1068 l 285 1068 m 151 0 b 117 36 125 0 117 10 l 117 950 b 151 986 117 976 125 986 l 228 986 b 261 968 246 986 254 981 l 600 400 b 706 176 647 319 674 250 l 713 176 b 689 447 699 263 689 342 l 689 950 b 724 986 689 976 699 986 l 785 986 b 818 950 810 986 818 976 l 818 36 b 785 0 818 10 810 0 l 710 0 b 676 18 693 0 685 4 l 333 596 b 235 810 290 671 261 749 l 229 810 b 247 550 236 738 247 647 l 247 36 b 213 0 247 10 238 0 l 151 0 "},"O":{"ha":899,"x_min":0,"x_max":0,"o":"m 450 -21 b 89 335 217 -21 89 115 l 89 651 b 450 1007 89 871 217 1007 b 810 651 682 1007 810 871 l 810 335 b 450 -21 810 115 682 -21 m 450 104 b 676 335 597 104 676 188 l 676 651 b 450 882 676 799 597 882 b 222 651 301 882 222 799 l 222 335 b 450 104 222 188 301 104 "},"Ó":{"ha":899,"x_min":0,"x_max":0,"o":"m 367 1072 b 324 1075 346 1064 333 1063 l 308 1094 b 311 1131 294 1113 294 1121 l 504 1261 b 565 1260 525 1274 547 1281 l 593 1226 b 589 1189 610 1207 610 1197 l 367 1072 m 450 -21 b 89 335 217 -21 89 115 l 89 651 b 450 1007 89 871 217 1007 b 810 651 682 1007 810 871 l 810 335 b 450 -21 810 115 682 -21 m 450 104 b 676 335 597 104 676 188 l 676 651 b 450 882 676 799 597 882 b 222 651 301 882 222 799 l 222 335 b 450 104 222 188 301 104 "},"Ŏ":{"ha":899,"x_min":0,"x_max":0,"o":"m 449 1071 b 249 1218 349 1071 281 1124 b 263 1249 243 1235 247 1243 l 306 1264 b 339 1253 324 1269 332 1268 b 449 1161 358 1193 393 1161 b 560 1253 506 1161 539 1190 b 588 1265 567 1268 574 1269 l 638 1249 b 651 1218 653 1242 657 1235 b 449 1071 618 1124 551 1071 m 450 -21 b 89 335 217 -21 89 115 l 89 651 b 450 1007 89 871 217 1007 b 810 651 682 1007 810 871 l 810 335 b 450 -21 810 115 682 -21 m 450 104 b 676 335 597 104 676 188 l 676 651 b 450 882 676 799 597 882 b 222 651 301 882 222 799 l 222 335 b 450 104 222 188 301 104 "},"Ô":{"ha":899,"x_min":0,"x_max":0,"o":"m 251 1068 b 236 1094 224 1068 222 1081 l 381 1238 b 446 1267 408 1265 414 1267 l 458 1267 b 519 1238 485 1267 492 1267 l 664 1094 b 647 1068 676 1081 676 1068 l 599 1068 b 546 1086 572 1068 561 1069 l 449 1186 l 349 1086 b 297 1068 332 1069 325 1068 l 251 1068 m 450 -21 b 89 335 217 -21 89 115 l 89 651 b 450 1007 89 871 217 1007 b 810 651 682 1007 810 871 l 810 335 b 450 -21 810 115 682 -21 m 450 104 b 676 335 597 104 676 188 l 676 651 b 450 882 676 799 597 882 b 222 651 301 882 222 799 l 222 335 b 450 104 222 188 301 104 "},"Ö":{"ha":899,"x_min":0,"x_max":0,"o":"m 314 1103 b 257 1160 271 1103 257 1117 l 257 1172 b 314 1229 257 1214 271 1229 l 324 1229 b 381 1172 368 1229 381 1214 l 381 1160 b 324 1103 381 1117 368 1103 l 314 1103 m 576 1103 b 518 1160 532 1103 518 1117 l 518 1172 b 576 1229 518 1214 532 1229 l 586 1229 b 643 1172 629 1229 643 1214 l 643 1160 b 586 1103 643 1117 629 1103 l 576 1103 m 450 -21 b 89 335 217 -21 89 115 l 89 651 b 450 1007 89 871 217 1007 b 810 651 682 1007 810 871 l 810 335 b 450 -21 810 115 682 -21 m 450 104 b 676 335 597 104 676 188 l 676 651 b 450 882 676 799 597 882 b 222 651 301 882 222 799 l 222 335 b 450 104 222 188 301 104 "},"Ò":{"ha":899,"x_min":0,"x_max":0,"o":"m 314 1188 b 310 1226 293 1197 293 1207 l 338 1260 b 399 1261 356 1281 376 1274 l 592 1131 b 594 1093 608 1121 608 1111 l 579 1074 b 536 1072 569 1061 557 1064 m 450 -21 b 89 335 217 -21 89 115 l 89 651 b 450 1007 89 871 217 1007 b 810 651 682 1007 810 871 l 810 335 b 450 -21 810 115 682 -21 m 450 104 b 676 335 597 104 676 188 l 676 651 b 450 882 676 799 597 882 b 222 651 301 882 222 799 l 222 335 b 450 104 222 188 301 104 "},"Ő":{"ha":899,"x_min":0,"x_max":0,"o":"m 271 1078 b 261 1111 249 1085 250 1096 l 364 1251 b 419 1274 378 1272 394 1282 l 457 1261 b 468 1224 481 1253 485 1239 l 331 1086 b 290 1072 314 1071 306 1067 m 489 1075 b 478 1108 467 1081 467 1093 l 590 1250 b 646 1272 606 1271 621 1281 l 686 1260 b 697 1222 710 1251 714 1238 l 547 1082 b 508 1068 531 1068 522 1063 m 450 -21 b 89 335 217 -21 89 115 l 89 651 b 450 1007 89 871 217 1007 b 810 651 682 1007 810 871 l 810 335 b 450 -21 810 115 682 -21 m 450 104 b 676 335 597 104 676 188 l 676 651 b 450 882 676 799 597 882 b 222 651 301 882 222 799 l 222 335 b 450 104 222 188 301 104 "},"Ō":{"ha":899,"x_min":0,"x_max":0,"o":"m 292 1117 b 261 1149 268 1117 261 1124 l 261 1176 b 292 1207 261 1200 269 1207 l 607 1207 b 638 1176 631 1207 638 1200 l 638 1149 b 607 1117 638 1124 631 1117 l 292 1117 m 450 -21 b 89 335 217 -21 89 115 l 89 651 b 450 1007 89 871 217 1007 b 810 651 682 1007 810 871 l 810 335 b 450 -21 810 115 682 -21 m 450 104 b 676 335 597 104 676 188 l 676 651 b 450 882 676 799 597 882 b 222 651 301 882 222 799 l 222 335 b 450 104 222 188 301 104 "},"Ø":{"ha":899,"x_min":0,"x_max":0,"o":"m 93 -57 b 88 -44 83 -57 83 -51 l 165 92 b 89 335 114 153 89 235 l 89 651 b 450 1007 89 871 217 1007 b 664 949 536 1007 608 986 l 713 1033 b 735 1044 718 1043 722 1044 l 806 1044 b 813 1032 814 1044 817 1039 l 732 894 b 810 651 783 833 810 751 l 810 335 b 450 -21 810 115 682 -21 b 235 36 363 -21 290 0 l 189 -43 b 164 -57 182 -54 181 -57 l 93 -57 m 599 838 b 450 882 563 867 513 882 b 222 651 301 882 222 799 l 222 349 b 251 239 222 304 232 268 m 450 104 b 676 335 597 104 676 188 l 676 651 b 650 750 676 692 668 725 l 300 149 b 450 104 336 119 386 104 "},"Ǿ":{"ha":899,"x_min":0,"x_max":0,"o":"m 382 1072 b 339 1075 361 1064 349 1063 l 324 1094 b 326 1131 310 1113 310 1121 l 519 1261 b 581 1260 540 1274 563 1281 l 608 1226 b 604 1189 625 1207 625 1197 l 382 1072 m 93 -57 b 88 -44 83 -57 83 -51 l 165 92 b 89 335 114 153 89 235 l 89 651 b 450 1007 89 871 217 1007 b 664 949 536 1007 608 986 l 713 1033 b 735 1044 718 1043 722 1044 l 806 1044 b 813 1032 814 1044 817 1039 l 732 894 b 810 651 783 833 810 751 l 810 335 b 450 -21 810 115 682 -21 b 235 36 363 -21 290 0 l 189 -43 b 164 -57 182 -54 181 -57 l 93 -57 m 599 838 b 450 882 563 867 513 882 b 222 651 301 882 222 799 l 222 349 b 251 239 222 304 232 268 m 450 104 b 676 335 597 104 676 188 l 676 651 b 650 750 676 692 668 725 l 300 149 b 450 104 336 119 386 104 "},"Õ":{"ha":899,"x_min":0,"x_max":0,"o":"m 264 1082 b 242 1103 249 1082 242 1088 b 350 1249 242 1206 282 1249 b 529 1161 442 1249 468 1161 b 571 1228 556 1161 571 1185 b 590 1249 571 1242 575 1249 l 625 1249 b 646 1228 642 1249 646 1242 b 538 1082 646 1125 611 1082 b 361 1168 451 1082 424 1168 b 319 1103 335 1168 319 1146 b 299 1082 319 1088 314 1082 l 264 1082 m 450 -21 b 89 335 217 -21 89 115 l 89 651 b 450 1007 89 871 217 1007 b 810 651 682 1007 810 871 l 810 335 b 450 -21 810 115 682 -21 m 450 104 b 676 335 597 104 676 188 l 676 651 b 450 882 676 799 597 882 b 222 651 301 882 222 799 l 222 335 b 450 104 222 188 301 104 "},"Œ":{"ha":1157,"x_min":0,"x_max":0,"o":"m 460 -21 b 89 335 222 -21 89 115 l 89 651 b 460 1007 89 871 222 1007 b 610 986 514 1007 567 1000 l 1043 986 b 1078 950 1069 986 1078 976 l 1078 899 b 1043 861 1078 871 1069 861 l 700 861 l 700 561 l 981 561 b 1015 525 1007 561 1015 553 l 1015 474 b 981 438 1015 446 1007 438 l 700 438 l 700 125 l 1060 125 b 1093 88 1085 125 1093 115 l 1093 36 b 1060 0 1093 10 1085 0 l 613 0 b 460 -21 567 -14 515 -21 m 460 104 b 571 121 507 104 549 113 l 571 865 b 460 882 546 874 506 882 b 222 651 307 882 222 799 l 222 335 b 460 104 222 188 307 104 "},"P":{"ha":844,"x_min":0,"x_max":0,"o":"m 151 0 b 117 36 125 0 117 10 l 117 950 b 151 986 117 976 125 986 l 489 986 b 789 671 671 986 789 868 b 490 358 789 475 672 358 l 251 358 l 251 36 b 217 0 251 10 243 0 l 151 0 m 483 482 b 654 671 590 482 654 551 b 483 861 654 792 590 861 l 251 861 l 251 482 "},"Þ":{"ha":831,"x_min":0,"x_max":0,"o":"m 151 0 b 117 36 125 0 117 10 l 117 950 b 151 986 117 976 125 986 l 217 986 b 251 950 242 986 251 976 l 251 824 l 478 824 b 775 499 653 824 775 703 b 478 174 775 296 653 174 l 251 174 l 251 36 b 217 0 251 10 242 0 l 151 0 m 463 296 b 644 499 574 296 644 376 b 463 703 644 621 574 703 l 251 703 l 251 296 "},"Q":{"ha":938,"x_min":0,"x_max":0,"o":"m 658 26 b 472 -21 608 -4 546 -21 b 110 335 238 -21 110 115 l 110 651 b 472 1007 110 871 238 1007 b 832 651 704 1007 832 871 l 832 335 b 761 100 832 239 808 160 l 854 -8 b 850 -58 869 -28 869 -42 l 804 -94 b 756 -89 783 -108 772 -108 m 472 104 b 699 335 619 104 699 188 l 699 651 b 472 882 699 799 619 882 b 243 651 322 882 243 799 l 243 335 b 472 104 243 188 322 104 "},"R":{"ha":874,"x_min":0,"x_max":0,"o":"m 151 0 b 117 36 125 0 117 10 l 117 950 b 151 986 117 976 125 986 l 503 986 b 789 690 675 986 789 878 b 597 426 789 540 718 453 b 674 335 635 406 657 372 l 811 38 b 790 0 819 15 817 0 l 724 0 b 661 32 682 0 674 4 l 547 286 b 399 401 510 372 481 401 l 251 401 l 251 36 b 217 0 251 10 243 0 l 151 0 m 497 519 b 656 690 593 519 656 579 b 497 861 656 800 594 861 l 251 861 l 251 519 "},"Ŕ":{"ha":874,"x_min":0,"x_max":0,"o":"m 347 1058 b 304 1061 326 1050 314 1049 l 289 1081 b 292 1117 275 1099 275 1107 l 485 1247 b 546 1246 506 1260 528 1267 l 574 1213 b 569 1175 590 1193 590 1183 l 347 1058 m 151 0 b 117 36 125 0 117 10 l 117 950 b 151 986 117 976 125 986 l 503 986 b 789 690 675 986 789 878 b 597 426 789 540 718 453 b 674 335 635 406 657 372 l 811 38 b 790 0 819 15 817 0 l 724 0 b 661 32 682 0 674 4 l 547 286 b 399 401 510 372 481 401 l 251 401 l 251 36 b 217 0 251 10 243 0 l 151 0 m 497 519 b 656 690 593 519 656 579 b 497 861 656 800 594 861 l 251 861 l 251 519 "},"Ř":{"ha":874,"x_min":0,"x_max":0,"o":"m 424 1053 b 360 1082 393 1053 386 1054 l 215 1225 b 231 1251 201 1239 203 1251 l 276 1251 b 328 1233 303 1251 311 1251 l 426 1133 l 525 1233 b 578 1251 539 1250 550 1251 l 626 1251 b 643 1225 654 1251 656 1239 l 497 1082 b 436 1053 469 1053 463 1053 l 424 1053 m 151 0 b 117 36 125 0 117 10 l 117 950 b 151 986 117 976 125 986 l 503 986 b 789 690 675 986 789 878 b 597 426 789 540 718 453 b 674 335 635 406 657 372 l 811 38 b 790 0 819 15 817 0 l 724 0 b 661 32 682 0 674 4 l 547 286 b 399 401 510 372 481 401 l 251 401 l 251 36 b 217 0 251 10 243 0 l 151 0 m 497 519 b 656 690 593 519 656 579 b 497 861 656 800 594 861 l 251 861 l 251 519 "},"Ŗ":{"ha":874,"x_min":0,"x_max":0,"o":"m 151 0 b 117 36 125 0 117 10 l 117 950 b 151 986 117 976 125 986 l 503 986 b 789 690 675 986 789 878 b 597 426 789 540 718 453 b 674 335 635 406 657 372 l 811 38 b 790 0 819 15 817 0 l 724 0 b 661 32 682 0 674 4 l 547 286 b 399 401 510 372 481 401 l 251 401 l 251 36 b 217 0 251 10 243 0 l 151 0 m 497 519 b 656 690 593 519 656 579 b 497 861 656 800 594 861 l 251 861 l 251 519 m 383 -351 b 363 -326 364 -351 360 -346 l 400 -128 b 440 -93 403 -100 413 -93 l 496 -93 b 526 -128 526 -93 535 -106 l 463 -319 b 424 -351 454 -343 446 -351 l 383 -351 "},"S":{"ha":847,"x_min":0,"x_max":0,"o":"m 421 -21 b 71 214 236 -21 124 57 b 92 261 61 240 68 253 l 153 282 b 199 260 176 290 188 286 b 421 104 238 156 313 104 b 643 276 567 104 643 160 b 421 435 643 397 539 421 b 81 717 268 453 81 488 b 422 1007 81 890 203 1007 b 757 794 600 1007 694 932 b 740 746 768 769 764 756 l 681 724 b 638 742 657 714 649 717 b 422 879 596 833 529 879 b 215 721 285 879 215 824 b 454 558 215 597 328 574 b 779 272 606 540 779 496 b 421 -21 779 90 653 -21 "},"Ś":{"ha":847,"x_min":0,"x_max":0,"o":"m 343 1072 b 300 1075 322 1064 310 1063 l 285 1094 b 288 1131 271 1113 271 1121 l 481 1261 b 542 1260 501 1274 524 1281 l 569 1226 b 565 1189 586 1207 586 1197 l 343 1072 m 421 -21 b 71 214 236 -21 124 57 b 92 261 61 240 68 253 l 153 282 b 199 260 176 290 188 286 b 421 104 238 156 313 104 b 643 276 567 104 643 160 b 421 435 643 397 539 421 b 81 717 268 453 81 488 b 422 1007 81 890 203 1007 b 757 794 600 1007 694 932 b 740 746 768 769 764 756 l 681 724 b 638 742 657 714 649 717 b 422 879 596 833 529 879 b 215 721 285 879 215 824 b 454 558 215 597 328 574 b 779 272 606 540 779 496 b 421 -21 779 90 653 -21 "},"Š":{"ha":847,"x_min":0,"x_max":0,"o":"m 421 1067 b 357 1096 390 1067 383 1068 l 213 1239 b 228 1265 199 1253 200 1265 l 274 1265 b 325 1247 300 1265 308 1265 l 424 1147 l 522 1247 b 575 1265 536 1264 547 1265 l 624 1265 b 640 1239 651 1265 653 1253 l 494 1096 b 433 1067 467 1067 460 1067 l 421 1067 m 421 -21 b 71 214 236 -21 124 57 b 92 261 61 240 68 253 l 153 282 b 199 260 176 290 188 286 b 421 104 238 156 313 104 b 643 276 567 104 643 160 b 421 435 643 397 539 421 b 81 717 268 453 81 488 b 422 1007 81 890 203 1007 b 757 794 600 1007 694 932 b 740 746 768 769 764 756 l 681 724 b 638 742 657 714 649 717 b 422 879 596 833 529 879 b 215 721 285 879 215 824 b 454 558 215 597 328 574 b 779 272 606 540 779 496 b 421 -21 779 90 653 -21 "},"Ş":{"ha":847,"x_min":0,"x_max":0,"o":"m 418 -340 b 321 -318 389 -340 344 -332 b 303 -286 306 -311 303 -303 l 301 -253 b 319 -239 301 -242 306 -232 b 401 -267 340 -254 360 -267 b 479 -203 454 -267 479 -244 b 413 -151 479 -169 456 -153 b 376 -156 400 -151 388 -153 b 360 -128 357 -157 351 -147 l 401 -19 b 71 217 229 -14 122 65 b 92 264 61 243 68 256 l 153 285 b 199 263 176 293 188 289 b 421 104 239 157 313 104 b 643 276 567 104 643 160 b 421 435 643 397 539 421 b 81 717 268 453 81 488 b 422 1007 81 890 203 1007 b 757 794 600 1007 694 932 b 740 746 768 769 764 756 l 681 724 b 638 742 657 714 649 717 b 422 879 596 833 529 879 b 215 721 285 879 215 824 b 454 558 215 597 328 574 b 779 272 606 540 779 496 b 475 -18 779 106 674 -1 l 451 -92 b 474 -89 458 -90 467 -89 b 588 -210 546 -89 592 -140 b 418 -340 579 -308 503 -340 "},"Ŝ":{"ha":847,"x_min":0,"x_max":0,"o":"m 229 1068 b 214 1094 201 1068 200 1081 l 358 1238 b 424 1267 386 1265 392 1267 l 436 1267 b 497 1238 463 1267 469 1267 l 642 1094 b 625 1068 654 1081 654 1068 l 576 1068 b 524 1086 550 1068 539 1069 l 426 1186 l 326 1086 b 275 1068 310 1069 303 1068 l 229 1068 m 421 -21 b 71 214 236 -21 124 57 b 92 261 61 240 68 253 l 153 282 b 199 260 176 290 188 286 b 421 104 238 156 313 104 b 643 276 567 104 643 160 b 421 435 643 397 539 421 b 81 717 268 453 81 488 b 422 1007 81 890 203 1007 b 757 794 600 1007 694 932 b 740 746 768 769 764 756 l 681 724 b 638 742 657 714 649 717 b 422 879 596 833 529 879 b 215 721 285 879 215 824 b 454 558 215 597 328 574 b 779 272 606 540 779 496 b 421 -21 779 90 653 -21 "},"Ș":{"ha":847,"x_min":0,"x_max":0,"o":"m 421 -21 b 71 214 236 -21 124 57 b 92 261 61 240 68 253 l 153 282 b 199 260 176 290 188 286 b 421 104 238 156 313 104 b 643 276 567 104 643 160 b 421 435 643 397 539 421 b 81 717 268 453 81 488 b 422 1007 81 890 203 1007 b 757 794 600 1007 694 932 b 740 746 768 769 764 756 l 681 724 b 638 742 657 714 649 717 b 422 879 596 833 529 879 b 215 721 285 879 215 824 b 454 558 215 597 328 574 b 779 272 606 540 779 496 b 421 -21 779 90 653 -21 m 365 -356 b 344 -331 346 -356 342 -350 l 382 -132 b 422 -97 385 -104 394 -97 l 478 -97 b 508 -132 508 -97 517 -110 l 444 -324 b 406 -356 436 -347 428 -356 l 365 -356 "},"ẞ":{"ha":872,"x_min":0,"x_max":0,"o":"m 546 581 b 800 290 704 581 800 490 b 497 -6 800 86 690 -6 b 360 13 456 -6 421 -3 b 324 49 338 13 324 25 l 324 103 b 360 136 324 121 338 136 b 493 118 410 118 456 118 b 667 294 600 118 667 163 b 524 468 667 417 604 468 b 431 464 500 468 465 468 b 394 500 410 464 394 476 l 394 550 b 408 593 394 568 401 581 l 579 863 l 251 863 l 251 36 b 215 0 251 10 238 0 l 154 0 b 117 36 126 0 117 10 l 117 950 b 154 986 117 976 126 986 l 704 986 b 740 950 731 986 740 971 l 740 889 b 722 847 740 872 732 860 l 532 581 l 546 581 "},"T":{"ha":739,"x_min":0,"x_max":0,"o":"m 336 0 b 303 35 313 0 303 7 l 303 861 l 67 861 b 33 899 42 861 33 871 l 33 950 b 67 986 33 976 42 986 l 672 986 b 707 950 699 986 707 976 l 707 899 b 672 861 707 871 699 861 l 436 861 l 436 35 b 403 0 436 7 428 0 l 336 0 "},"Ŧ":{"ha":739,"x_min":0,"x_max":0,"o":"m 336 0 b 303 35 313 0 303 7 l 303 408 l 146 408 b 124 432 129 408 124 413 l 124 481 b 146 504 124 499 131 504 l 303 504 l 303 861 l 67 861 b 33 899 42 861 33 871 l 33 950 b 67 986 33 976 42 986 l 672 986 b 706 950 697 986 706 976 l 706 899 b 672 861 706 871 697 861 l 436 861 l 436 504 l 594 504 b 617 481 611 504 617 499 l 617 432 b 594 408 617 413 611 408 l 436 408 l 436 35 b 403 0 436 7 428 0 l 336 0 "},"Ť":{"ha":739,"x_min":0,"x_max":0,"o":"m 364 1053 b 300 1082 333 1053 326 1054 l 156 1225 b 171 1251 142 1239 143 1251 l 217 1251 b 268 1233 243 1251 251 1251 l 367 1133 l 465 1233 b 518 1251 479 1250 490 1251 l 567 1251 b 583 1225 594 1251 596 1239 l 438 1082 b 376 1053 410 1053 403 1053 l 364 1053 m 336 0 b 303 35 313 0 303 7 l 303 861 l 67 861 b 33 899 42 861 33 871 l 33 950 b 67 986 33 976 42 986 l 672 986 b 707 950 699 986 707 976 l 707 899 b 672 861 707 871 699 861 l 436 861 l 436 35 b 403 0 436 7 428 0 l 336 0 "},"Ţ":{"ha":739,"x_min":0,"x_max":0,"o":"m 336 0 b 303 35 313 0 303 7 l 303 861 l 67 861 b 33 899 42 861 33 871 l 33 950 b 67 986 33 976 42 986 l 672 986 b 707 950 699 986 707 976 l 707 899 b 672 861 707 871 699 861 l 436 861 l 436 35 b 403 0 436 7 428 0 l 336 0 m 289 -351 b 268 -326 269 -351 265 -346 l 306 -128 b 346 -93 308 -100 318 -93 l 401 -93 b 432 -128 432 -93 440 -106 l 368 -319 b 329 -351 360 -343 351 -351 l 289 -351 "},"U":{"ha":924,"x_min":0,"x_max":0,"o":"m 463 -21 b 110 338 229 -21 110 121 l 110 951 b 143 986 110 979 118 986 l 210 986 b 243 951 235 986 243 979 l 243 336 b 463 104 243 193 314 104 b 681 336 611 104 681 193 l 681 951 b 714 986 681 979 689 986 l 781 986 b 814 951 806 986 814 979 l 814 338 b 463 -21 814 121 696 -21 "},"Ú":{"ha":924,"x_min":0,"x_max":0,"o":"m 379 1058 b 336 1061 358 1050 346 1049 l 321 1081 b 324 1117 307 1099 307 1107 l 517 1247 b 578 1246 538 1260 560 1267 l 606 1213 b 601 1175 622 1193 622 1183 l 379 1058 m 463 -21 b 110 338 229 -21 110 121 l 110 951 b 143 986 110 979 118 986 l 210 986 b 243 951 235 986 243 979 l 243 336 b 463 104 243 193 314 104 b 681 336 611 104 681 193 l 681 951 b 714 986 681 979 689 986 l 781 986 b 814 951 806 986 814 979 l 814 338 b 463 -21 814 121 696 -21 "},"Ŭ":{"ha":924,"x_min":0,"x_max":0,"o":"m 461 1057 b 261 1204 361 1057 293 1110 b 275 1235 256 1221 260 1229 l 318 1250 b 351 1239 336 1256 344 1254 b 461 1147 371 1179 406 1147 b 572 1239 518 1147 551 1176 b 600 1251 579 1254 586 1256 l 650 1235 b 664 1204 665 1228 669 1221 b 461 1057 631 1110 564 1057 m 463 -21 b 110 338 229 -21 110 121 l 110 951 b 143 986 110 979 118 986 l 210 986 b 243 951 235 986 243 979 l 243 336 b 463 104 243 193 314 104 b 681 336 611 104 681 193 l 681 951 b 714 986 681 979 689 986 l 781 986 b 814 951 806 986 814 979 l 814 338 b 463 -21 814 121 696 -21 "},"Û":{"ha":924,"x_min":0,"x_max":0,"o":"m 264 1054 b 249 1081 236 1054 235 1067 l 393 1224 b 458 1253 421 1251 426 1253 l 471 1253 b 532 1224 497 1253 504 1253 l 676 1081 b 660 1054 689 1067 689 1054 l 611 1054 b 558 1072 585 1054 574 1056 l 461 1172 l 361 1072 b 310 1054 344 1056 338 1054 l 264 1054 m 463 -21 b 110 338 229 -21 110 121 l 110 951 b 143 986 110 979 118 986 l 210 986 b 243 951 235 986 243 979 l 243 336 b 463 104 243 193 314 104 b 681 336 611 104 681 193 l 681 951 b 714 986 681 979 689 986 l 781 986 b 814 951 806 986 814 979 l 814 338 b 463 -21 814 121 696 -21 "},"Ü":{"ha":924,"x_min":0,"x_max":0,"o":"m 326 1089 b 269 1146 283 1089 269 1103 l 269 1158 b 326 1215 269 1200 283 1215 l 336 1215 b 393 1158 381 1215 393 1200 l 393 1146 b 336 1089 393 1103 381 1089 l 326 1089 m 589 1089 b 531 1146 544 1089 531 1103 l 531 1158 b 589 1215 531 1200 544 1215 l 599 1215 b 656 1158 642 1215 656 1200 l 656 1146 b 599 1089 656 1103 642 1089 l 589 1089 m 463 -21 b 110 338 229 -21 110 121 l 110 951 b 143 986 110 979 118 986 l 210 986 b 243 951 235 986 243 979 l 243 336 b 463 104 243 193 314 104 b 681 336 611 104 681 193 l 681 951 b 714 986 681 979 689 986 l 781 986 b 814 951 806 986 814 979 l 814 338 b 463 -21 814 121 696 -21 "},"Ù":{"ha":924,"x_min":0,"x_max":0,"o":"m 326 1174 b 322 1213 306 1183 306 1193 l 350 1246 b 411 1247 368 1267 389 1260 l 604 1117 b 607 1079 621 1107 621 1097 l 592 1060 b 549 1058 582 1047 569 1050 m 463 -21 b 110 338 229 -21 110 121 l 110 951 b 143 986 110 979 118 986 l 210 986 b 243 951 235 986 243 979 l 243 336 b 463 104 243 193 314 104 b 681 336 611 104 681 193 l 681 951 b 714 986 681 979 689 986 l 781 986 b 814 951 806 986 814 979 l 814 338 b 463 -21 814 121 696 -21 "},"Ű":{"ha":924,"x_min":0,"x_max":0,"o":"m 283 1064 b 274 1097 261 1071 263 1082 l 376 1238 b 432 1260 390 1258 407 1268 l 469 1247 b 481 1210 493 1239 497 1225 l 343 1072 b 303 1058 326 1057 318 1053 m 501 1061 b 490 1094 479 1067 479 1079 l 603 1236 b 658 1258 618 1257 633 1267 l 699 1246 b 710 1208 722 1238 726 1224 l 560 1068 b 521 1054 543 1054 535 1049 m 463 -21 b 110 338 229 -21 110 121 l 110 951 b 143 986 110 979 118 986 l 210 986 b 243 951 235 986 243 979 l 243 336 b 463 104 243 193 314 104 b 681 336 611 104 681 193 l 681 951 b 714 986 681 979 689 986 l 781 986 b 814 951 806 986 814 979 l 814 338 b 463 -21 814 121 696 -21 "},"Ū":{"ha":924,"x_min":0,"x_max":0,"o":"m 304 1103 b 274 1135 281 1103 274 1110 l 274 1163 b 304 1193 274 1186 282 1193 l 619 1193 b 650 1163 643 1193 650 1186 l 650 1135 b 619 1103 650 1110 643 1103 l 304 1103 m 463 -21 b 110 338 229 -21 110 121 l 110 951 b 143 986 110 979 118 986 l 210 986 b 243 951 235 986 243 979 l 243 336 b 463 104 243 193 314 104 b 681 336 611 104 681 193 l 681 951 b 714 986 681 979 689 986 l 781 986 b 814 951 806 986 814 979 l 814 338 b 463 -21 814 121 696 -21 "},"Ų":{"ha":924,"x_min":0,"x_max":0,"o":"m 568 -342 b 457 -265 515 -342 469 -322 b 568 -4 440 -194 485 -100 b 463 -21 538 -15 503 -21 b 110 338 229 -21 110 121 l 110 951 b 143 986 110 979 118 986 l 210 986 b 243 951 235 986 243 979 l 243 336 b 463 104 243 193 314 104 b 681 336 611 104 681 193 l 681 951 b 714 986 681 979 689 986 l 781 986 b 814 951 806 986 814 979 l 814 338 b 704 56 814 217 776 118 b 563 -217 593 -62 549 -172 b 606 -250 571 -239 586 -250 b 661 -226 622 -250 646 -242 b 682 -232 669 -221 678 -222 l 697 -268 b 694 -293 701 -279 701 -286 b 568 -342 661 -325 613 -342 "},"Ů":{"ha":924,"x_min":0,"x_max":0,"o":"m 463 1043 b 322 1183 381 1043 322 1101 b 463 1324 322 1267 381 1324 b 600 1183 544 1324 600 1267 b 463 1043 600 1101 544 1043 m 463 1106 b 536 1183 507 1106 536 1138 b 463 1261 536 1229 507 1261 b 385 1183 417 1261 385 1229 b 463 1106 385 1138 417 1106 m 463 -21 b 110 338 229 -21 110 121 l 110 951 b 143 986 110 979 118 986 l 210 986 b 243 951 235 986 243 979 l 243 336 b 463 104 243 193 314 104 b 681 336 611 104 681 193 l 681 951 b 714 986 681 979 689 986 l 781 986 b 814 951 806 986 814 979 l 814 338 b 463 -21 814 121 696 -21 "},"Ũ":{"ha":924,"x_min":0,"x_max":0,"o":"m 276 1068 b 254 1089 261 1068 254 1074 b 363 1235 254 1192 294 1235 b 542 1147 454 1235 481 1147 b 583 1214 568 1147 583 1171 b 603 1235 583 1228 588 1235 l 638 1235 b 658 1214 654 1235 658 1228 b 550 1068 658 1111 624 1068 b 374 1154 464 1068 436 1154 b 332 1089 347 1154 332 1132 b 311 1068 332 1074 326 1068 l 276 1068 m 463 -21 b 110 338 229 -21 110 121 l 110 951 b 143 986 110 979 118 986 l 210 986 b 243 951 235 986 243 979 l 243 336 b 463 104 243 193 314 104 b 681 336 611 104 681 193 l 681 951 b 714 986 681 979 689 986 l 781 986 b 814 951 806 986 814 979 l 814 338 b 463 -21 814 121 696 -21 "},"V":{"ha":847,"x_min":0,"x_max":0,"o":"m 388 0 b 346 29 364 0 353 6 l 32 950 b 54 986 24 974 31 986 l 124 986 b 174 954 158 986 167 979 l 392 286 b 424 158 406 244 417 192 l 429 158 b 460 285 436 192 447 243 l 674 954 b 729 986 681 979 688 986 l 796 986 b 817 950 821 986 825 974 l 504 31 b 461 0 496 6 485 0 l 388 0 "},"W":{"ha":1222,"x_min":0,"x_max":0,"o":"m 318 0 b 274 29 293 0 279 4 l 46 950 b 71 986 39 975 44 986 l 147 986 b 189 954 176 986 185 981 l 328 351 b 350 185 338 306 344 243 l 357 185 b 388 351 363 249 375 301 l 542 943 b 588 975 547 969 561 975 l 643 975 b 690 943 669 975 683 969 l 839 350 b 868 185 851 297 860 239 l 875 185 b 899 349 881 239 889 300 l 1038 954 b 1081 986 1043 981 1051 986 l 1150 986 b 1176 950 1175 986 1182 975 l 949 31 b 906 0 943 4 929 0 l 835 0 b 792 29 811 0 797 6 l 639 647 b 614 793 628 690 619 744 l 607 793 b 582 649 603 744 593 693 l 428 31 b 383 0 422 4 408 0 l 318 0 "},"Ẃ":{"ha":1222,"x_min":0,"x_max":0,"o":"m 532 1058 b 489 1061 511 1050 499 1049 l 474 1081 b 476 1117 460 1099 460 1107 l 669 1247 b 731 1246 690 1260 713 1267 l 758 1213 b 754 1175 775 1193 775 1183 l 532 1058 m 318 0 b 274 29 293 0 279 4 l 46 950 b 71 986 39 975 44 986 l 147 986 b 189 954 176 986 185 981 l 328 351 b 350 185 338 306 344 243 l 357 185 b 388 351 363 249 375 301 l 542 943 b 588 975 547 969 561 975 l 643 975 b 690 943 669 975 683 969 l 839 350 b 868 185 851 297 860 239 l 875 185 b 899 349 881 239 889 300 l 1038 954 b 1081 986 1043 981 1051 986 l 1150 986 b 1176 950 1175 986 1182 975 l 949 31 b 906 0 943 4 929 0 l 835 0 b 792 29 811 0 797 6 l 639 647 b 614 793 628 690 619 744 l 607 793 b 582 649 603 744 593 693 l 428 31 b 383 0 422 4 408 0 l 318 0 "},"Ŵ":{"ha":1222,"x_min":0,"x_max":0,"o":"m 418 1054 b 403 1081 390 1054 389 1067 l 547 1224 b 613 1253 575 1251 581 1253 l 625 1253 b 686 1224 651 1253 658 1253 l 831 1081 b 814 1054 843 1067 843 1054 l 765 1054 b 713 1072 739 1054 728 1056 l 615 1172 l 515 1072 b 464 1054 499 1056 492 1054 l 418 1054 m 318 0 b 274 29 293 0 279 4 l 46 950 b 71 986 39 975 44 986 l 147 986 b 189 954 176 986 185 981 l 328 351 b 350 185 338 306 344 243 l 357 185 b 388 351 363 249 375 301 l 542 943 b 588 975 547 969 561 975 l 643 975 b 690 943 669 975 683 969 l 839 350 b 868 185 851 297 860 239 l 875 185 b 899 349 881 239 889 300 l 1038 954 b 1081 986 1043 981 1051 986 l 1150 986 b 1176 950 1175 986 1182 975 l 949 31 b 906 0 943 4 929 0 l 835 0 b 792 29 811 0 797 6 l 639 647 b 614 793 628 690 619 744 l 607 793 b 582 649 603 744 593 693 l 428 31 b 383 0 422 4 408 0 l 318 0 "},"Ẅ":{"ha":1222,"x_min":0,"x_max":0,"o":"m 479 1089 b 422 1146 436 1089 422 1103 l 422 1158 b 479 1215 422 1200 436 1215 l 489 1215 b 546 1158 533 1215 546 1200 l 546 1146 b 489 1089 546 1103 533 1089 l 479 1089 m 742 1089 b 683 1146 697 1089 683 1103 l 683 1158 b 742 1215 683 1200 697 1215 l 751 1215 b 808 1158 794 1215 808 1200 l 808 1146 b 751 1089 808 1103 794 1089 l 742 1089 m 318 0 b 274 29 293 0 279 4 l 46 950 b 71 986 39 975 44 986 l 147 986 b 189 954 176 986 185 981 l 328 351 b 350 185 338 306 344 243 l 357 185 b 388 351 363 249 375 301 l 542 943 b 588 975 547 969 561 975 l 643 975 b 690 943 669 975 683 969 l 839 350 b 868 185 851 297 860 239 l 875 185 b 899 349 881 239 889 300 l 1038 954 b 1081 986 1043 981 1051 986 l 1150 986 b 1176 950 1175 986 1182 975 l 949 31 b 906 0 943 4 929 0 l 835 0 b 792 29 811 0 797 6 l 639 647 b 614 793 628 690 619 744 l 607 793 b 582 649 603 744 593 693 l 428 31 b 383 0 422 4 408 0 l 318 0 "},"Ẁ":{"ha":1222,"x_min":0,"x_max":0,"o":"m 479 1174 b 475 1213 458 1183 458 1193 l 503 1246 b 564 1247 521 1267 542 1260 l 757 1117 b 760 1079 774 1107 774 1097 l 744 1060 b 701 1058 735 1047 722 1050 m 318 0 b 274 29 293 0 279 4 l 46 950 b 71 986 39 975 44 986 l 147 986 b 189 954 176 986 185 981 l 328 351 b 350 185 338 306 344 243 l 357 185 b 388 351 363 249 375 301 l 542 943 b 588 975 547 969 561 975 l 643 975 b 690 943 669 975 683 969 l 839 350 b 868 185 851 297 860 239 l 875 185 b 899 349 881 239 889 300 l 1038 954 b 1081 986 1043 981 1051 986 l 1150 986 b 1176 950 1175 986 1182 975 l 949 31 b 906 0 943 4 929 0 l 835 0 b 792 29 811 0 797 6 l 639 647 b 614 793 628 690 619 744 l 607 793 b 582 649 603 744 593 693 l 428 31 b 383 0 422 4 408 0 l 318 0 "},"X":{"ha":840,"x_min":0,"x_max":0,"o":"m 57 0 b 40 38 31 0 26 17 l 332 504 l 49 951 b 67 986 39 969 43 986 l 140 986 b 206 956 181 986 190 985 l 419 608 l 635 956 b 693 986 649 983 656 986 l 774 986 b 792 951 797 986 801 969 l 504 506 l 801 38 b 785 0 814 18 811 0 l 704 0 b 646 32 665 0 661 3 l 417 403 l 196 32 b 140 0 181 3 172 0 l 57 0 "},"Y":{"ha":856,"x_min":0,"x_max":0,"o":"m 393 0 b 360 36 368 0 360 10 l 360 397 l 36 950 b 53 986 25 969 29 986 l 129 986 b 189 954 169 986 175 981 l 428 524 l 669 954 b 729 986 683 981 689 986 l 801 986 b 819 950 826 986 831 969 l 493 394 l 493 36 b 458 0 493 10 483 0 l 393 0 "},"Ý":{"ha":856,"x_min":0,"x_max":0,"o":"m 346 1058 b 303 1061 325 1050 313 1049 l 288 1081 b 290 1117 274 1099 274 1107 l 483 1247 b 544 1246 504 1260 526 1267 l 572 1213 b 568 1175 589 1193 589 1183 l 346 1058 m 393 0 b 360 36 368 0 360 10 l 360 397 l 36 950 b 53 986 25 969 29 986 l 129 986 b 189 954 169 986 175 981 l 428 524 l 669 954 b 729 986 683 981 689 986 l 801 986 b 819 950 826 986 831 969 l 493 394 l 493 36 b 458 0 493 10 483 0 l 393 0 "},"Ŷ":{"ha":856,"x_min":0,"x_max":0,"o":"m 232 1054 b 217 1081 204 1054 203 1067 l 361 1224 b 426 1253 389 1251 394 1253 l 439 1253 b 500 1224 465 1253 472 1253 l 644 1081 b 628 1054 657 1067 657 1054 l 579 1054 b 526 1072 553 1054 542 1056 l 429 1172 l 329 1072 b 278 1054 313 1056 306 1054 l 232 1054 m 393 0 b 360 36 368 0 360 10 l 360 397 l 36 950 b 53 986 25 969 29 986 l 129 986 b 189 954 169 986 175 981 l 428 524 l 669 954 b 729 986 683 981 689 986 l 801 986 b 819 950 826 986 831 969 l 493 394 l 493 36 b 458 0 493 10 483 0 l 393 0 "},"Ÿ":{"ha":856,"x_min":0,"x_max":0,"o":"m 294 1089 b 238 1146 251 1089 238 1103 l 238 1158 b 294 1215 238 1200 251 1215 l 304 1215 b 361 1158 349 1215 361 1200 l 361 1146 b 304 1089 361 1103 349 1089 l 294 1089 m 557 1089 b 499 1146 513 1089 499 1103 l 499 1158 b 557 1215 499 1200 513 1215 l 567 1215 b 624 1158 610 1215 624 1200 l 624 1146 b 567 1089 624 1103 610 1089 l 557 1089 m 393 0 b 360 36 368 0 360 10 l 360 397 l 36 950 b 53 986 25 969 29 986 l 129 986 b 189 954 169 986 175 981 l 428 524 l 669 954 b 729 986 683 981 689 986 l 801 986 b 819 950 826 986 831 969 l 493 394 l 493 36 b 458 0 493 10 483 0 l 393 0 "},"Ỳ":{"ha":856,"x_min":0,"x_max":0,"o":"m 293 1174 b 289 1213 272 1183 272 1193 l 317 1246 b 378 1247 335 1267 356 1260 l 571 1117 b 574 1079 588 1107 588 1097 l 558 1060 b 515 1058 549 1047 536 1050 m 393 0 b 360 36 368 0 360 10 l 360 397 l 36 950 b 53 986 25 969 29 986 l 129 986 b 189 954 169 986 175 981 l 428 524 l 669 954 b 729 986 683 981 689 986 l 801 986 b 819 950 826 986 831 969 l 493 394 l 493 36 b 458 0 493 10 483 0 l 393 0 "},"Z":{"ha":774,"x_min":0,"x_max":0,"o":"m 94 0 b 61 36 69 0 61 10 l 61 88 b 72 128 61 103 64 115 l 547 863 l 100 863 b 67 899 75 863 67 872 l 67 950 b 100 986 67 976 75 986 l 671 986 b 704 950 696 986 704 976 l 704 899 b 693 860 704 882 701 872 l 219 125 l 681 125 b 715 89 707 125 715 115 l 715 36 b 681 0 715 10 707 0 l 94 0 "},"Ź":{"ha":774,"x_min":0,"x_max":0,"o":"m 310 1058 b 267 1061 289 1050 276 1049 l 251 1081 b 254 1117 238 1099 238 1107 l 447 1247 b 508 1246 468 1260 490 1267 l 536 1213 b 532 1175 553 1193 553 1183 l 310 1058 m 94 0 b 61 36 69 0 61 10 l 61 88 b 72 128 61 103 64 115 l 547 863 l 100 863 b 67 899 75 863 67 872 l 67 950 b 100 986 67 976 75 986 l 671 986 b 704 950 696 986 704 976 l 704 899 b 693 860 704 882 701 872 l 219 125 l 681 125 b 715 89 707 125 715 115 l 715 36 b 681 0 715 10 707 0 l 94 0 "},"Ž":{"ha":774,"x_min":0,"x_max":0,"o":"m 386 1053 b 322 1082 356 1053 349 1054 l 178 1225 b 193 1251 164 1239 165 1251 l 239 1251 b 290 1233 265 1251 274 1251 l 389 1133 l 488 1233 b 540 1251 501 1250 513 1251 l 589 1251 b 606 1225 617 1251 618 1239 l 460 1082 b 399 1053 432 1053 425 1053 l 386 1053 m 94 0 b 61 36 69 0 61 10 l 61 88 b 72 128 61 103 64 115 l 547 863 l 100 863 b 67 899 75 863 67 872 l 67 950 b 100 986 67 976 75 986 l 671 986 b 704 950 696 986 704 976 l 704 899 b 693 860 704 882 701 872 l 219 125 l 681 125 b 715 89 707 125 715 115 l 715 36 b 681 0 715 10 707 0 l 94 0 "},"Ż":{"ha":774,"x_min":0,"x_max":0,"o":"m 389 1085 b 329 1144 343 1085 329 1099 l 329 1154 b 389 1213 329 1200 343 1213 l 396 1213 b 456 1154 442 1213 456 1200 l 456 1144 b 396 1085 456 1099 442 1085 l 389 1085 m 94 0 b 61 36 69 0 61 10 l 61 88 b 72 128 61 103 64 115 l 547 863 l 100 863 b 67 899 75 863 67 872 l 67 950 b 100 986 67 976 75 986 l 671 986 b 704 950 696 986 704 976 l 704 899 b 693 860 704 882 701 872 l 219 125 l 681 125 b 715 89 707 125 715 115 l 715 36 b 681 0 715 10 707 0 l 94 0 "},"a":{"ha":689,"x_min":0,"x_max":0,"o":"m 339 -21 b 63 200 144 -21 63 49 b 342 417 63 351 146 417 b 478 407 396 417 458 408 l 478 474 b 339 628 478 586 438 628 b 189 540 264 628 217 596 b 146 525 178 519 167 515 l 107 543 b 90 590 85 553 78 565 b 339 738 133 681 211 738 b 600 469 532 738 600 639 l 600 94 b 556 15 600 46 590 32 b 339 -21 510 -7 436 -21 m 331 82 b 460 100 388 82 432 89 b 478 131 475 106 478 111 l 478 308 b 335 318 453 311 389 318 b 186 200 232 318 186 281 b 331 82 186 119 231 82 "},"á":{"ha":689,"x_min":0,"x_max":0,"o":"m 254 832 b 211 833 233 824 221 821 l 196 853 b 199 890 182 871 182 881 l 392 1021 b 453 1018 414 1033 435 1040 l 481 986 b 476 947 497 967 497 957 l 254 832 m 339 -21 b 63 200 144 -21 63 49 b 342 417 63 351 146 417 b 478 407 396 417 458 408 l 478 474 b 339 628 478 586 438 628 b 189 540 264 628 217 596 b 146 525 178 519 167 515 l 107 543 b 90 590 85 553 78 565 b 339 738 133 681 211 738 b 600 469 532 738 600 639 l 600 94 b 556 15 600 46 590 32 b 339 -21 510 -7 436 -21 m 331 82 b 460 100 388 82 432 89 b 478 131 475 106 478 111 l 478 308 b 335 318 453 311 389 318 b 186 200 232 318 186 281 b 331 82 186 119 231 82 "},"ă":{"ha":689,"x_min":0,"x_max":0,"o":"m 339 826 b 138 974 238 826 167 878 b 153 1006 132 992 136 999 l 194 1021 b 228 1008 213 1026 222 1024 b 339 917 246 947 282 917 b 450 1008 394 917 432 947 b 478 1022 456 1024 463 1026 l 526 1006 b 542 974 543 997 547 992 b 339 826 511 878 440 826 m 339 -21 b 63 200 144 -21 63 49 b 342 417 63 351 146 417 b 478 407 396 417 458 408 l 478 474 b 339 628 478 586 438 628 b 189 540 264 628 217 596 b 146 525 178 519 167 515 l 107 543 b 90 590 85 553 78 565 b 339 738 133 681 211 738 b 600 469 532 738 600 639 l 600 94 b 556 15 600 46 590 32 b 339 -21 510 -7 436 -21 m 331 82 b 460 100 388 82 432 89 b 478 131 475 106 478 111 l 478 308 b 335 318 453 311 389 318 b 186 200 232 318 186 281 b 331 82 186 119 231 82 "},"â":{"ha":689,"x_min":0,"x_max":0,"o":"m 140 824 b 125 850 113 824 111 836 l 271 993 b 335 1022 297 1021 303 1022 l 347 1022 b 408 993 374 1022 381 1022 l 553 850 b 536 824 565 836 565 824 l 488 824 b 435 842 461 824 450 825 l 339 942 l 238 842 b 186 824 221 825 214 824 l 140 824 m 339 -21 b 63 200 144 -21 63 49 b 342 417 63 351 146 417 b 478 407 396 417 458 408 l 478 474 b 339 628 478 586 438 628 b 189 540 264 628 217 596 b 146 525 178 519 167 515 l 107 543 b 90 590 85 553 78 565 b 339 738 133 681 211 738 b 600 469 532 738 600 639 l 600 94 b 556 15 600 46 590 32 b 339 -21 510 -7 436 -21 m 331 82 b 460 100 388 82 432 89 b 478 131 475 106 478 111 l 478 308 b 335 318 453 311 389 318 b 186 200 232 318 186 281 b 331 82 186 119 231 82 "},"ä":{"ha":689,"x_min":0,"x_max":0,"o":"m 201 856 b 142 915 157 856 142 869 l 142 925 b 201 985 142 969 156 985 l 210 985 b 269 925 254 985 269 969 l 269 915 b 210 856 269 871 254 856 l 201 856 m 461 856 b 401 915 417 856 401 869 l 401 925 b 461 985 401 969 417 985 l 469 985 b 529 925 515 985 529 969 l 529 915 b 469 856 529 871 515 856 l 461 856 m 339 -21 b 63 200 144 -21 63 49 b 342 417 63 351 146 417 b 478 407 396 417 458 408 l 478 474 b 339 628 478 586 438 628 b 189 540 264 628 217 596 b 146 525 178 519 167 515 l 107 543 b 90 590 85 553 78 565 b 339 738 133 681 211 738 b 600 469 532 738 600 639 l 600 94 b 556 15 600 46 590 32 b 339 -21 510 -7 436 -21 m 331 82 b 460 100 388 82 432 89 b 478 131 475 106 478 111 l 478 308 b 335 318 453 311 389 318 b 186 200 232 318 186 281 b 331 82 186 119 231 82 "},"à":{"ha":689,"x_min":0,"x_max":0,"o":"m 201 947 b 197 985 181 956 182 965 l 225 1018 b 286 1019 243 1039 264 1032 l 479 889 b 482 853 496 879 496 871 l 467 833 b 424 831 457 821 444 822 m 339 -21 b 63 200 144 -21 63 49 b 342 417 63 351 146 417 b 478 407 396 417 458 408 l 478 474 b 339 628 478 586 438 628 b 189 540 264 628 217 596 b 146 525 178 519 167 515 l 107 543 b 90 590 85 553 78 565 b 339 738 133 681 211 738 b 600 469 532 738 600 639 l 600 94 b 556 15 600 46 590 32 b 339 -21 510 -7 436 -21 m 331 82 b 460 100 388 82 432 89 b 478 131 475 106 478 111 l 478 308 b 335 318 453 311 389 318 b 186 200 232 318 186 281 b 331 82 186 119 231 82 "},"ā":{"ha":689,"x_min":0,"x_max":0,"o":"m 181 872 b 150 904 157 872 150 879 l 150 932 b 181 963 150 956 158 963 l 496 963 b 526 932 519 963 526 956 l 526 904 b 496 872 526 879 519 872 l 181 872 m 339 -21 b 63 200 144 -21 63 49 b 342 417 63 351 146 417 b 478 407 396 417 458 408 l 478 474 b 339 628 478 586 438 628 b 189 540 264 628 217 596 b 146 525 178 519 167 515 l 107 543 b 90 590 85 553 78 565 b 339 738 133 681 211 738 b 600 469 532 738 600 639 l 600 94 b 556 15 600 46 590 32 b 339 -21 510 -7 436 -21 m 331 82 b 460 100 388 82 432 89 b 478 131 475 106 478 111 l 478 308 b 335 318 453 311 389 318 b 186 200 232 318 186 281 b 331 82 186 119 231 82 "},"ą":{"ha":689,"x_min":0,"x_max":0,"o":"m 485 -342 b 374 -265 432 -342 386 -324 b 479 -4 356 -196 400 -100 b 339 -21 440 -14 396 -21 b 63 200 144 -21 63 46 b 343 417 63 351 147 417 b 478 407 397 417 458 408 l 478 474 b 339 628 478 586 438 628 b 189 540 264 628 217 596 b 146 525 178 519 169 514 l 107 543 b 90 590 85 553 78 565 b 339 738 133 681 211 738 b 600 469 532 738 600 639 l 600 94 b 585 35 600 64 594 49 b 479 -217 508 -72 465 -171 b 522 -250 486 -239 503 -250 b 571 -226 539 -250 556 -242 b 592 -232 579 -221 588 -222 l 607 -268 b 606 -293 611 -279 611 -286 b 485 -342 572 -325 529 -342 m 331 82 b 460 100 388 82 432 89 b 478 131 475 106 478 111 l 478 308 b 335 318 457 311 389 318 b 186 200 224 318 186 276 b 331 82 186 125 222 82 "},"å":{"ha":689,"x_min":0,"x_max":0,"o":"m 340 789 b 199 928 257 789 199 846 b 340 1069 199 1011 257 1069 b 476 928 421 1069 476 1011 b 340 789 476 846 421 789 m 340 850 b 414 928 383 850 414 882 b 340 1006 414 975 383 1006 b 263 928 293 1006 263 975 b 340 850 263 882 293 850 m 339 -21 b 63 200 144 -21 63 49 b 342 417 63 351 146 417 b 478 407 396 417 458 408 l 478 474 b 339 628 478 586 438 628 b 189 540 264 628 217 596 b 146 525 178 519 167 515 l 107 543 b 90 590 85 553 78 565 b 339 738 133 681 211 738 b 600 469 532 738 600 639 l 600 94 b 556 15 600 46 590 32 b 339 -21 510 -7 436 -21 m 331 82 b 460 100 388 82 432 89 b 478 131 475 106 478 111 l 478 308 b 335 318 453 311 389 318 b 186 200 232 318 186 281 b 331 82 186 119 231 82 "},"ǻ":{"ha":689,"x_min":0,"x_max":0,"o":"m 236 1085 b 194 1090 215 1078 203 1078 l 182 1111 b 189 1147 169 1131 171 1140 l 394 1253 b 453 1244 417 1263 439 1267 l 476 1208 b 467 1171 490 1188 489 1178 l 236 1085 m 340 789 b 199 928 257 789 199 846 b 340 1069 199 1011 257 1069 b 476 928 421 1069 476 1011 b 340 789 476 846 421 789 m 340 850 b 414 928 383 850 414 882 b 340 1006 414 975 383 1006 b 263 928 293 1006 263 975 b 340 850 263 882 293 850 m 339 -21 b 63 200 144 -21 63 49 b 342 417 63 351 146 417 b 478 407 396 417 458 408 l 478 474 b 339 628 478 586 438 628 b 189 540 264 628 217 596 b 146 525 178 519 167 515 l 107 543 b 90 590 85 553 78 565 b 339 738 133 681 211 738 b 600 469 532 738 600 639 l 600 94 b 556 15 600 46 590 32 b 339 -21 510 -7 436 -21 m 331 82 b 460 100 388 82 432 89 b 478 131 475 106 478 111 l 478 308 b 335 318 453 311 389 318 b 186 200 232 318 186 281 b 331 82 186 119 231 82 "},"ã":{"ha":689,"x_min":0,"x_max":0,"o":"m 153 840 b 132 861 138 840 132 847 b 239 1007 132 965 171 1007 b 418 921 332 1007 357 921 b 460 986 446 921 460 944 b 479 1007 460 1001 464 1007 l 515 1007 b 536 986 531 1007 536 1001 b 426 840 536 885 501 840 b 250 928 340 840 313 928 b 208 861 224 928 208 904 b 189 840 208 847 203 840 l 153 840 m 339 -21 b 63 200 144 -21 63 49 b 342 417 63 351 146 417 b 478 407 396 417 458 408 l 478 474 b 339 628 478 586 438 628 b 189 540 264 628 217 596 b 146 525 178 519 167 515 l 107 543 b 90 590 85 553 78 565 b 339 738 133 681 211 738 b 600 469 532 738 600 639 l 600 94 b 556 15 600 46 590 32 b 339 -21 510 -7 436 -21 m 331 82 b 460 100 388 82 432 89 b 478 131 475 106 478 111 l 478 308 b 335 318 453 311 389 318 b 186 200 232 318 186 281 b 331 82 186 119 231 82 "},"æ":{"ha":1046,"x_min":0,"x_max":0,"o":"m 329 -21 b 63 197 139 -21 63 42 b 335 417 63 354 140 417 b 456 407 383 417 433 410 l 456 475 b 329 626 456 563 435 626 b 182 546 263 626 213 601 b 140 529 169 524 164 519 l 103 544 b 86 592 81 554 72 567 b 332 738 131 683 207 738 b 519 631 435 738 488 694 b 715 738 558 701 624 738 b 979 451 910 738 979 615 l 979 369 b 929 321 979 340 967 321 l 571 321 l 571 253 b 714 86 571 147 614 86 b 867 181 796 86 835 122 b 915 193 881 203 890 207 l 949 175 b 961 124 971 161 975 147 b 713 -21 915 39 854 -21 b 543 50 632 -21 575 6 b 329 -21 503 14 446 -21 m 861 417 l 861 461 b 715 632 861 569 819 632 b 571 461 613 632 571 569 l 571 417 m 322 82 b 461 139 417 82 449 124 b 456 219 457 164 456 190 l 456 306 b 325 315 431 308 372 315 b 183 199 215 315 183 275 b 322 82 183 121 213 82 "},"ǽ":{"ha":1046,"x_min":0,"x_max":0,"o":"m 438 832 b 394 833 417 824 404 821 l 379 853 b 382 890 365 871 365 881 l 575 1021 b 636 1018 597 1033 618 1040 l 664 986 b 660 947 681 967 681 957 l 438 832 m 329 -21 b 63 197 139 -21 63 42 b 335 417 63 354 140 417 b 456 407 383 417 433 410 l 456 475 b 329 626 456 563 435 626 b 182 546 263 626 213 601 b 140 529 169 524 164 519 l 103 544 b 86 592 81 554 72 567 b 332 738 131 683 207 738 b 519 631 435 738 488 694 b 715 738 558 701 624 738 b 979 451 910 738 979 615 l 979 369 b 929 321 979 340 967 321 l 571 321 l 571 253 b 714 86 571 147 614 86 b 867 181 796 86 835 122 b 915 193 881 203 890 207 l 949 175 b 961 124 971 161 975 147 b 713 -21 915 39 854 -21 b 543 50 632 -21 575 6 b 329 -21 503 14 446 -21 m 861 417 l 861 461 b 715 632 861 569 819 632 b 571 461 613 632 571 569 l 571 417 m 322 82 b 461 139 417 82 449 124 b 456 219 457 164 456 190 l 456 306 b 325 315 431 308 372 315 b 183 199 215 315 183 275 b 322 82 183 121 213 82 "},"b":{"ha":728,"x_min":0,"x_max":0,"o":"m 365 -21 b 146 22 268 -21 190 1 b 99 99 106 43 99 54 l 99 994 b 129 1028 99 1019 106 1028 l 192 1028 b 222 994 215 1028 222 1019 l 222 703 b 383 738 253 715 314 738 b 649 463 563 738 649 639 l 649 268 b 365 -21 649 82 558 -21 m 361 93 b 525 272 476 93 525 151 l 525 458 b 368 624 525 567 474 624 b 222 589 304 624 246 601 l 222 142 b 239 115 222 128 224 122 b 361 93 267 103 314 93 "},"c":{"ha":690,"x_min":0,"x_max":0,"o":"m 353 -21 b 78 254 167 -21 78 82 l 78 463 b 361 738 78 633 169 738 b 625 551 513 738 593 661 b 604 506 633 525 628 513 l 558 489 b 514 513 533 481 522 488 b 357 628 492 590 447 628 b 201 464 251 628 201 567 l 201 254 b 356 89 201 150 253 89 b 511 208 443 89 486 131 b 554 231 521 233 531 239 l 608 215 b 628 168 631 208 638 194 b 353 -21 585 46 504 -21 "},"ć":{"ha":690,"x_min":0,"x_max":0,"o":"m 275 832 b 232 833 254 824 242 821 l 217 853 b 219 890 203 871 203 881 l 413 1021 b 474 1018 435 1033 456 1040 l 501 986 b 497 947 518 967 518 957 l 275 832 m 353 -21 b 78 254 167 -21 78 82 l 78 463 b 361 738 78 633 169 738 b 625 551 513 738 593 661 b 604 506 633 525 628 513 l 558 489 b 514 513 533 481 522 488 b 357 628 492 590 447 628 b 201 464 251 628 201 567 l 201 254 b 356 89 201 150 253 89 b 511 208 443 89 486 131 b 554 231 521 233 531 239 l 608 215 b 628 168 631 208 638 194 b 353 -21 585 46 504 -21 "},"č":{"ha":690,"x_min":0,"x_max":0,"o":"m 353 822 b 289 851 322 822 315 824 l 144 994 b 160 1021 131 1008 132 1021 l 206 1021 b 257 1003 232 1021 240 1021 l 356 903 l 454 1003 b 507 1021 469 1019 481 1021 l 556 1021 b 572 994 585 1021 585 1008 l 426 851 b 365 822 399 822 392 822 l 353 822 m 353 -21 b 78 254 167 -21 78 82 l 78 463 b 361 738 78 633 169 738 b 625 551 513 738 593 661 b 604 506 633 525 628 513 l 558 489 b 514 513 533 481 522 488 b 357 628 492 590 447 628 b 201 464 251 628 201 567 l 201 254 b 356 89 201 150 253 89 b 511 208 443 89 486 131 b 554 231 521 233 531 239 l 608 215 b 628 168 631 208 638 194 b 353 -21 585 46 504 -21 "},"ç":{"ha":690,"x_min":0,"x_max":0,"o":"m 339 -340 b 242 -317 310 -340 265 -331 b 222 -285 226 -310 222 -303 l 222 -251 b 239 -239 222 -240 226 -232 b 322 -267 261 -253 281 -267 b 411 -203 383 -267 411 -244 b 338 -153 411 -169 390 -153 b 299 -157 322 -153 311 -154 b 281 -129 279 -158 274 -149 l 322 -19 b 78 254 157 -8 78 92 l 78 463 b 361 738 78 633 169 738 b 625 551 513 738 593 661 b 604 506 633 525 628 513 l 558 489 b 514 513 533 481 522 488 b 357 628 492 590 447 628 b 201 464 251 628 201 567 l 201 254 b 356 89 201 150 253 89 b 511 208 443 89 486 131 b 554 231 521 233 531 239 l 608 215 b 628 168 631 208 638 194 b 397 -17 589 57 522 -6 l 374 -93 b 394 -90 379 -92 386 -90 b 510 -210 472 -90 515 -140 b 339 -340 503 -308 424 -340 "},"ĉ":{"ha":690,"x_min":0,"x_max":0,"o":"m 163 824 b 147 850 135 824 133 836 l 293 993 b 357 1022 319 1021 325 1022 l 369 1022 b 431 993 396 1022 403 1022 l 575 850 b 558 824 588 836 588 824 l 510 824 b 457 842 483 824 472 825 l 361 942 l 260 842 b 208 824 243 825 236 824 l 163 824 m 353 -21 b 78 254 167 -21 78 82 l 78 463 b 361 738 78 633 169 738 b 625 551 513 738 593 661 b 604 506 633 525 628 513 l 558 489 b 514 513 533 481 522 488 b 357 628 492 590 447 628 b 201 464 251 628 201 567 l 201 254 b 356 89 201 150 253 89 b 511 208 443 89 486 131 b 554 231 521 233 531 239 l 608 215 b 628 168 631 208 638 194 b 353 -21 585 46 504 -21 "},"ċ":{"ha":690,"x_min":0,"x_max":0,"o":"m 338 854 b 288 914 299 854 288 865 l 288 931 b 338 992 288 976 300 992 l 381 992 b 431 931 419 992 431 976 l 431 914 b 381 854 431 867 419 854 l 338 854 m 353 -21 b 78 254 167 -21 78 82 l 78 463 b 361 738 78 633 169 738 b 625 551 513 738 593 661 b 604 506 633 525 628 513 l 558 489 b 514 513 533 481 522 488 b 357 628 492 590 447 628 b 201 464 251 628 201 567 l 201 254 b 356 89 201 150 253 89 b 511 208 443 89 486 131 b 554 231 521 233 531 239 l 608 215 b 628 168 631 208 638 194 b 353 -21 585 46 504 -21 "},"d":{"ha":728,"x_min":0,"x_max":0,"o":"m 363 -21 b 79 268 169 -21 79 82 l 79 463 b 343 738 79 639 164 738 b 506 703 414 738 475 715 l 506 994 b 535 1028 506 1019 513 1028 l 599 1028 b 629 994 621 1028 629 1019 l 629 99 b 581 22 629 54 621 43 b 363 -21 536 1 458 -21 m 367 93 b 489 115 413 93 461 103 b 506 142 503 122 506 128 l 506 589 b 358 624 481 601 424 624 b 203 458 253 624 203 567 l 203 272 b 367 93 201 151 251 93 "},"ð":{"ha":733,"x_min":0,"x_max":0,"o":"m 364 -21 b 78 253 175 -21 78 83 l 78 435 b 343 704 78 606 178 704 b 529 619 433 704 496 671 b 456 839 525 718 503 792 l 383 760 b 361 758 375 750 371 750 l 333 781 b 332 806 324 789 324 796 l 396 878 b 204 918 353 904 296 918 b 171 950 179 918 171 925 l 171 997 b 201 1031 171 1022 178 1031 b 478 974 319 1031 410 1011 l 535 1038 b 558 1039 544 1049 547 1049 l 588 1014 b 589 988 599 1004 599 999 l 538 929 b 649 556 617 853 649 729 l 649 254 b 364 -21 649 83 550 -21 m 364 92 b 525 256 472 92 525 151 l 525 429 b 364 592 525 533 472 592 b 201 428 254 592 201 532 l 201 256 b 364 92 201 151 254 92 "},"ď":{"ha":832,"x_min":0,"x_max":0,"o":"m 363 -21 b 79 268 169 -21 79 82 l 79 463 b 343 738 79 639 164 738 b 506 703 414 738 475 715 l 506 994 b 535 1028 506 1019 513 1028 l 599 1028 b 629 994 621 1028 629 1019 l 629 99 b 581 22 629 54 621 43 b 363 -21 536 1 458 -21 m 753 707 b 732 731 733 707 729 711 l 776 994 b 814 1028 781 1021 788 1028 l 863 1028 b 892 994 892 1028 899 1017 l 819 738 b 786 707 813 715 808 707 l 753 707 m 367 93 b 489 115 413 93 461 103 b 506 142 503 122 506 128 l 506 589 b 358 624 481 601 424 624 b 203 458 253 624 203 567 l 203 272 b 367 93 201 151 251 93 "},"đ":{"ha":714,"x_min":0,"x_max":0,"o":"m 363 -21 b 79 268 169 -21 79 82 l 79 463 b 343 738 79 639 164 738 b 506 703 414 738 475 715 l 506 839 l 333 839 b 311 863 315 839 311 843 l 311 893 b 333 917 311 911 317 917 l 506 917 l 506 994 b 535 1028 506 1019 513 1028 l 599 1028 b 629 994 621 1028 629 1019 l 629 917 l 699 917 b 721 893 715 917 721 911 l 721 863 b 699 839 721 843 715 839 l 629 839 l 629 99 b 581 22 629 54 621 43 b 363 -21 536 1 458 -21 m 367 93 b 489 115 413 93 461 103 b 506 142 503 122 506 128 l 506 589 b 358 624 481 601 424 624 b 203 458 253 624 203 567 l 203 272 b 367 93 201 151 251 93 "},"e":{"ha":707,"x_min":0,"x_max":0,"o":"m 356 -21 b 75 268 160 -21 75 99 l 75 440 b 358 738 75 628 175 738 b 639 450 550 738 639 614 l 639 369 b 592 321 639 340 626 321 l 199 321 l 199 254 b 356 86 199 149 251 86 b 518 183 444 86 489 124 b 565 197 532 206 542 210 l 604 175 b 618 122 626 163 632 146 b 356 -21 575 38 492 -21 m 518 417 l 518 457 b 358 632 518 567 468 632 b 199 457 250 632 199 567 l 199 417 "},"é":{"ha":707,"x_min":0,"x_max":0,"o":"m 275 832 b 232 833 254 824 242 821 l 217 853 b 219 890 203 871 203 881 l 413 1021 b 474 1018 435 1033 456 1040 l 501 986 b 497 947 518 967 518 957 l 275 832 m 356 -21 b 75 268 160 -21 75 99 l 75 440 b 358 738 75 628 175 738 b 639 450 550 738 639 614 l 639 369 b 592 321 639 340 626 321 l 199 321 l 199 254 b 356 86 199 149 251 86 b 518 183 444 86 489 124 b 565 197 532 206 542 210 l 604 175 b 618 122 626 163 632 146 b 356 -21 575 38 492 -21 m 518 417 l 518 457 b 358 632 518 567 468 632 b 199 457 250 632 199 567 l 199 417 "},"ĕ":{"ha":707,"x_min":0,"x_max":0,"o":"m 360 826 b 158 974 258 826 188 878 b 174 1006 153 992 157 999 l 215 1021 b 249 1008 233 1026 243 1024 b 360 917 267 947 303 917 b 471 1008 415 917 453 947 b 499 1022 476 1024 483 1026 l 547 1006 b 563 974 564 997 568 992 b 360 826 532 878 461 826 m 356 -21 b 75 268 160 -21 75 99 l 75 440 b 358 738 75 628 175 738 b 639 450 550 738 639 614 l 639 369 b 592 321 639 340 626 321 l 199 321 l 199 254 b 356 86 199 149 251 86 b 518 183 444 86 489 124 b 565 197 532 206 542 210 l 604 175 b 618 122 626 163 632 146 b 356 -21 575 38 492 -21 m 518 417 l 518 457 b 358 632 518 567 468 632 b 199 457 250 632 199 567 l 199 417 "},"ě":{"ha":707,"x_min":0,"x_max":0,"o":"m 353 822 b 289 851 322 822 315 824 l 144 994 b 160 1021 131 1008 132 1021 l 206 1021 b 257 1003 232 1021 240 1021 l 356 903 l 454 1003 b 507 1021 469 1019 481 1021 l 556 1021 b 572 994 585 1021 585 1008 l 426 851 b 365 822 399 822 392 822 l 353 822 m 356 -21 b 75 268 160 -21 75 99 l 75 440 b 358 738 75 628 175 738 b 639 450 550 738 639 614 l 639 369 b 592 321 639 340 626 321 l 199 321 l 199 254 b 356 86 199 149 251 86 b 518 183 444 86 489 124 b 565 197 532 206 542 210 l 604 175 b 618 122 626 163 632 146 b 356 -21 575 38 492 -21 m 518 417 l 518 457 b 358 632 518 567 468 632 b 199 457 250 632 199 567 l 199 417 "},"ê":{"ha":707,"x_min":0,"x_max":0,"o":"m 161 824 b 146 850 133 824 132 836 l 292 993 b 356 1022 318 1021 324 1022 l 368 1022 b 429 993 394 1022 401 1022 l 574 850 b 557 824 586 836 586 824 l 508 824 b 456 842 482 824 471 825 l 360 942 l 258 842 b 207 824 242 825 235 824 l 161 824 m 356 -21 b 75 268 160 -21 75 99 l 75 440 b 358 738 75 628 175 738 b 639 450 550 738 639 614 l 639 369 b 592 321 639 340 626 321 l 199 321 l 199 254 b 356 86 199 149 251 86 b 518 183 444 86 489 124 b 565 197 532 206 542 210 l 604 175 b 618 122 626 163 632 146 b 356 -21 575 38 492 -21 m 518 417 l 518 457 b 358 632 518 567 468 632 b 199 457 250 632 199 567 l 199 417 "},"ë":{"ha":707,"x_min":0,"x_max":0,"o":"m 222 856 b 163 915 178 856 163 869 l 163 925 b 222 985 163 969 176 985 l 231 985 b 290 925 275 985 290 969 l 290 915 b 231 856 290 871 275 856 l 222 856 m 482 856 b 422 915 438 856 422 869 l 422 925 b 482 985 422 969 438 985 l 490 985 b 550 925 536 985 550 969 l 550 915 b 490 856 550 871 536 856 l 482 856 m 356 -21 b 75 268 160 -21 75 99 l 75 440 b 358 738 75 628 175 738 b 639 450 550 738 639 614 l 639 369 b 592 321 639 340 626 321 l 199 321 l 199 254 b 356 86 199 149 251 86 b 518 183 444 86 489 124 b 565 197 532 206 542 210 l 604 175 b 618 122 626 163 632 146 b 356 -21 575 38 492 -21 m 518 417 l 518 457 b 358 632 518 567 468 632 b 199 457 250 632 199 567 l 199 417 "},"ė":{"ha":707,"x_min":0,"x_max":0,"o":"m 338 854 b 288 914 299 854 288 865 l 288 931 b 338 992 288 976 300 992 l 381 992 b 431 931 419 992 431 976 l 431 914 b 381 854 431 867 419 854 l 338 854 m 356 -21 b 75 268 160 -21 75 99 l 75 440 b 358 738 75 628 175 738 b 639 450 550 738 639 614 l 639 369 b 592 321 639 340 626 321 l 199 321 l 199 254 b 356 86 199 149 251 86 b 518 183 444 86 489 124 b 565 197 532 206 542 210 l 604 175 b 618 122 626 163 632 146 b 356 -21 575 38 492 -21 m 518 417 l 518 457 b 358 632 518 567 468 632 b 199 457 250 632 199 567 l 199 417 "},"è":{"ha":707,"x_min":0,"x_max":0,"o":"m 222 947 b 218 985 201 956 203 965 l 246 1018 b 307 1019 264 1039 285 1032 l 500 889 b 503 853 517 879 517 871 l 488 833 b 444 831 478 821 465 822 m 356 -21 b 75 268 160 -21 75 99 l 75 440 b 358 738 75 628 175 738 b 639 450 550 738 639 614 l 639 369 b 592 321 639 340 626 321 l 199 321 l 199 254 b 356 86 199 149 251 86 b 518 183 444 86 489 124 b 565 197 532 206 542 210 l 604 175 b 618 122 626 163 632 146 b 356 -21 575 38 492 -21 m 518 417 l 518 457 b 358 632 518 567 468 632 b 199 457 250 632 199 567 l 199 417 "},"ē":{"ha":707,"x_min":0,"x_max":0,"o":"m 201 872 b 171 904 178 872 171 879 l 171 932 b 201 963 171 956 179 963 l 517 963 b 547 932 540 963 547 956 l 547 904 b 517 872 547 879 540 872 l 201 872 m 356 -21 b 75 268 160 -21 75 99 l 75 440 b 358 738 75 628 175 738 b 639 450 550 738 639 614 l 639 369 b 592 321 639 340 626 321 l 199 321 l 199 254 b 356 86 199 149 251 86 b 518 183 444 86 489 124 b 565 197 532 206 542 210 l 604 175 b 618 122 626 163 632 146 b 356 -21 575 38 492 -21 m 518 417 l 518 457 b 358 632 518 567 468 632 b 199 457 250 632 199 567 l 199 417 "},"ę":{"ha":707,"x_min":0,"x_max":0,"o":"m 469 -342 b 356 -265 417 -342 368 -322 b 460 -3 339 -197 382 -94 b 356 -21 431 -14 396 -21 b 75 268 160 -21 75 99 l 75 440 b 358 738 75 628 175 738 b 639 450 550 738 639 614 l 639 369 b 592 321 639 340 626 321 l 199 321 l 199 254 b 356 86 199 149 251 86 b 518 183 444 86 489 124 b 565 197 532 206 542 210 l 604 175 b 618 122 626 163 632 146 b 588 75 610 106 600 89 b 463 -217 492 -58 447 -174 b 507 -250 469 -240 488 -250 b 556 -226 524 -250 540 -242 b 576 -232 564 -221 572 -222 l 592 -268 b 590 -293 596 -279 596 -286 b 469 -342 557 -325 514 -342 m 518 417 l 518 457 b 358 632 518 567 468 632 b 199 457 250 632 199 567 l 199 417 "},"f":{"ha":457,"x_min":0,"x_max":0,"o":"m 171 0 b 140 33 147 0 140 8 l 140 603 l 57 603 b 26 635 33 603 26 611 l 26 683 b 57 717 26 708 33 717 l 140 717 l 140 742 b 388 1028 140 938 218 1025 l 401 1028 b 432 994 425 1028 432 1019 l 432 946 b 401 913 432 921 425 913 b 264 742 294 913 264 871 l 264 717 l 400 717 b 431 683 424 717 431 708 l 431 635 b 400 603 431 611 424 603 l 264 603 l 264 33 b 232 0 264 8 256 0 l 171 0 "},"g":{"ha":725,"x_min":0,"x_max":0,"o":"m 354 -336 b 100 -193 221 -336 146 -279 b 111 -143 85 -169 90 -154 l 156 -118 b 204 -132 179 -104 192 -110 b 353 -225 233 -189 276 -225 b 503 -46 461 -225 503 -162 l 503 36 b 336 4 464 19 407 4 b 78 275 157 4 78 103 l 78 450 b 360 738 78 636 167 738 b 579 697 457 738 536 718 b 626 615 619 676 626 660 l 626 -39 b 354 -336 626 -221 550 -336 m 351 117 b 503 147 428 117 472 132 l 503 575 b 485 603 503 592 500 596 b 364 625 460 613 418 625 b 201 446 249 625 201 572 l 201 282 b 351 117 201 171 243 117 "},"ğ":{"ha":725,"x_min":0,"x_max":0,"o":"m 371 826 b 169 974 269 826 199 878 b 185 1006 164 992 168 999 l 226 1021 b 260 1008 244 1026 254 1024 b 371 917 278 947 314 917 b 482 1008 426 917 464 947 b 510 1022 488 1024 494 1026 l 558 1006 b 574 974 575 997 579 992 b 371 826 543 878 472 826 m 354 -336 b 100 -193 221 -336 146 -279 b 111 -143 85 -169 90 -154 l 156 -118 b 204 -132 179 -104 192 -110 b 353 -225 233 -189 276 -225 b 503 -46 461 -225 503 -162 l 503 36 b 336 4 464 19 407 4 b 78 275 157 4 78 103 l 78 450 b 360 738 78 636 167 738 b 579 697 457 738 536 718 b 626 615 619 676 626 660 l 626 -39 b 354 -336 626 -221 550 -336 m 351 117 b 503 147 428 117 472 132 l 503 575 b 485 603 503 592 500 596 b 364 625 460 613 418 625 b 201 446 249 625 201 572 l 201 282 b 351 117 201 171 243 117 "},"ĝ":{"ha":725,"x_min":0,"x_max":0,"o":"m 174 824 b 158 850 146 824 144 836 l 304 993 b 368 1022 331 1021 336 1022 l 381 1022 b 442 993 407 1022 414 1022 l 586 850 b 569 824 599 836 599 824 l 521 824 b 468 842 494 824 483 825 l 372 942 l 271 842 b 219 824 254 825 247 824 l 174 824 m 354 -336 b 100 -193 221 -336 146 -279 b 111 -143 85 -169 90 -154 l 156 -118 b 204 -132 179 -104 192 -110 b 353 -225 233 -189 276 -225 b 503 -46 461 -225 503 -162 l 503 36 b 336 4 464 19 407 4 b 78 275 157 4 78 103 l 78 450 b 360 738 78 636 167 738 b 579 697 457 738 536 718 b 626 615 619 676 626 660 l 626 -39 b 354 -336 626 -221 550 -336 m 351 117 b 503 147 428 117 472 132 l 503 575 b 485 603 503 592 500 596 b 364 625 460 613 418 625 b 201 446 249 625 201 572 l 201 282 b 351 117 201 171 243 117 "},"ģ":{"ha":725,"x_min":0,"x_max":0,"o":"m 340 810 b 313 849 310 810 303 822 l 374 1001 b 415 1032 382 1025 390 1032 l 447 1032 b 471 1007 469 1032 474 1026 l 431 847 b 388 810 426 817 417 810 l 340 810 m 354 -336 b 100 -193 221 -336 146 -279 b 111 -143 85 -169 90 -154 l 156 -118 b 204 -132 179 -104 192 -110 b 353 -225 233 -189 276 -225 b 503 -46 461 -225 503 -162 l 503 36 b 336 4 464 19 407 4 b 78 275 157 4 78 103 l 78 450 b 360 738 78 636 167 738 b 579 697 457 738 536 718 b 626 615 619 676 626 660 l 626 -39 b 354 -336 626 -221 550 -336 m 351 117 b 503 147 428 117 472 132 l 503 575 b 485 603 503 592 500 596 b 364 625 460 613 418 625 b 201 446 249 625 201 572 l 201 282 b 351 117 201 171 243 117 "},"ġ":{"ha":725,"x_min":0,"x_max":0,"o":"m 350 854 b 300 914 311 854 300 865 l 300 931 b 350 992 300 976 313 992 l 393 992 b 443 931 432 992 443 976 l 443 914 b 393 854 443 867 432 854 l 350 854 m 354 -336 b 100 -193 221 -336 146 -279 b 111 -143 85 -169 90 -154 l 156 -118 b 204 -132 179 -104 192 -110 b 353 -225 233 -189 276 -225 b 503 -46 461 -225 503 -162 l 503 36 b 336 4 464 19 407 4 b 78 275 157 4 78 103 l 78 450 b 360 738 78 636 167 738 b 579 697 457 738 536 718 b 626 615 619 676 626 660 l 626 -39 b 354 -336 626 -221 550 -336 m 351 117 b 503 147 428 117 472 132 l 503 575 b 485 603 503 592 500 596 b 364 625 460 613 418 625 b 201 446 249 625 201 572 l 201 282 b 351 117 201 171 243 117 "},"h":{"ha":742,"x_min":0,"x_max":0,"o":"m 132 0 b 101 33 110 0 101 8 l 101 994 b 132 1028 101 1019 110 1028 l 196 1028 b 225 994 218 1028 225 1019 l 225 707 b 392 738 254 721 314 738 b 646 467 567 738 646 640 l 646 33 b 617 0 646 8 639 0 l 553 0 b 522 33 531 0 522 8 l 522 458 b 375 625 522 571 478 625 b 225 594 307 625 254 610 l 225 33 b 196 0 225 8 218 0 l 132 0 "},"ħ":{"ha":742,"x_min":0,"x_max":0,"o":"m 132 0 b 101 33 108 0 101 8 l 101 847 l 44 847 b 22 871 28 847 22 851 l 22 899 b 44 922 22 917 29 922 l 101 922 l 101 994 b 132 1028 101 1019 108 1028 l 194 1028 b 225 994 218 1028 225 1019 l 225 922 l 400 922 b 422 899 418 922 422 917 l 422 871 b 400 847 422 851 418 847 l 225 847 l 225 707 b 390 738 254 721 313 738 b 646 467 567 738 646 640 l 646 33 b 615 0 646 8 639 0 l 553 0 b 522 33 529 0 522 8 l 522 458 b 374 625 522 571 478 625 b 225 594 307 625 254 610 l 225 33 b 194 0 225 8 218 0 l 132 0 "},"ĥ":{"ha":742,"x_min":0,"x_max":0,"o":"m -29 1075 b -44 1101 -57 1075 -58 1088 l 100 1244 b 165 1274 128 1272 133 1274 l 178 1274 b 239 1244 204 1274 211 1274 l 383 1101 b 367 1075 396 1088 396 1075 l 318 1075 b 265 1093 292 1075 281 1076 l 168 1193 l 68 1093 b 17 1075 51 1076 44 1075 l -29 1075 m 132 0 b 101 33 110 0 101 8 l 101 994 b 132 1028 101 1019 110 1028 l 196 1028 b 225 994 218 1028 225 1019 l 225 707 b 392 738 254 721 314 738 b 646 467 567 738 646 640 l 646 33 b 617 0 646 8 639 0 l 553 0 b 522 33 531 0 522 8 l 522 458 b 375 625 522 571 478 625 b 225 594 307 625 254 610 l 225 33 b 196 0 225 8 218 0 l 132 0 "},"i":{"ha":326,"x_min":0,"x_max":0,"o":"m 142 854 b 92 914 103 854 92 865 l 92 931 b 142 992 92 976 104 992 l 183 992 b 233 931 222 992 233 976 l 233 914 b 183 854 233 867 222 854 l 142 854 m 135 0 b 101 33 110 0 101 8 l 101 683 b 135 717 101 708 110 717 l 192 717 b 225 683 217 717 225 708 l 225 33 b 192 0 225 8 217 0 l 135 0 "},"ı":{"ha":326,"x_min":0,"x_max":0,"o":"m 135 0 b 101 33 110 0 101 8 l 101 683 b 135 717 101 708 110 717 l 192 717 b 225 683 217 717 225 708 l 225 33 b 192 0 225 8 217 0 l 135 0 "},"í":{"ha":326,"x_min":0,"x_max":0,"o":"m 79 832 b 36 833 58 824 46 821 l 21 853 b 24 890 7 871 7 881 l 217 1021 b 278 1018 239 1033 260 1040 l 306 986 b 301 947 322 967 322 957 l 79 832 m 135 0 b 101 33 110 0 101 8 l 101 683 b 135 717 101 708 110 717 l 192 717 b 225 683 217 717 225 708 l 225 33 b 192 0 225 8 217 0 l 135 0 "},"ĭ":{"ha":326,"x_min":0,"x_max":0,"o":"m 163 822 b -12 964 71 822 10 874 b 1 994 -18 981 -14 989 l 44 1011 b 78 999 64 1015 72 1014 b 163 914 89 939 118 914 b 247 999 207 914 236 939 b 276 1011 254 1014 261 1017 l 324 994 b 339 964 342 988 344 981 b 163 822 317 874 256 822 m 135 0 b 101 33 110 0 101 8 l 101 683 b 135 717 101 708 110 717 l 192 717 b 225 683 217 717 225 708 l 225 33 b 192 0 225 8 217 0 l 135 0 "},"î":{"ha":326,"x_min":0,"x_max":0,"o":"m 1 822 b -15 849 -26 822 -26 835 l 94 985 b 158 1013 118 1014 128 1013 l 171 1013 b 229 985 196 1013 207 1014 l 340 849 b 324 822 351 835 351 822 l 281 822 b 228 840 253 822 239 822 l 161 933 l 93 840 b 43 822 81 821 69 822 l 1 822 m 135 0 b 101 33 110 0 101 8 l 101 683 b 135 717 101 708 110 717 l 192 717 b 225 683 217 717 225 708 l 225 33 b 192 0 225 8 217 0 l 135 0 "},"ï":{"ha":326,"x_min":0,"x_max":0,"o":"m 51 842 b -7 899 7 842 -7 856 l -7 911 b 51 968 -7 953 7 968 l 60 968 b 118 911 104 968 118 953 l 118 899 b 60 842 118 856 104 842 l 51 842 m 265 842 b 207 899 221 842 207 856 l 207 911 b 265 968 207 953 221 968 l 274 968 b 331 911 317 968 331 953 l 331 899 b 274 842 331 856 317 842 l 265 842 m 135 0 b 101 33 110 0 101 8 l 101 683 b 135 717 101 708 110 717 l 192 717 b 225 683 217 717 225 708 l 225 33 b 192 0 225 8 217 0 l 135 0 "},"ì":{"ha":326,"x_min":0,"x_max":0,"o":"m 26 947 b 22 985 6 956 7 965 l 50 1018 b 111 1019 68 1039 89 1032 l 304 889 b 307 853 321 879 321 871 l 292 833 b 249 831 282 821 269 822 m 135 0 b 101 33 110 0 101 8 l 101 683 b 135 717 101 708 110 717 l 192 717 b 225 683 217 717 225 708 l 225 33 b 192 0 225 8 217 0 l 135 0 "},"ĳ":{"ha":615,"x_min":0,"x_max":0,"o":"m 142 854 b 92 914 103 854 92 865 l 92 931 b 142 992 92 976 104 992 l 183 992 b 233 931 222 992 233 976 l 233 914 b 183 854 233 867 222 854 l 142 854 m 439 854 b 389 914 400 854 389 865 l 389 931 b 439 992 389 976 401 992 l 481 992 b 531 931 519 992 531 976 l 531 914 b 481 854 531 867 519 854 l 439 854 m 135 0 b 101 33 110 0 101 8 l 101 683 b 135 717 101 708 110 717 l 192 717 b 225 683 217 717 225 708 l 225 33 b 192 0 225 8 217 0 l 135 0 m 272 -319 b 243 -286 250 -319 243 -311 l 243 -237 b 272 -204 243 -212 250 -204 b 394 -10 393 -204 394 -132 l 394 683 b 424 717 394 708 401 717 l 489 717 b 518 683 511 717 518 708 l 518 -12 b 272 -319 518 -207 490 -319 "},"ī":{"ha":326,"x_min":0,"x_max":0,"o":"m 64 857 b 33 888 40 857 33 864 l 33 915 b 64 947 33 940 43 947 l 260 947 b 290 915 285 947 290 940 l 290 888 b 260 857 290 864 285 857 l 64 857 m 135 0 b 101 33 110 0 101 8 l 101 683 b 135 717 101 708 110 717 l 192 717 b 225 683 217 717 225 708 l 225 33 b 192 0 225 8 217 0 l 135 0 "},"į":{"ha":326,"x_min":0,"x_max":0,"o":"m 158 857 b 92 925 108 857 92 874 l 92 935 b 158 1003 92 986 108 1003 l 168 1003 b 235 935 218 1003 235 986 l 235 925 b 168 857 235 874 218 857 l 158 857 m 161 -340 b 50 -254 104 -340 58 -314 b 131 1 39 -171 82 -65 b 101 33 108 1 101 10 l 101 683 b 135 717 101 708 110 717 l 192 717 b 225 683 217 717 225 708 l 225 33 b 218 7 225 21 224 13 b 156 -208 176 -61 149 -150 b 197 -250 158 -233 178 -250 b 240 -228 213 -250 226 -244 b 261 -233 247 -222 256 -224 l 275 -267 b 274 -290 279 -276 279 -283 b 161 -340 243 -326 201 -340 "},"ĩ":{"ha":326,"x_min":0,"x_max":0,"o":"m 13 835 b -6 857 0 835 -6 843 b 86 1001 -6 967 28 1001 b 221 918 165 1001 168 918 b 256 981 242 918 256 933 b 272 1001 256 996 258 1001 l 303 1001 b 321 981 317 1001 321 996 b 231 835 321 871 290 835 b 99 917 157 835 151 917 b 63 857 76 917 63 906 b 46 835 63 843 57 835 l 13 835 m 135 0 b 101 33 110 0 101 8 l 101 683 b 135 717 101 708 110 717 l 192 717 b 225 683 217 717 225 708 l 225 33 b 192 0 225 8 217 0 l 135 0 "},"j":{"ha":319,"x_min":0,"x_max":0,"o":"m 143 854 b 93 914 104 854 93 865 l 93 931 b 143 992 93 976 106 992 l 186 992 b 236 931 225 992 236 976 l 236 914 b 186 854 236 867 225 854 l 143 854 m -24 -319 b -53 -286 -46 -319 -53 -311 l -53 -237 b -24 -204 -53 -212 -46 -204 b 99 -10 97 -204 99 -132 l 99 683 b 128 717 99 708 106 717 l 193 717 b 222 683 215 717 222 708 l 222 -12 b -24 -319 222 -207 194 -319 "},"ȷ":{"ha":319,"x_min":0,"x_max":0,"o":"m -24 -319 b -53 -286 -46 -319 -53 -311 l -53 -237 b -24 -204 -53 -212 -46 -204 b 99 -10 97 -204 99 -132 l 99 683 b 128 717 99 708 106 717 l 193 717 b 222 683 215 717 222 708 l 222 -12 b -24 -319 222 -207 194 -319 "},"ĵ":{"ha":319,"x_min":0,"x_max":0,"o":"m -15 817 b -31 842 -42 817 -43 828 l 96 983 b 160 1011 122 1010 129 1011 l 172 1011 b 232 983 199 1011 206 1011 l 358 842 b 342 817 371 828 371 817 l 296 817 b 243 833 268 817 258 818 l 164 932 l 81 833 b 31 817 64 817 56 817 l -15 817 m -24 -319 b -53 -286 -46 -319 -53 -311 l -53 -237 b -24 -204 -53 -212 -46 -204 b 99 -10 97 -204 99 -132 l 99 683 b 128 717 99 708 106 717 l 193 717 b 222 683 215 717 222 708 l 222 -12 b -24 -319 222 -207 194 -319 "},"k":{"ha":686,"x_min":0,"x_max":0,"o":"m 132 0 b 101 35 110 0 101 8 l 101 994 b 132 1028 101 1019 110 1028 l 196 1028 b 225 994 218 1028 225 1019 l 225 424 l 324 424 l 333 424 l 497 692 b 554 717 511 717 521 717 l 606 717 b 629 678 638 717 643 703 l 446 400 b 533 288 486 381 510 343 l 640 39 b 617 0 653 11 649 0 l 567 0 b 511 29 531 0 521 4 l 426 232 b 333 310 406 286 382 310 l 225 310 l 225 35 b 196 0 225 8 218 0 l 132 0 "},"ķ":{"ha":686,"x_min":0,"x_max":0,"o":"m 132 0 b 101 35 110 0 101 8 l 101 994 b 132 1028 101 1019 110 1028 l 196 1028 b 225 994 218 1028 225 1019 l 225 424 l 324 424 l 333 424 l 497 692 b 554 717 511 717 521 717 l 606 717 b 629 678 638 717 643 703 l 446 400 b 533 288 486 381 510 343 l 640 39 b 617 0 653 11 649 0 l 567 0 b 511 29 531 0 521 4 l 426 232 b 333 310 406 286 382 310 l 225 310 l 225 35 b 196 0 225 8 218 0 l 132 0 m 261 -351 b 240 -326 242 -351 238 -346 l 278 -128 b 318 -93 281 -100 290 -93 l 374 -93 b 404 -128 404 -93 413 -106 l 340 -319 b 301 -351 332 -343 324 -351 l 261 -351 "},"ĸ":{"ha":649,"x_min":0,"x_max":0,"o":"m 132 0 b 101 35 108 0 101 8 l 101 683 b 132 717 101 708 108 717 l 196 717 b 225 683 218 717 225 708 l 225 363 l 467 690 b 519 717 483 715 489 717 l 579 717 b 599 678 610 717 615 703 l 403 414 l 606 40 b 583 0 618 15 614 0 l 532 0 b 482 28 496 0 493 3 l 325 324 l 225 207 l 225 35 b 194 0 225 8 218 0 l 132 0 "},"l":{"ha":336,"x_min":0,"x_max":0,"o":"m 131 0 b 106 33 111 0 106 8 l 106 994 b 131 1028 106 1019 111 1028 l 206 1028 b 229 994 224 1028 229 1019 l 229 33 b 206 0 229 8 224 0 l 131 0 "},"ĺ":{"ha":336,"x_min":0,"x_max":0,"o":"m 83 1051 b 42 1054 64 1043 51 1042 l 26 1074 b 29 1110 13 1092 13 1100 l 222 1240 b 283 1239 243 1253 265 1260 l 311 1206 b 306 1168 326 1186 328 1176 l 83 1051 m 131 0 b 106 33 111 0 106 8 l 106 994 b 131 1028 106 1019 111 1028 l 206 1028 b 229 994 224 1028 229 1019 l 229 33 b 206 0 229 8 224 0 l 131 0 "},"ľ":{"ha":332,"x_min":0,"x_max":0,"o":"m 129 0 b 104 33 110 0 104 8 l 104 994 b 129 1028 104 1019 110 1028 l 204 1028 b 228 994 222 1028 228 1019 l 228 33 b 204 0 228 8 222 0 l 129 0 m 338 746 b 317 768 319 746 315 750 l 351 994 b 390 1028 356 1021 364 1028 l 442 1028 b 471 993 471 1028 481 1017 l 406 775 b 368 746 397 753 390 746 l 338 746 "},"ļ":{"ha":336,"x_min":0,"x_max":0,"o":"m 131 0 b 106 33 111 0 106 8 l 106 994 b 131 1028 106 1019 111 1028 l 206 1028 b 229 994 224 1028 229 1019 l 229 33 b 206 0 229 8 224 0 l 131 0 m 86 -351 b 65 -326 67 -351 63 -346 l 103 -128 b 143 -93 106 -100 115 -93 l 199 -93 b 229 -128 229 -93 238 -106 l 165 -319 b 126 -351 157 -343 149 -351 l 86 -351 "},"ŀ":{"ha":508,"x_min":0,"x_max":0,"o":"m 131 0 b 106 33 111 0 106 8 l 106 994 b 131 1028 106 1019 111 1028 l 206 1028 b 229 994 224 1028 229 1019 l 229 33 b 206 0 229 8 224 0 l 131 0 m 406 450 b 338 518 356 450 338 467 l 338 528 b 406 596 338 579 354 596 l 414 596 b 481 528 464 596 481 579 l 481 518 b 414 450 481 467 464 450 l 406 450 "},"ł":{"ha":433,"x_min":0,"x_max":0,"o":"m 185 0 b 151 33 160 0 151 8 l 151 433 l 88 396 b 50 404 68 385 60 389 l 29 440 b 39 474 22 456 25 465 l 151 538 l 151 994 b 185 1028 151 1019 160 1028 l 242 1028 b 275 994 267 1028 275 1019 l 275 604 l 347 647 b 385 640 367 658 375 657 l 406 603 b 396 569 414 588 410 578 l 275 500 l 275 33 b 242 0 275 8 267 0 l 185 0 "},"m":{"ha":1125,"x_min":0,"x_max":0,"o":"m 131 0 b 99 33 107 0 99 8 l 99 613 b 149 692 99 656 110 674 b 376 738 197 714 267 738 b 550 682 453 738 510 718 b 775 738 597 707 661 738 b 1029 465 951 738 1029 639 l 1029 33 b 997 0 1029 8 1021 0 l 938 0 b 906 33 914 0 906 8 l 906 463 b 758 625 906 569 864 625 b 613 583 688 625 647 603 b 628 472 624 553 628 515 l 628 33 b 596 0 628 8 619 0 l 536 0 b 506 33 513 0 506 8 l 506 469 b 361 625 506 576 463 625 b 239 601 306 625 272 615 b 222 572 224 594 222 585 l 222 33 b 190 0 222 8 214 0 l 131 0 "},"n":{"ha":739,"x_min":0,"x_max":0,"o":"m 129 0 b 99 33 107 0 99 8 l 99 613 b 147 690 99 656 107 672 b 388 738 196 713 271 738 b 643 463 564 738 643 635 l 643 33 b 613 0 643 8 636 0 l 550 0 b 519 33 526 0 519 8 l 519 458 b 371 625 519 568 468 625 b 238 599 318 625 267 611 b 222 574 225 592 222 585 l 222 33 b 192 0 222 8 215 0 l 129 0 "},"ń":{"ha":739,"x_min":0,"x_max":0,"o":"m 285 832 b 242 833 264 824 251 821 l 226 853 b 229 890 213 871 213 881 l 422 1021 b 483 1018 444 1033 465 1040 l 511 986 b 507 947 528 967 528 957 l 285 832 m 129 0 b 99 33 107 0 99 8 l 99 613 b 147 690 99 656 107 672 b 388 738 196 713 271 738 b 643 463 564 738 643 635 l 643 33 b 613 0 643 8 636 0 l 550 0 b 519 33 526 0 519 8 l 519 458 b 371 625 519 568 468 625 b 238 599 318 625 267 611 b 222 574 225 592 222 585 l 222 33 b 192 0 222 8 215 0 l 129 0 "},"ŉ":{"ha":739,"x_min":0,"x_max":0,"o":"m 85 765 b 69 789 67 765 63 771 l 133 993 b 172 1022 142 1015 146 1022 l 232 1022 b 253 988 261 1022 267 1010 l 156 789 b 115 765 143 769 138 765 l 85 765 m 129 0 b 99 33 107 0 99 8 l 99 613 b 147 690 99 656 107 672 b 388 738 196 713 271 738 b 643 463 564 738 643 635 l 643 33 b 613 0 643 8 636 0 l 550 0 b 519 33 526 0 519 8 l 519 458 b 371 625 519 568 468 625 b 238 599 318 625 267 611 b 222 574 225 592 222 585 l 222 33 b 192 0 222 8 215 0 l 129 0 "},"ň":{"ha":739,"x_min":0,"x_max":0,"o":"m 361 822 b 297 851 331 822 324 824 l 153 994 b 168 1021 139 1008 140 1021 l 214 1021 b 265 1003 240 1021 249 1021 l 364 903 l 463 1003 b 515 1021 478 1019 489 1021 l 564 1021 b 581 994 593 1021 593 1008 l 435 851 b 374 822 407 822 400 822 l 361 822 m 129 0 b 99 33 107 0 99 8 l 99 613 b 147 690 99 656 107 672 b 388 738 196 713 271 738 b 643 463 564 738 643 635 l 643 33 b 613 0 643 8 636 0 l 550 0 b 519 33 526 0 519 8 l 519 458 b 371 625 519 568 468 625 b 238 599 318 625 267 611 b 222 574 225 592 222 585 l 222 33 b 192 0 222 8 215 0 l 129 0 "},"ņ":{"ha":739,"x_min":0,"x_max":0,"o":"m 129 0 b 99 33 107 0 99 8 l 99 613 b 147 690 99 656 107 672 b 388 738 196 713 271 738 b 643 463 564 738 643 635 l 643 33 b 613 0 643 8 636 0 l 550 0 b 519 33 526 0 519 8 l 519 458 b 371 625 519 568 468 625 b 238 599 318 625 267 611 b 222 574 225 592 222 585 l 222 33 b 192 0 222 8 215 0 l 129 0 m 288 -351 b 267 -326 268 -351 264 -346 l 304 -128 b 344 -93 307 -100 317 -93 l 400 -93 b 431 -128 431 -93 439 -106 l 367 -319 b 328 -351 358 -343 350 -351 l 288 -351 "},"ŋ":{"ha":739,"x_min":0,"x_max":0,"o":"m 375 -318 b 343 -286 351 -318 343 -311 l 343 -240 b 375 -208 343 -215 351 -208 b 519 -24 504 -208 519 -143 l 519 458 b 371 625 519 568 468 625 b 238 599 318 625 267 611 b 222 574 225 592 222 585 l 222 33 b 192 0 222 8 215 0 l 129 0 b 99 33 107 0 99 8 l 99 613 b 147 690 99 656 107 672 b 388 738 196 713 271 738 b 643 463 564 738 643 635 l 643 -28 b 375 -318 643 -214 579 -318 "},"ñ":{"ha":739,"x_min":0,"x_max":0,"o":"m 182 840 b 161 861 167 840 161 847 b 268 1007 161 965 200 1007 b 447 921 361 1007 386 921 b 489 986 475 921 489 944 b 508 1007 489 1001 493 1007 l 544 1007 b 565 986 560 1007 565 1001 b 456 840 565 885 531 840 b 279 928 369 840 342 928 b 238 861 253 928 238 904 b 218 840 238 847 232 840 l 182 840 m 129 0 b 99 33 107 0 99 8 l 99 613 b 147 690 99 656 107 672 b 388 738 196 713 271 738 b 643 463 564 738 643 635 l 643 33 b 613 0 643 8 636 0 l 550 0 b 519 33 526 0 519 8 l 519 458 b 371 625 519 568 468 625 b 238 599 318 625 267 611 b 222 574 225 592 222 585 l 222 33 b 192 0 222 8 215 0 l 129 0 "},"o":{"ha":725,"x_min":0,"x_max":0,"o":"m 361 -21 b 78 244 183 -21 78 81 l 78 472 b 361 738 78 636 183 738 b 646 472 543 738 646 636 l 646 244 b 361 -21 646 81 543 -21 m 361 92 b 522 244 463 92 522 149 l 522 472 b 361 625 522 569 463 625 b 201 472 264 625 201 569 l 201 244 b 361 92 201 149 264 92 "},"ó":{"ha":725,"x_min":0,"x_max":0,"o":"m 278 832 b 235 833 257 824 244 821 l 219 853 b 222 890 206 871 206 881 l 415 1021 b 476 1018 438 1033 458 1040 l 504 986 b 500 947 521 967 521 957 l 278 832 m 361 -21 b 78 244 183 -21 78 81 l 78 472 b 361 738 78 636 183 738 b 646 472 543 738 646 636 l 646 244 b 361 -21 646 81 543 -21 m 361 92 b 522 244 463 92 522 149 l 522 472 b 361 625 522 569 463 625 b 201 472 264 625 201 569 l 201 244 b 361 92 201 149 264 92 "},"ŏ":{"ha":725,"x_min":0,"x_max":0,"o":"m 363 826 b 161 974 261 826 190 878 b 176 1006 156 992 160 999 l 218 1021 b 251 1008 236 1026 246 1024 b 363 917 269 947 306 917 b 474 1008 418 917 456 947 b 501 1022 479 1024 486 1026 l 550 1006 b 565 974 567 997 571 992 b 363 826 535 878 464 826 m 361 -21 b 78 244 183 -21 78 81 l 78 472 b 361 738 78 636 183 738 b 646 472 543 738 646 636 l 646 244 b 361 -21 646 81 543 -21 m 361 92 b 522 244 463 92 522 149 l 522 472 b 361 625 522 569 463 625 b 201 472 264 625 201 569 l 201 244 b 361 92 201 149 264 92 "},"ô":{"ha":725,"x_min":0,"x_max":0,"o":"m 164 824 b 149 850 136 824 135 836 l 294 993 b 358 1022 321 1021 326 1022 l 371 1022 b 432 993 397 1022 404 1022 l 576 850 b 560 824 589 836 589 824 l 511 824 b 458 842 485 824 474 825 l 363 942 l 261 842 b 210 824 244 825 238 824 l 164 824 m 361 -21 b 78 244 183 -21 78 81 l 78 472 b 361 738 78 636 183 738 b 646 472 543 738 646 636 l 646 244 b 361 -21 646 81 543 -21 m 361 92 b 522 244 463 92 522 149 l 522 472 b 361 625 522 569 463 625 b 201 472 264 625 201 569 l 201 244 b 361 92 201 149 264 92 "},"ö":{"ha":725,"x_min":0,"x_max":0,"o":"m 225 856 b 165 915 181 856 165 869 l 165 925 b 225 985 165 969 179 985 l 233 985 b 293 925 278 985 293 969 l 293 915 b 233 856 293 871 278 856 l 225 856 m 485 856 b 425 915 440 856 425 869 l 425 925 b 485 985 425 969 440 985 l 493 985 b 553 925 539 985 553 969 l 553 915 b 493 856 553 871 539 856 l 485 856 m 361 -21 b 78 244 183 -21 78 81 l 78 472 b 361 738 78 636 183 738 b 646 472 543 738 646 636 l 646 244 b 361 -21 646 81 543 -21 m 361 92 b 522 244 463 92 522 149 l 522 472 b 361 625 522 569 463 625 b 201 472 264 625 201 569 l 201 244 b 361 92 201 149 264 92 "},"ò":{"ha":725,"x_min":0,"x_max":0,"o":"m 225 947 b 221 985 204 956 206 965 l 249 1018 b 310 1019 267 1039 288 1032 l 503 889 b 506 853 519 879 519 871 l 490 833 b 447 831 481 821 468 822 m 361 -21 b 78 244 183 -21 78 81 l 78 472 b 361 738 78 636 183 738 b 646 472 543 738 646 636 l 646 244 b 361 -21 646 81 543 -21 m 361 92 b 522 244 463 92 522 149 l 522 472 b 361 625 522 569 463 625 b 201 472 264 625 201 569 l 201 244 b 361 92 201 149 264 92 "},"ő":{"ha":725,"x_min":0,"x_max":0,"o":"m 183 828 b 174 861 163 835 163 844 l 276 1001 b 332 1024 290 1021 307 1031 l 369 1010 b 381 974 393 1001 396 989 l 242 835 b 201 821 225 821 217 815 m 400 824 b 390 857 379 829 378 842 l 501 999 b 558 1021 517 1019 532 1029 l 597 1008 b 608 971 621 1000 625 986 l 460 831 b 419 817 442 817 435 811 m 361 -21 b 78 244 183 -21 78 81 l 78 472 b 361 738 78 636 183 738 b 646 472 543 738 646 636 l 646 244 b 361 -21 646 81 543 -21 m 361 92 b 522 244 463 92 522 149 l 522 472 b 361 625 522 569 463 625 b 201 472 264 625 201 569 l 201 244 b 361 92 201 149 264 92 "},"ō":{"ha":725,"x_min":0,"x_max":0,"o":"m 204 872 b 174 904 181 872 174 879 l 174 932 b 204 963 174 956 182 963 l 519 963 b 550 932 543 963 550 956 l 550 904 b 519 872 550 879 543 872 l 204 872 m 361 -21 b 78 244 183 -21 78 81 l 78 472 b 361 738 78 636 183 738 b 646 472 543 738 646 636 l 646 244 b 361 -21 646 81 543 -21 m 361 92 b 522 244 463 92 522 149 l 522 472 b 361 625 522 569 463 625 b 201 472 264 625 201 569 l 201 244 b 361 92 201 149 264 92 "},"ø":{"ha":725,"x_min":0,"x_max":0,"o":"m 99 -50 b 93 -35 89 -50 89 -42 l 147 56 b 78 244 103 101 78 165 l 78 472 b 361 738 78 636 183 738 b 525 699 426 738 482 724 l 558 756 b 581 765 565 765 568 765 l 632 765 b 638 754 640 765 642 761 l 581 657 b 646 472 624 611 646 549 l 646 244 b 361 -21 646 81 543 -21 b 204 17 300 -21 246 -7 l 172 -39 b 147 -50 165 -49 163 -50 l 99 -50 m 465 596 b 361 625 439 615 404 625 b 201 472 264 625 201 569 l 201 265 b 225 189 201 235 211 210 m 361 92 b 522 244 463 92 522 149 l 522 444 b 501 521 522 474 515 500 l 264 118 b 361 92 289 101 324 92 "},"ǿ":{"ha":725,"x_min":0,"x_max":0,"o":"m 278 832 b 235 833 257 824 244 821 l 219 853 b 222 890 206 871 206 881 l 415 1021 b 476 1018 438 1033 458 1040 l 504 986 b 500 947 521 967 521 957 l 278 832 m 99 -50 b 93 -35 89 -50 89 -42 l 147 56 b 78 244 103 101 78 165 l 78 472 b 361 738 78 636 183 738 b 525 699 426 738 482 724 l 558 756 b 581 765 565 765 568 765 l 632 765 b 638 754 640 765 642 761 l 581 657 b 646 472 624 611 646 549 l 646 244 b 361 -21 646 81 543 -21 b 204 17 300 -21 246 -7 l 172 -39 b 147 -50 165 -49 163 -50 l 99 -50 m 465 596 b 361 625 439 615 404 625 b 201 472 264 625 201 569 l 201 265 b 225 189 201 235 211 210 m 361 92 b 522 244 463 92 522 149 l 522 444 b 501 521 522 474 515 500 l 264 118 b 361 92 289 101 324 92 "},"õ":{"ha":725,"x_min":0,"x_max":0,"o":"m 176 840 b 156 861 161 840 156 847 b 263 1007 156 965 194 1007 b 442 921 356 1007 381 921 b 483 986 469 921 483 944 b 503 1007 483 1001 488 1007 l 539 1007 b 560 986 554 1007 560 1001 b 450 840 560 885 525 840 b 274 928 364 840 336 928 b 232 861 247 928 232 904 b 213 840 232 847 226 840 l 176 840 m 361 -21 b 78 244 183 -21 78 81 l 78 472 b 361 738 78 636 183 738 b 646 472 543 738 646 636 l 646 244 b 361 -21 646 81 543 -21 m 361 92 b 522 244 463 92 522 149 l 522 472 b 361 625 522 569 463 625 b 201 472 264 625 201 569 l 201 244 b 361 92 201 149 264 92 "},"œ":{"ha":1092,"x_min":0,"x_max":0,"o":"m 349 -21 b 78 244 182 -21 78 79 l 78 472 b 349 738 78 636 182 738 b 556 625 447 738 522 696 b 763 738 596 696 660 738 b 1024 451 956 738 1024 615 l 1024 369 b 975 321 1024 340 1011 321 l 613 321 l 613 253 b 761 88 613 147 657 88 b 908 182 842 88 875 124 b 958 194 922 206 933 207 l 997 176 b 1010 124 1019 165 1024 147 b 760 -21 963 39 900 -21 b 556 90 657 -21 594 19 b 349 -21 519 19 446 -21 m 910 417 l 910 458 b 763 631 910 567 865 631 b 613 458 654 631 613 567 l 613 417 m 349 89 b 497 244 442 89 497 149 l 497 472 b 349 626 497 569 443 626 b 200 472 260 626 200 569 l 200 244 b 349 89 200 149 260 89 "},"p":{"ha":726,"x_min":0,"x_max":0,"o":"m 129 -306 b 99 -272 106 -306 99 -297 l 99 618 b 146 694 99 663 106 674 b 365 738 192 715 268 738 b 647 450 558 738 647 638 l 647 254 b 389 -21 647 82 568 -21 b 222 17 319 -21 253 3 l 222 -272 b 192 -306 222 -297 215 -306 l 129 -306 m 374 93 b 524 257 479 93 524 151 l 524 447 b 361 625 524 567 476 625 b 239 601 314 625 265 615 b 222 575 225 594 222 590 l 222 129 b 374 93 253 115 310 93 "},"þ":{"ha":724,"x_min":0,"x_max":0,"o":"m 131 -306 b 100 -272 108 -306 100 -297 l 100 994 b 131 1028 100 1019 108 1028 l 193 1028 b 224 994 217 1028 224 1019 l 224 707 b 379 738 251 718 313 738 b 644 457 561 738 644 635 l 644 263 b 381 -21 644 82 560 -21 b 224 18 315 -21 253 4 l 224 -272 b 193 -306 224 -297 217 -306 l 131 -306 m 371 93 b 521 267 478 93 521 151 l 521 454 b 367 625 521 565 472 625 b 224 592 303 625 249 603 l 224 129 b 371 93 246 117 308 93 "},"q":{"ha":726,"x_min":0,"x_max":0,"o":"m 535 -306 b 504 -272 511 -306 504 -297 l 504 17 b 338 -21 472 3 407 -21 b 79 254 157 -21 79 82 l 79 450 b 361 738 79 638 168 738 b 581 694 457 738 535 715 b 628 618 621 674 628 663 l 628 -272 b 597 -306 628 -297 619 -306 l 535 -306 m 353 93 b 504 129 417 93 474 115 l 504 575 b 488 601 504 590 501 594 b 365 625 461 615 413 625 b 203 447 250 625 203 567 l 203 257 b 353 93 203 151 247 93 "},"r":{"ha":489,"x_min":0,"x_max":0,"o":"m 128 0 b 99 33 107 0 99 8 l 99 600 b 144 679 99 643 107 663 b 371 717 193 699 263 717 l 432 717 b 461 688 453 717 461 708 l 461 638 b 432 604 461 613 453 604 l 365 604 b 240 582 310 604 265 594 b 222 551 225 574 222 564 l 222 33 b 194 0 222 8 215 0 l 128 0 "},"ŕ":{"ha":489,"x_min":0,"x_max":0,"o":"m 168 832 b 125 833 147 824 135 821 l 110 853 b 113 890 96 871 96 881 l 306 1021 b 367 1018 328 1033 349 1040 l 394 986 b 390 947 411 967 411 957 l 168 832 m 128 0 b 99 33 107 0 99 8 l 99 600 b 144 679 99 643 107 663 b 371 717 193 699 263 717 l 432 717 b 461 688 453 717 461 708 l 461 638 b 432 604 461 613 453 604 l 365 604 b 240 582 310 604 265 594 b 222 551 225 574 222 564 l 222 33 b 194 0 222 8 215 0 l 128 0 "},"ř":{"ha":489,"x_min":0,"x_max":0,"o":"m 244 822 b 181 851 214 822 207 824 l 36 994 b 51 1021 22 1008 24 1021 l 97 1021 b 149 1003 124 1021 132 1021 l 247 903 l 346 1003 b 399 1021 361 1019 372 1021 l 447 1021 b 464 994 476 1021 476 1008 l 318 851 b 257 822 290 822 283 822 l 244 822 m 128 0 b 99 33 107 0 99 8 l 99 600 b 144 679 99 643 107 663 b 371 717 193 699 263 717 l 432 717 b 461 688 453 717 461 708 l 461 638 b 432 604 461 613 453 604 l 365 604 b 240 582 310 604 265 594 b 222 551 225 574 222 564 l 222 33 b 194 0 222 8 215 0 l 128 0 "},"ŗ":{"ha":489,"x_min":0,"x_max":0,"o":"m 128 0 b 99 33 107 0 99 8 l 99 600 b 144 679 99 643 107 663 b 371 717 193 699 263 717 l 432 717 b 461 688 453 717 461 708 l 461 638 b 432 604 461 613 453 604 l 365 604 b 240 582 310 604 265 594 b 222 551 225 574 222 564 l 222 33 b 194 0 222 8 215 0 l 128 0 m 85 -351 b 64 -326 65 -351 61 -346 l 101 -128 b 142 -93 104 -100 114 -93 l 197 -93 b 228 -128 228 -93 236 -106 l 164 -319 b 125 -351 156 -343 147 -351 l 85 -351 "},"s":{"ha":669,"x_min":0,"x_max":0,"o":"m 339 -21 b 64 149 197 -21 107 28 b 83 193 57 172 61 186 l 140 211 b 182 190 164 217 172 215 b 339 89 207 117 261 89 b 485 196 439 89 485 128 b 328 307 485 278 432 297 b 74 524 196 321 74 350 b 333 736 74 653 169 736 b 590 588 478 736 553 679 b 575 540 601 563 597 549 l 526 522 b 486 538 503 513 497 515 b 333 626 463 592 421 626 b 197 524 243 626 197 589 b 356 413 197 435 254 424 b 607 197 500 397 607 354 b 339 -21 607 67 517 -21 "},"ś":{"ha":669,"x_min":0,"x_max":0,"o":"m 250 832 b 207 833 229 824 217 821 l 192 853 b 194 890 178 871 178 881 l 388 1021 b 449 1018 410 1033 431 1040 l 476 986 b 472 947 493 967 493 957 l 250 832 m 339 -21 b 64 149 197 -21 107 28 b 83 193 57 172 61 186 l 140 211 b 182 190 164 217 172 215 b 339 89 207 117 261 89 b 485 196 439 89 485 128 b 328 307 485 278 432 297 b 74 524 196 321 74 350 b 333 736 74 653 169 736 b 590 588 478 736 553 679 b 575 540 601 563 597 549 l 526 522 b 486 538 503 513 497 515 b 333 626 463 592 421 626 b 197 524 243 626 197 589 b 356 413 197 435 254 424 b 607 197 500 397 607 354 b 339 -21 607 67 517 -21 "},"š":{"ha":669,"x_min":0,"x_max":0,"o":"m 328 822 b 264 851 297 822 290 824 l 119 994 b 135 1021 106 1008 107 1021 l 181 1021 b 232 1003 207 1021 215 1021 l 331 903 l 429 1003 b 482 1021 444 1019 456 1021 l 531 1021 b 547 994 560 1021 560 1008 l 401 851 b 340 822 374 822 367 822 l 328 822 m 339 -21 b 64 149 197 -21 107 28 b 83 193 57 172 61 186 l 140 211 b 182 190 164 217 172 215 b 339 89 207 117 261 89 b 485 196 439 89 485 128 b 328 307 485 278 432 297 b 74 524 196 321 74 350 b 333 736 74 653 169 736 b 590 588 478 736 553 679 b 575 540 601 563 597 549 l 526 522 b 486 538 503 513 497 515 b 333 626 463 592 421 626 b 197 524 243 626 197 589 b 356 413 197 435 254 424 b 607 197 500 397 607 354 b 339 -21 607 67 517 -21 "},"ş":{"ha":669,"x_min":0,"x_max":0,"o":"m 325 -339 b 229 -317 296 -339 253 -329 b 211 -286 215 -310 211 -303 l 210 -253 b 226 -242 210 -243 214 -233 b 308 -268 249 -256 267 -268 b 385 -204 360 -268 385 -246 b 319 -154 385 -172 361 -154 b 283 -158 307 -154 294 -156 b 268 -132 265 -160 261 -150 l 307 -19 b 64 149 181 -14 104 36 b 83 193 57 172 61 186 l 140 211 b 182 190 164 217 172 215 b 339 89 207 117 261 89 b 485 196 439 89 485 128 b 328 307 485 278 432 297 b 74 524 196 321 74 350 b 333 736 74 653 169 736 b 590 588 478 736 553 679 b 575 540 601 563 597 549 l 526 522 b 486 538 503 513 497 515 b 333 626 463 592 421 626 b 197 524 243 626 197 589 b 356 413 197 435 254 424 b 607 197 500 397 607 354 b 381 -17 607 79 528 -4 l 356 -97 b 378 -94 361 -96 369 -94 b 489 -211 444 -94 494 -143 b 325 -339 482 -308 408 -339 "},"ŝ":{"ha":669,"x_min":0,"x_max":0,"o":"m 136 824 b 121 850 108 824 107 836 l 267 993 b 331 1022 293 1021 299 1022 l 343 1022 b 404 993 369 1022 376 1022 l 549 850 b 532 824 561 836 561 824 l 483 824 b 431 842 457 824 446 825 l 335 942 l 233 842 b 182 824 217 825 210 824 l 136 824 m 339 -21 b 64 149 197 -21 107 28 b 83 193 57 172 61 186 l 140 211 b 182 190 164 217 172 215 b 339 89 207 117 261 89 b 485 196 439 89 485 128 b 328 307 485 278 432 297 b 74 524 196 321 74 350 b 333 736 74 653 169 736 b 590 588 478 736 553 679 b 575 540 601 563 597 549 l 526 522 b 486 538 503 513 497 515 b 333 626 463 592 421 626 b 197 524 243 626 197 589 b 356 413 197 435 254 424 b 607 197 500 397 607 354 b 339 -21 607 67 517 -21 "},"ș":{"ha":669,"x_min":0,"x_max":0,"o":"m 339 -21 b 64 149 197 -21 107 28 b 83 193 57 172 61 186 l 140 211 b 182 190 164 217 172 215 b 339 89 207 117 261 89 b 485 196 439 89 485 128 b 328 307 485 278 432 297 b 74 524 196 321 74 350 b 333 736 74 653 169 736 b 590 588 478 736 553 679 b 575 540 601 563 597 549 l 526 522 b 486 538 503 513 497 515 b 333 626 463 592 421 626 b 197 524 243 626 197 589 b 356 413 197 435 254 424 b 607 197 500 397 607 354 b 339 -21 607 67 517 -21 m 253 -351 b 232 -326 233 -351 229 -346 l 269 -128 b 310 -93 272 -100 282 -93 l 365 -93 b 396 -128 396 -93 404 -106 l 332 -319 b 293 -351 324 -343 315 -351 l 253 -351 "},"ß":{"ha":740,"x_min":0,"x_max":0,"o":"m 135 0 b 101 36 110 0 101 10 l 101 742 b 374 1042 101 943 194 1042 b 639 760 557 1042 639 935 b 535 543 639 674 608 585 l 535 539 b 672 285 615 507 672 431 b 410 0 672 100 571 0 l 332 0 b 301 36 308 0 301 10 l 301 88 b 332 124 301 115 308 124 l 392 124 b 550 300 492 124 550 185 b 400 469 550 404 497 469 l 335 469 b 304 507 311 469 304 479 l 304 554 b 331 590 304 582 310 590 l 392 590 b 521 747 481 590 521 668 b 374 922 521 857 476 922 b 225 742 275 922 225 863 l 225 36 b 193 0 225 10 218 0 l 135 0 "},"ſ":{"ha":353,"x_min":0,"x_max":0,"o":"m 175 0 b 143 33 150 0 143 8 l 143 603 l 60 603 b 29 635 36 603 29 611 l 29 683 b 60 717 29 708 36 717 l 143 717 l 143 750 b 406 1028 143 946 218 1028 b 436 994 429 1028 436 1019 l 436 946 b 406 913 436 921 429 913 b 267 744 300 913 267 874 l 267 33 b 236 0 267 8 260 0 l 175 0 "},"t":{"ha":482,"x_min":0,"x_max":0,"o":"m 414 0 b 149 269 226 -6 149 38 l 149 603 l 56 603 b 25 635 32 603 25 611 l 25 683 b 56 717 25 708 32 717 l 149 717 l 149 850 b 179 883 149 875 157 883 l 242 883 b 272 850 264 883 272 875 l 272 717 l 417 717 b 446 683 439 717 446 708 l 446 635 b 417 603 446 611 439 603 l 272 603 l 272 275 b 414 118 272 131 308 115 b 446 90 438 118 446 111 l 446 35 b 414 0 446 10 438 1 "},"ŧ":{"ha":482,"x_min":0,"x_max":0,"o":"m 414 0 b 149 269 226 -6 149 38 l 149 339 l 69 339 b 47 364 53 339 47 344 l 47 401 b 69 426 47 421 54 426 l 149 426 l 149 603 l 56 603 b 25 635 32 603 25 611 l 25 683 b 56 717 25 708 32 717 l 149 717 l 149 850 b 179 883 149 875 157 883 l 242 883 b 272 850 264 883 272 875 l 272 717 l 417 717 b 446 683 439 717 446 708 l 446 635 b 417 603 446 611 439 603 l 272 603 l 272 426 l 396 426 b 418 401 413 426 418 421 l 418 364 b 396 339 418 344 413 339 l 272 339 l 272 275 b 414 118 272 131 308 115 b 446 90 438 118 446 111 l 446 35 b 414 0 446 10 438 1 "},"ť":{"ha":482,"x_min":0,"x_max":0,"o":"m 418 771 b 397 794 400 771 396 775 l 428 994 b 467 1028 429 1021 440 1028 l 517 1028 b 547 994 546 1028 554 1017 l 486 801 b 449 771 478 779 471 771 l 418 771 m 414 0 b 149 269 226 -6 149 38 l 149 603 l 56 603 b 25 635 32 603 25 611 l 25 683 b 56 717 25 708 32 717 l 149 717 l 149 850 b 179 883 149 875 157 883 l 242 883 b 272 850 264 883 272 875 l 272 717 l 417 717 b 446 683 439 717 446 708 l 446 635 b 417 603 446 611 439 603 l 272 603 l 272 275 b 414 118 272 131 308 115 b 446 90 438 118 446 111 l 446 35 b 414 0 446 10 438 1 "},"ţ":{"ha":482,"x_min":0,"x_max":0,"o":"m 346 -89 b 458 -208 414 -89 464 -139 b 290 -340 450 -308 375 -340 b 193 -317 261 -340 217 -331 b 174 -285 178 -310 174 -303 l 174 -251 b 190 -239 174 -240 178 -232 b 274 -267 213 -253 232 -267 b 351 -203 326 -267 351 -243 b 285 -150 351 -168 328 -151 b 249 -154 272 -150 260 -151 b 232 -128 229 -156 224 -146 l 282 10 b 149 269 189 33 149 101 l 149 603 l 56 603 b 25 635 32 603 25 611 l 25 683 b 56 717 25 708 32 717 l 149 717 l 149 850 b 179 883 149 875 157 883 l 242 883 b 272 850 264 883 272 875 l 272 717 l 417 717 b 446 683 439 717 446 708 l 446 635 b 417 603 446 611 439 603 l 272 603 l 272 275 b 414 118 272 131 308 115 b 446 90 438 118 446 111 l 446 35 b 414 0 446 10 438 1 l 354 0 l 324 -92 b 346 -89 331 -89 338 -89 "},"ț":{"ha":482,"x_min":0,"x_max":0,"o":"m 414 0 b 149 269 226 -6 149 38 l 149 603 l 56 603 b 25 635 32 603 25 611 l 25 683 b 56 717 25 708 32 717 l 149 717 l 149 850 b 179 883 149 875 157 883 l 242 883 b 272 850 264 883 272 875 l 272 717 l 417 717 b 446 683 439 717 446 708 l 446 635 b 417 603 446 611 439 603 l 272 603 l 272 275 b 414 118 272 131 308 115 b 446 90 438 118 446 111 l 446 35 b 414 0 446 10 438 1 m 235 -351 b 214 -326 215 -351 211 -346 l 251 -128 b 292 -93 254 -100 264 -93 l 347 -93 b 378 -128 378 -93 386 -106 l 314 -319 b 275 -351 306 -343 297 -351 l 235 -351 "},"u":{"ha":739,"x_min":0,"x_max":0,"o":"m 350 -21 b 94 254 175 -21 94 82 l 94 683 b 125 717 94 708 103 717 l 189 717 b 218 683 211 717 218 708 l 218 258 b 367 93 218 149 263 93 b 499 117 422 93 468 101 b 515 149 513 124 515 132 l 515 683 b 546 717 515 708 524 717 l 610 717 b 639 683 632 717 639 708 l 639 103 b 592 26 639 60 629 43 b 350 -21 543 4 469 -21 "},"ú":{"ha":739,"x_min":0,"x_max":0,"o":"m 283 832 b 240 833 263 824 250 821 l 225 853 b 228 890 211 871 211 881 l 421 1021 b 482 1018 443 1033 464 1040 l 510 986 b 506 947 526 967 526 957 l 283 832 m 350 -21 b 94 254 175 -21 94 82 l 94 683 b 125 717 94 708 103 717 l 189 717 b 218 683 211 717 218 708 l 218 258 b 367 93 218 149 263 93 b 499 117 422 93 468 101 b 515 149 513 124 515 132 l 515 683 b 546 717 515 708 524 717 l 610 717 b 639 683 632 717 639 708 l 639 103 b 592 26 639 60 629 43 b 350 -21 543 4 469 -21 "},"ŭ":{"ha":739,"x_min":0,"x_max":0,"o":"m 368 826 b 167 974 267 826 196 878 b 182 1006 161 992 165 999 l 224 1021 b 257 1008 242 1026 251 1024 b 368 917 275 947 311 917 b 479 1008 424 917 461 947 b 507 1022 485 1024 492 1026 l 556 1006 b 571 974 572 997 576 992 b 368 826 540 878 469 826 m 350 -21 b 94 254 175 -21 94 82 l 94 683 b 125 717 94 708 103 717 l 189 717 b 218 683 211 717 218 708 l 218 258 b 367 93 218 149 263 93 b 499 117 422 93 468 101 b 515 149 513 124 515 132 l 515 683 b 546 717 515 708 524 717 l 610 717 b 639 683 632 717 639 708 l 639 103 b 592 26 639 60 629 43 b 350 -21 543 4 469 -21 "},"û":{"ha":739,"x_min":0,"x_max":0,"o":"m 169 824 b 154 850 142 824 140 836 l 300 993 b 364 1022 326 1021 332 1022 l 376 1022 b 438 993 403 1022 410 1022 l 582 850 b 565 824 594 836 594 824 l 517 824 b 464 842 490 824 479 825 l 368 942 l 267 842 b 215 824 250 825 243 824 l 169 824 m 350 -21 b 94 254 175 -21 94 82 l 94 683 b 125 717 94 708 103 717 l 189 717 b 218 683 211 717 218 708 l 218 258 b 367 93 218 149 263 93 b 499 117 422 93 468 101 b 515 149 513 124 515 132 l 515 683 b 546 717 515 708 524 717 l 610 717 b 639 683 632 717 639 708 l 639 103 b 592 26 639 60 629 43 b 350 -21 543 4 469 -21 "},"ü":{"ha":739,"x_min":0,"x_max":0,"o":"m 231 856 b 171 915 186 856 171 869 l 171 925 b 231 985 171 969 185 985 l 239 985 b 299 925 283 985 299 969 l 299 915 b 239 856 299 871 283 856 l 231 856 m 490 856 b 431 915 446 856 431 869 l 431 925 b 490 985 431 969 446 985 l 499 985 b 558 925 544 985 558 969 l 558 915 b 499 856 558 871 544 856 l 490 856 m 350 -21 b 94 254 175 -21 94 82 l 94 683 b 125 717 94 708 103 717 l 189 717 b 218 683 211 717 218 708 l 218 258 b 367 93 218 149 263 93 b 499 117 422 93 468 101 b 515 149 513 124 515 132 l 515 683 b 546 717 515 708 524 717 l 610 717 b 639 683 632 717 639 708 l 639 103 b 592 26 639 60 629 43 b 350 -21 543 4 469 -21 "},"ù":{"ha":739,"x_min":0,"x_max":0,"o":"m 231 947 b 226 985 210 956 211 965 l 254 1018 b 315 1019 272 1039 293 1032 l 508 889 b 511 853 525 879 525 871 l 496 833 b 453 831 486 821 474 822 m 350 -21 b 94 254 175 -21 94 82 l 94 683 b 125 717 94 708 103 717 l 189 717 b 218 683 211 717 218 708 l 218 258 b 367 93 218 149 263 93 b 499 117 422 93 468 101 b 515 149 513 124 515 132 l 515 683 b 546 717 515 708 524 717 l 610 717 b 639 683 632 717 639 708 l 639 103 b 592 26 639 60 629 43 b 350 -21 543 4 469 -21 "},"ű":{"ha":739,"x_min":0,"x_max":0,"o":"m 189 828 b 179 861 168 835 168 844 l 282 1001 b 338 1024 296 1021 313 1031 l 375 1010 b 386 974 399 1001 401 989 l 247 835 b 207 821 231 821 222 815 m 406 824 b 396 857 385 829 383 842 l 507 999 b 564 1021 522 1019 538 1029 l 603 1008 b 614 971 626 1000 631 986 l 465 831 b 425 817 447 817 440 811 m 350 -21 b 94 254 175 -21 94 82 l 94 683 b 125 717 94 708 103 717 l 189 717 b 218 683 211 717 218 708 l 218 258 b 367 93 218 149 263 93 b 499 117 422 93 468 101 b 515 149 513 124 515 132 l 515 683 b 546 717 515 708 524 717 l 610 717 b 639 683 632 717 639 708 l 639 103 b 592 26 639 60 629 43 b 350 -21 543 4 469 -21 "},"ū":{"ha":739,"x_min":0,"x_max":0,"o":"m 210 872 b 179 904 186 872 179 879 l 179 932 b 210 963 179 956 188 963 l 525 963 b 556 932 549 963 556 956 l 556 904 b 525 872 556 879 549 872 l 210 872 m 350 -21 b 94 254 175 -21 94 82 l 94 683 b 125 717 94 708 103 717 l 189 717 b 218 683 211 717 218 708 l 218 258 b 367 93 218 149 263 93 b 499 117 422 93 468 101 b 515 149 513 124 515 132 l 515 683 b 546 717 515 708 524 717 l 610 717 b 639 683 632 717 639 708 l 639 103 b 592 26 639 60 629 43 b 350 -21 543 4 469 -21 "},"ų":{"ha":740,"x_min":0,"x_max":0,"o":"m 522 -342 b 408 -265 469 -342 421 -322 b 514 1 394 -197 435 -92 b 350 -21 474 -10 422 -21 b 94 254 175 -21 94 82 l 94 683 b 125 717 94 708 103 717 l 189 717 b 218 683 211 717 218 708 l 218 258 b 367 93 218 149 263 93 b 499 117 422 93 468 101 b 515 149 513 124 515 132 l 515 683 b 546 717 515 708 524 717 l 610 717 b 639 683 632 717 639 708 l 639 103 b 626 50 639 79 636 63 b 515 -217 539 -68 504 -175 b 560 -250 521 -239 540 -250 b 610 -226 576 -250 596 -242 b 631 -232 619 -221 628 -222 l 646 -268 b 644 -293 651 -279 650 -286 b 522 -342 611 -325 567 -342 "},"ů":{"ha":739,"x_min":0,"x_max":0,"o":"m 369 789 b 228 928 286 789 228 846 b 369 1069 228 1011 286 1069 b 506 928 450 1069 506 1011 b 369 789 506 846 450 789 m 369 850 b 443 928 413 850 443 882 b 369 1006 443 975 413 1006 b 292 928 322 1006 292 975 b 369 850 292 882 322 850 m 350 -21 b 94 254 175 -21 94 82 l 94 683 b 125 717 94 708 103 717 l 189 717 b 218 683 211 717 218 708 l 218 258 b 367 93 218 149 263 93 b 499 117 422 93 468 101 b 515 149 513 124 515 132 l 515 683 b 546 717 515 708 524 717 l 610 717 b 639 683 632 717 639 708 l 639 103 b 592 26 639 60 629 43 b 350 -21 543 4 469 -21 "},"ũ":{"ha":739,"x_min":0,"x_max":0,"o":"m 182 840 b 161 861 167 840 161 847 b 268 1007 161 965 200 1007 b 447 921 361 1007 386 921 b 489 986 475 921 489 944 b 508 1007 489 1001 493 1007 l 544 1007 b 565 986 560 1007 565 1001 b 456 840 565 885 531 840 b 279 928 369 840 342 928 b 238 861 253 928 238 904 b 218 840 238 847 232 840 l 182 840 m 350 -21 b 94 254 175 -21 94 82 l 94 683 b 125 717 94 708 103 717 l 189 717 b 218 683 211 717 218 708 l 218 258 b 367 93 218 149 263 93 b 499 117 422 93 468 101 b 515 149 513 124 515 132 l 515 683 b 546 717 515 708 524 717 l 610 717 b 639 683 632 717 639 708 l 639 103 b 592 26 639 60 629 43 b 350 -21 543 4 469 -21 "},"v":{"ha":678,"x_min":0,"x_max":0,"o":"m 307 -3 b 265 28 285 -3 272 4 l 36 678 b 60 717 26 707 31 717 l 113 717 b 164 683 147 717 156 710 l 301 281 b 339 138 315 236 329 176 l 343 138 b 379 281 353 176 367 236 l 515 683 b 565 717 524 710 529 717 l 618 717 b 643 678 647 717 653 708 l 411 28 b 369 -3 403 4 392 -3 l 307 -3 "},"w":{"ha":990,"x_min":0,"x_max":0,"o":"m 264 -3 b 222 26 242 -3 229 3 l 46 678 b 72 717 38 708 42 717 l 124 717 b 178 683 161 717 172 711 l 271 306 b 294 149 281 263 288 196 l 301 149 b 329 307 307 193 318 261 l 428 672 b 479 706 435 700 442 706 l 515 706 b 565 674 551 706 560 700 l 665 311 b 694 149 678 260 688 193 l 700 149 b 725 308 706 190 713 253 l 818 683 b 872 717 824 711 833 717 l 918 717 b 944 678 949 717 953 708 l 768 26 b 725 -3 763 4 749 -3 l 669 -3 b 626 26 647 -3 633 4 l 519 438 b 496 565 510 482 501 533 l 492 565 b 465 438 485 533 476 482 l 358 26 b 317 -3 354 3 340 -3 l 264 -3 "},"ẃ":{"ha":990,"x_min":0,"x_max":0,"o":"m 414 832 b 371 833 393 824 381 821 l 356 853 b 358 890 342 871 342 881 l 551 1021 b 613 1018 574 1033 594 1040 l 640 986 b 636 947 657 967 657 957 l 414 832 m 264 -3 b 222 26 242 -3 229 3 l 46 678 b 72 717 38 708 42 717 l 124 717 b 178 683 161 717 172 711 l 271 306 b 294 149 281 263 288 196 l 301 149 b 329 307 307 193 318 261 l 428 672 b 479 706 435 700 442 706 l 515 706 b 565 674 551 706 560 700 l 665 311 b 694 149 678 260 688 193 l 700 149 b 725 308 706 190 713 253 l 818 683 b 872 717 824 711 833 717 l 918 717 b 944 678 949 717 953 708 l 768 26 b 725 -3 763 4 749 -3 l 669 -3 b 626 26 647 -3 633 4 l 519 438 b 496 565 510 482 501 533 l 492 565 b 465 438 485 533 476 482 l 358 26 b 317 -3 354 3 340 -3 l 264 -3 "},"ŵ":{"ha":990,"x_min":0,"x_max":0,"o":"m 300 824 b 285 850 272 824 271 836 l 431 993 b 494 1022 457 1021 463 1022 l 507 1022 b 568 993 533 1022 540 1022 l 713 850 b 696 824 725 836 725 824 l 647 824 b 594 842 621 824 610 825 l 499 942 l 397 842 b 346 824 381 825 374 824 l 300 824 m 264 -3 b 222 26 242 -3 229 3 l 46 678 b 72 717 38 708 42 717 l 124 717 b 178 683 161 717 172 711 l 271 306 b 294 149 281 263 288 196 l 301 149 b 329 307 307 193 318 261 l 428 672 b 479 706 435 700 442 706 l 515 706 b 565 674 551 706 560 700 l 665 311 b 694 149 678 260 688 193 l 700 149 b 725 308 706 190 713 253 l 818 683 b 872 717 824 711 833 717 l 918 717 b 944 678 949 717 953 708 l 768 26 b 725 -3 763 4 749 -3 l 669 -3 b 626 26 647 -3 633 4 l 519 438 b 496 565 510 482 501 533 l 492 565 b 465 438 485 533 476 482 l 358 26 b 317 -3 354 3 340 -3 l 264 -3 "},"ẅ":{"ha":990,"x_min":0,"x_max":0,"o":"m 361 856 b 301 915 317 856 301 869 l 301 925 b 361 985 301 969 315 985 l 369 985 b 429 925 414 985 429 969 l 429 915 b 369 856 429 871 414 856 l 361 856 m 621 856 b 561 915 576 856 561 869 l 561 925 b 621 985 561 969 576 985 l 629 985 b 689 925 675 985 689 969 l 689 915 b 629 856 689 871 675 856 l 621 856 m 264 -3 b 222 26 242 -3 229 3 l 46 678 b 72 717 38 708 42 717 l 124 717 b 178 683 161 717 172 711 l 271 306 b 294 149 281 263 288 196 l 301 149 b 329 307 307 193 318 261 l 428 672 b 479 706 435 700 442 706 l 515 706 b 565 674 551 706 560 700 l 665 311 b 694 149 678 260 688 193 l 700 149 b 725 308 706 190 713 253 l 818 683 b 872 717 824 711 833 717 l 918 717 b 944 678 949 717 953 708 l 768 26 b 725 -3 763 4 749 -3 l 669 -3 b 626 26 647 -3 633 4 l 519 438 b 496 565 510 482 501 533 l 492 565 b 465 438 485 533 476 482 l 358 26 b 317 -3 354 3 340 -3 l 264 -3 "},"ẁ":{"ha":990,"x_min":0,"x_max":0,"o":"m 361 947 b 357 985 340 956 342 965 l 385 1018 b 446 1019 403 1039 424 1032 l 639 889 b 642 853 656 879 656 871 l 626 833 b 583 831 617 821 604 822 m 264 -3 b 222 26 242 -3 229 3 l 46 678 b 72 717 38 708 42 717 l 124 717 b 178 683 161 717 172 711 l 271 306 b 294 149 281 263 288 196 l 301 149 b 329 307 307 193 318 261 l 428 672 b 479 706 435 700 442 706 l 515 706 b 565 674 551 706 560 700 l 665 311 b 694 149 678 260 688 193 l 700 149 b 725 308 706 190 713 253 l 818 683 b 872 717 824 711 833 717 l 918 717 b 944 678 949 717 953 708 l 768 26 b 725 -3 763 4 749 -3 l 669 -3 b 626 26 647 -3 633 4 l 519 438 b 496 565 510 482 501 533 l 492 565 b 465 438 485 533 476 482 l 358 26 b 317 -3 354 3 340 -3 l 264 -3 "},"x":{"ha":660,"x_min":0,"x_max":0,"o":"m 64 0 b 43 39 31 0 28 13 l 249 367 l 53 679 b 76 717 40 701 42 717 l 135 717 b 188 689 167 717 176 713 l 332 453 l 474 689 b 522 717 485 713 492 717 l 588 717 b 607 679 617 717 622 704 l 415 369 l 619 39 b 599 0 633 13 629 0 l 535 0 b 483 28 503 0 496 4 l 331 283 l 179 28 b 126 0 167 3 158 0 l 64 0 "},"y":{"ha":742,"x_min":0,"x_max":0,"o":"m 367 -336 b 111 -194 232 -336 156 -281 b 125 -142 99 -171 101 -154 l 168 -119 b 215 -135 193 -107 203 -111 b 364 -225 243 -192 290 -225 b 517 -44 472 -225 517 -161 l 517 35 b 350 6 481 22 431 6 b 94 281 175 6 94 107 l 94 683 b 125 717 94 708 103 717 l 189 717 b 218 683 211 717 218 708 l 218 285 b 367 118 218 174 263 118 b 515 147 438 118 485 135 l 515 683 b 546 717 515 708 524 717 l 610 717 b 639 683 632 717 639 708 l 639 -35 b 367 -336 639 -215 563 -336 "},"ý":{"ha":742,"x_min":0,"x_max":0,"o":"m 283 832 b 240 833 263 824 250 821 l 225 853 b 228 890 211 871 211 881 l 421 1021 b 482 1018 443 1033 464 1040 l 510 986 b 506 947 526 967 526 957 l 283 832 m 367 -336 b 111 -194 232 -336 156 -281 b 125 -142 99 -171 101 -154 l 168 -119 b 215 -135 193 -107 203 -111 b 364 -225 243 -192 290 -225 b 517 -44 472 -225 517 -161 l 517 35 b 350 6 481 22 431 6 b 94 281 175 6 94 107 l 94 683 b 125 717 94 708 103 717 l 189 717 b 218 683 211 717 218 708 l 218 285 b 367 118 218 174 263 118 b 515 147 438 118 485 135 l 515 683 b 546 717 515 708 524 717 l 610 717 b 639 683 632 717 639 708 l 639 -35 b 367 -336 639 -215 563 -336 "},"ŷ":{"ha":742,"x_min":0,"x_max":0,"o":"m 169 824 b 154 850 142 824 140 836 l 300 993 b 364 1022 326 1021 332 1022 l 376 1022 b 438 993 403 1022 410 1022 l 582 850 b 565 824 594 836 594 824 l 517 824 b 464 842 490 824 479 825 l 368 942 l 267 842 b 215 824 250 825 243 824 l 169 824 m 367 -336 b 111 -194 232 -336 156 -281 b 125 -142 99 -171 101 -154 l 168 -119 b 215 -135 193 -107 203 -111 b 364 -225 243 -192 290 -225 b 517 -44 472 -225 517 -161 l 517 35 b 350 6 481 22 431 6 b 94 281 175 6 94 107 l 94 683 b 125 717 94 708 103 717 l 189 717 b 218 683 211 717 218 708 l 218 285 b 367 118 218 174 263 118 b 515 147 438 118 485 135 l 515 683 b 546 717 515 708 524 717 l 610 717 b 639 683 632 717 639 708 l 639 -35 b 367 -336 639 -215 563 -336 "},"ÿ":{"ha":742,"x_min":0,"x_max":0,"o":"m 231 856 b 171 915 186 856 171 869 l 171 925 b 231 985 171 969 185 985 l 239 985 b 299 925 283 985 299 969 l 299 915 b 239 856 299 871 283 856 l 231 856 m 490 856 b 431 915 446 856 431 869 l 431 925 b 490 985 431 969 446 985 l 499 985 b 558 925 544 985 558 969 l 558 915 b 499 856 558 871 544 856 l 490 856 m 367 -336 b 111 -194 232 -336 156 -281 b 125 -142 99 -171 101 -154 l 168 -119 b 215 -135 193 -107 203 -111 b 364 -225 243 -192 290 -225 b 517 -44 472 -225 517 -161 l 517 35 b 350 6 481 22 431 6 b 94 281 175 6 94 107 l 94 683 b 125 717 94 708 103 717 l 189 717 b 218 683 211 717 218 708 l 218 285 b 367 118 218 174 263 118 b 515 147 438 118 485 135 l 515 683 b 546 717 515 708 524 717 l 610 717 b 639 683 632 717 639 708 l 639 -35 b 367 -336 639 -215 563 -336 "},"ỳ":{"ha":742,"x_min":0,"x_max":0,"o":"m 231 947 b 226 985 210 956 211 965 l 254 1018 b 315 1019 272 1039 293 1032 l 508 889 b 511 853 525 879 525 871 l 496 833 b 453 831 486 821 474 822 m 367 -336 b 111 -194 232 -336 156 -281 b 125 -142 99 -171 101 -154 l 168 -119 b 215 -135 193 -107 203 -111 b 364 -225 243 -192 290 -225 b 517 -44 472 -225 517 -161 l 517 35 b 350 6 481 22 431 6 b 94 281 175 6 94 107 l 94 683 b 125 717 94 708 103 717 l 189 717 b 218 683 211 717 218 708 l 218 285 b 367 118 218 174 263 118 b 515 147 438 118 485 135 l 515 683 b 546 717 515 708 524 717 l 610 717 b 639 683 632 717 639 708 l 639 -35 b 367 -336 639 -215 563 -336 "},"z":{"ha":611,"x_min":0,"x_max":0,"o":"m 88 0 b 57 33 64 0 57 8 l 57 79 b 68 114 57 96 60 100 l 396 606 l 92 606 b 63 638 71 606 63 613 l 63 683 b 92 717 63 708 71 717 l 518 717 b 547 683 540 717 547 708 l 547 638 b 533 600 547 621 543 613 l 203 113 l 525 113 b 556 79 547 113 556 104 l 556 33 b 525 0 556 8 547 0 l 88 0 "},"ź":{"ha":611,"x_min":0,"x_max":0,"o":"m 224 832 b 181 833 203 824 190 821 l 165 853 b 168 890 151 871 151 881 l 361 1021 b 422 1018 383 1033 404 1040 l 450 986 b 446 947 467 967 467 957 l 224 832 m 88 0 b 57 33 64 0 57 8 l 57 79 b 68 114 57 96 60 100 l 396 606 l 92 606 b 63 638 71 606 63 613 l 63 683 b 92 717 63 708 71 717 l 518 717 b 547 683 540 717 547 708 l 547 638 b 533 600 547 621 543 613 l 203 113 l 525 113 b 556 79 547 113 556 104 l 556 33 b 525 0 556 8 547 0 l 88 0 "},"ž":{"ha":611,"x_min":0,"x_max":0,"o":"m 301 822 b 238 851 271 822 264 824 l 93 994 b 108 1021 79 1008 81 1021 l 154 1021 b 206 1003 181 1021 189 1021 l 304 903 l 403 1003 b 456 1021 418 1019 429 1021 l 504 1021 b 521 994 533 1021 533 1008 l 375 851 b 314 822 347 822 340 822 l 301 822 m 88 0 b 57 33 64 0 57 8 l 57 79 b 68 114 57 96 60 100 l 396 606 l 92 606 b 63 638 71 606 63 613 l 63 683 b 92 717 63 708 71 717 l 518 717 b 547 683 540 717 547 708 l 547 638 b 533 600 547 621 543 613 l 203 113 l 525 113 b 556 79 547 113 556 104 l 556 33 b 525 0 556 8 547 0 l 88 0 "},"ż":{"ha":611,"x_min":0,"x_max":0,"o":"m 286 854 b 236 914 247 854 236 865 l 236 931 b 286 992 236 976 249 992 l 329 992 b 379 931 368 992 379 976 l 379 914 b 329 854 379 867 368 854 l 286 854 m 88 0 b 57 33 64 0 57 8 l 57 79 b 68 114 57 96 60 100 l 396 606 l 92 606 b 63 638 71 606 63 613 l 63 683 b 92 717 63 708 71 717 l 518 717 b 547 683 540 717 547 708 l 547 638 b 533 600 547 621 543 613 l 203 113 l 525 113 b 556 79 547 113 556 104 l 556 33 b 525 0 556 8 547 0 l 88 0 "},"ﬁ":{"ha":746,"x_min":0,"x_max":0,"o":"m 175 0 b 143 33 151 0 143 8 l 143 603 l 58 603 b 28 635 35 603 28 611 l 28 683 b 58 717 28 708 35 717 l 143 717 l 143 743 b 413 1028 143 942 224 1028 l 622 1028 b 653 994 646 1028 653 1019 l 653 949 b 622 915 653 924 646 915 l 418 915 b 267 747 307 915 267 872 l 267 717 l 622 717 b 653 683 646 717 653 708 l 653 33 b 622 0 653 8 646 0 l 560 0 b 529 33 538 0 529 8 l 529 603 l 267 603 l 267 33 b 235 0 267 8 258 0 l 175 0 "},"ﬂ":{"ha":760,"x_min":0,"x_max":0,"o":"m 174 0 b 142 33 149 0 142 8 l 142 603 l 58 603 b 28 635 35 603 28 611 l 28 683 b 58 717 28 708 35 717 l 142 717 l 142 744 b 417 1028 142 939 224 1028 l 624 1028 b 654 994 646 1028 654 1019 l 654 33 b 624 0 654 8 646 0 l 561 0 b 531 33 538 0 531 8 l 531 914 l 421 914 b 265 753 307 914 265 879 l 265 717 l 386 717 b 418 683 410 717 418 708 l 418 635 b 386 603 418 611 410 603 l 265 603 l 265 33 b 235 0 265 8 258 0 l 174 0 "},"ª":{"ha":497,"x_min":0,"x_max":0,"o":"m 244 493 b 85 618 121 493 85 542 b 247 747 85 700 124 747 b 310 743 276 747 299 746 l 310 767 b 243 850 310 821 289 850 b 164 807 204 850 183 835 b 135 801 156 796 147 793 l 106 817 b 99 854 89 825 86 836 b 249 931 131 907 185 931 b 406 758 368 931 406 861 l 406 583 b 364 514 406 542 396 529 b 244 493 338 501 299 493 m 242 567 b 297 576 268 567 286 571 b 310 601 307 582 310 585 l 310 674 b 243 678 296 675 275 678 b 175 621 190 678 175 657 b 242 567 175 585 193 567 "},"º":{"ha":503,"x_min":0,"x_max":0,"o":"m 250 494 b 83 661 142 494 83 557 l 83 763 b 250 931 83 867 142 931 b 419 763 363 931 419 867 l 419 661 b 250 494 419 557 363 494 m 250 582 b 324 658 300 582 324 611 l 324 767 b 250 843 324 814 300 843 b 179 767 204 843 179 814 l 179 658 b 250 582 179 611 204 582 "},"А":{"ha":874,"x_min":0,"x_max":0,"o":"m 53 0 b 31 36 26 0 22 13 l 360 958 b 403 989 368 983 379 989 l 471 989 b 514 960 494 989 506 983 l 843 36 b 819 0 851 13 846 0 l 756 0 b 699 32 718 0 706 7 l 622 257 l 247 257 l 169 32 b 113 0 163 7 150 0 l 53 0 m 585 369 l 464 735 b 438 857 450 782 440 832 l 431 857 b 406 735 428 831 419 781 l 283 369 "},"Б":{"ha":850,"x_min":0,"x_max":0,"o":"m 150 0 b 117 35 126 0 117 8 l 117 950 b 151 986 117 976 125 986 l 694 986 b 728 950 721 986 728 976 l 728 899 b 694 861 728 871 721 861 l 251 861 l 251 578 l 510 578 b 792 292 682 578 792 476 b 510 0 792 110 682 0 l 150 0 m 503 122 b 658 292 597 122 658 188 b 503 463 658 399 597 463 l 251 463 l 251 122 "},"В":{"ha":871,"x_min":0,"x_max":0,"o":"m 151 0 b 117 36 125 0 117 10 l 117 950 b 151 986 117 976 125 986 l 496 986 b 765 728 657 986 765 892 b 653 513 765 619 726 553 l 653 510 b 799 268 744 475 799 397 b 518 0 799 94 689 0 l 151 0 m 493 558 b 635 711 581 558 635 608 b 492 864 635 814 579 864 l 251 864 l 251 558 m 513 122 b 665 283 604 122 665 176 b 515 444 665 389 607 444 l 251 444 l 251 122 "},"Г":{"ha":689,"x_min":0,"x_max":0,"o":"m 150 0 b 117 36 125 0 117 10 l 117 950 b 150 986 117 976 125 986 l 621 986 b 654 950 646 986 654 976 l 654 899 b 621 863 654 872 646 863 l 251 863 l 251 36 b 218 0 251 10 243 0 l 150 0 "},"Д":{"ha":963,"x_min":0,"x_max":0,"o":"m 72 -212 b 38 -176 46 -212 38 -203 l 38 88 b 72 125 38 115 46 125 l 110 125 b 235 665 169 167 235 254 l 235 950 b 269 986 235 976 243 986 l 782 986 b 817 950 808 986 817 976 l 817 125 l 886 125 b 921 88 913 125 921 115 l 921 -176 b 886 -212 921 -203 913 -212 l 826 -212 b 792 -176 800 -212 792 -203 l 792 0 l 168 0 l 168 -176 b 133 -212 168 -203 158 -212 l 72 -212 m 683 125 l 683 861 l 363 861 l 363 667 b 256 125 363 322 313 199 "},"Е":{"ha":774,"x_min":0,"x_max":0,"o":"m 151 0 b 117 36 125 0 117 10 l 117 950 b 151 986 117 976 125 986 l 661 986 b 694 950 686 986 694 976 l 694 899 b 661 861 694 871 686 861 l 251 861 l 251 563 l 603 563 b 635 525 626 563 635 553 l 635 474 b 603 438 635 446 626 438 l 251 438 l 251 125 l 675 125 b 710 88 701 125 710 115 l 710 36 b 675 0 710 10 701 0 l 151 0 "},"Ё":{"ha":774,"x_min":0,"x_max":0,"o":"m 271 1089 b 214 1146 228 1089 214 1103 l 214 1158 b 271 1215 214 1200 228 1215 l 281 1215 b 338 1158 325 1215 338 1200 l 338 1146 b 281 1089 338 1103 325 1089 l 271 1089 m 533 1089 b 475 1146 489 1089 475 1103 l 475 1158 b 533 1215 475 1200 489 1215 l 543 1215 b 600 1158 586 1215 600 1200 l 600 1146 b 543 1089 600 1103 586 1089 l 533 1089 m 151 0 b 117 36 125 0 117 10 l 117 950 b 151 986 117 976 125 986 l 661 986 b 694 950 686 986 694 976 l 694 899 b 661 861 694 871 686 861 l 251 861 l 251 563 l 603 563 b 635 525 626 563 635 553 l 635 474 b 603 438 635 446 626 438 l 251 438 l 251 125 l 675 125 b 710 88 701 125 710 115 l 710 36 b 675 0 710 10 701 0 l 151 0 "},"Ж":{"ha":1240,"x_min":0,"x_max":0,"o":"m 60 0 b 42 38 33 0 32 17 l 203 378 b 319 519 235 444 269 492 l 56 951 b 74 986 44 969 49 986 l 140 986 b 210 956 182 986 196 983 l 443 558 b 492 561 458 561 474 561 l 553 561 l 553 950 b 588 986 553 976 561 986 l 651 986 b 686 950 678 986 686 976 l 686 561 l 749 561 b 797 558 765 561 782 561 l 1029 956 b 1099 986 1044 983 1057 986 l 1165 986 b 1183 951 1190 986 1196 969 l 919 519 b 1038 378 971 492 1006 444 l 1199 38 b 1179 0 1208 17 1206 0 l 1118 0 b 1050 32 1075 0 1063 6 l 915 329 b 753 439 878 411 842 439 l 686 439 l 686 36 b 651 0 686 10 678 0 l 588 0 b 553 36 561 0 553 10 l 553 439 l 488 439 b 325 329 399 439 363 411 l 189 32 b 122 0 176 6 165 0 l 60 0 "},"З":{"ha":844,"x_min":0,"x_max":0,"o":"m 432 -21 b 65 218 219 -21 113 65 b 86 265 56 244 63 257 l 146 285 b 189 261 171 293 179 288 b 432 104 218 157 289 104 b 629 282 572 104 629 174 b 475 442 629 376 578 442 l 296 442 b 263 478 271 442 263 451 l 263 526 b 296 563 263 554 271 563 l 469 563 b 607 715 564 563 607 625 b 424 882 607 824 543 882 b 193 729 289 882 225 835 b 149 706 183 703 174 697 l 97 724 b 75 771 72 732 67 744 b 426 1007 122 924 217 1007 b 742 726 628 1007 742 903 b 632 513 742 629 710 554 b 769 272 735 468 769 379 b 432 -21 769 93 660 -21 "},"И":{"ha":940,"x_min":0,"x_max":0,"o":"m 153 0 b 118 36 126 0 118 10 l 117 950 b 150 986 117 976 125 986 l 218 986 b 251 950 243 986 251 976 l 251 479 b 235 179 251 369 251 288 l 242 179 b 365 443 282 281 314 351 l 676 968 b 708 986 682 981 690 986 l 788 986 b 822 950 813 986 822 976 l 824 36 b 789 0 824 10 815 0 l 722 0 b 689 36 699 0 689 10 l 689 517 b 707 806 689 622 692 704 l 701 806 b 581 554 660 704 628 638 l 263 18 b 229 0 254 4 246 0 l 153 0 "},"Й":{"ha":911,"x_min":0,"x_max":0,"o":"m 479 1071 b 260 1221 369 1071 292 1124 b 276 1253 254 1239 258 1246 l 322 1269 b 360 1257 342 1274 351 1272 b 479 1163 378 1194 418 1163 b 601 1257 540 1163 582 1194 b 632 1269 608 1272 617 1274 l 685 1253 b 701 1221 703 1246 708 1239 b 479 1071 668 1124 590 1071 m 153 0 b 118 36 126 0 118 10 l 117 950 b 150 986 117 976 125 986 l 218 986 b 251 950 243 986 251 976 l 251 479 b 235 179 251 369 251 288 l 242 179 b 365 443 282 281 314 351 l 676 968 b 708 986 682 981 690 986 l 788 986 b 822 950 813 986 822 976 l 824 36 b 789 0 824 10 815 0 l 722 0 b 689 36 699 0 689 10 l 689 517 b 707 806 689 622 692 704 l 701 806 b 581 554 660 704 628 638 l 263 18 b 229 0 254 4 246 0 l 153 0 "},"К":{"ha":831,"x_min":0,"x_max":0,"o":"m 151 0 b 117 36 125 0 117 10 l 117 950 b 151 986 117 976 125 986 l 217 986 b 251 950 243 986 251 976 l 251 561 l 354 561 l 376 561 l 625 956 b 683 986 640 982 649 986 l 758 986 b 776 951 782 986 788 969 l 501 535 b 632 379 560 510 594 457 l 790 38 b 769 0 800 15 796 0 l 700 0 b 644 32 664 0 657 4 l 513 329 b 365 439 476 410 449 439 l 251 439 l 251 36 b 217 0 251 10 243 0 l 151 0 "},"Л":{"ha":892,"x_min":0,"x_max":0,"o":"m 104 -14 b 57 3 81 -25 71 -22 l 26 57 b 40 106 11 81 18 93 b 201 632 146 164 200 188 l 203 950 b 236 986 203 976 211 986 l 740 986 b 774 950 765 986 774 976 l 774 36 b 740 0 774 10 765 0 l 674 0 b 640 36 649 0 640 10 l 640 861 l 331 861 l 331 633 b 104 -14 331 132 240 54 "},"М":{"ha":1092,"x_min":0,"x_max":0,"o":"m 151 0 b 117 36 125 0 117 10 l 117 950 b 151 986 117 976 125 986 l 208 986 b 257 958 236 986 247 981 l 546 376 l 832 957 b 878 986 843 981 851 986 l 939 986 b 974 950 965 986 974 976 l 974 36 b 939 0 974 10 965 0 l 881 0 b 846 36 854 0 846 10 l 846 539 b 867 799 846 615 851 697 l 860 799 b 763 567 828 707 800 640 l 606 256 b 565 229 596 235 588 229 l 525 229 b 485 256 503 229 494 233 l 322 568 b 231 800 286 642 261 706 l 224 800 b 243 539 239 697 243 621 l 243 36 b 210 0 243 10 235 0 l 151 0 "},"Н":{"ha":922,"x_min":0,"x_max":0,"o":"m 151 0 b 117 36 125 0 117 10 l 117 950 b 151 986 117 976 125 986 l 217 986 b 251 950 243 986 251 976 l 251 563 l 672 563 l 672 950 b 706 986 672 976 679 986 l 771 986 b 806 950 797 986 806 976 l 806 36 b 771 0 806 10 797 0 l 706 0 b 672 36 679 0 672 10 l 672 438 l 251 438 l 251 36 b 217 0 251 10 243 0 l 151 0 "},"О":{"ha":899,"x_min":0,"x_max":0,"o":"m 450 -21 b 89 335 217 -21 89 115 l 89 651 b 450 1007 89 871 217 1007 b 810 651 682 1007 810 871 l 810 335 b 450 -21 810 115 682 -21 m 450 104 b 676 335 597 104 676 188 l 676 651 b 450 882 676 799 597 882 b 222 651 301 882 222 799 l 222 335 b 450 104 222 188 301 104 "},"П":{"ha":914,"x_min":0,"x_max":0,"o":"m 151 0 b 117 36 125 0 117 10 l 117 950 b 151 986 117 976 125 986 l 764 986 b 797 950 789 986 797 976 l 797 36 b 764 0 797 10 789 0 l 697 0 b 664 36 672 0 664 10 l 664 861 l 251 861 l 251 36 b 217 0 251 10 243 0 l 151 0 "},"Р":{"ha":844,"x_min":0,"x_max":0,"o":"m 151 0 b 117 36 125 0 117 10 l 117 950 b 151 986 117 976 125 986 l 489 986 b 789 671 671 986 789 868 b 490 358 789 475 672 358 l 251 358 l 251 36 b 217 0 251 10 243 0 l 151 0 m 483 482 b 654 671 590 482 654 551 b 483 861 654 792 590 861 l 251 861 l 251 482 "},"С":{"ha":858,"x_min":0,"x_max":0,"o":"m 449 -21 b 89 335 217 -21 89 115 l 89 651 b 449 1007 89 871 215 1007 b 794 771 642 1007 747 924 b 774 725 804 744 797 732 l 714 707 b 671 729 689 699 679 703 b 449 882 640 833 575 882 b 222 653 297 882 222 799 l 222 333 b 449 104 222 189 297 106 b 668 261 575 104 636 158 b 713 285 678 288 689 293 l 775 264 b 796 218 799 257 804 244 b 449 -21 747 65 643 -21 "},"Т":{"ha":739,"x_min":0,"x_max":0,"o":"m 336 0 b 303 35 313 0 303 7 l 303 861 l 67 861 b 33 899 42 861 33 871 l 33 950 b 67 986 33 976 42 986 l 672 986 b 707 950 699 986 707 976 l 707 899 b 672 861 707 871 699 861 l 436 861 l 436 35 b 403 0 436 7 428 0 l 336 0 "},"У":{"ha":804,"x_min":0,"x_max":0,"o":"m 236 0 b 218 36 211 0 208 15 l 332 285 l 26 950 b 44 986 15 971 19 986 l 108 986 b 171 954 149 986 157 986 l 401 429 l 639 954 b 690 986 650 981 653 986 l 758 986 b 776 950 783 986 785 971 l 367 32 b 310 0 354 6 346 0 l 236 0 "},"Ф":{"ha":1119,"x_min":0,"x_max":0,"o":"m 528 -29 b 494 7 501 -29 494 -21 l 494 90 l 422 90 b 69 443 193 90 69 224 l 69 550 b 422 903 69 769 193 903 l 494 903 l 494 985 b 528 1021 494 1011 501 1021 l 592 1021 b 625 985 618 1021 625 1011 l 625 903 l 697 903 b 1050 550 926 903 1050 769 l 1050 443 b 697 90 1050 224 926 90 l 625 90 l 625 7 b 592 -29 625 -21 618 -29 l 528 -29 m 494 211 l 494 782 l 424 782 b 203 556 276 782 203 701 l 203 438 b 424 211 203 292 276 211 m 696 211 b 917 438 843 211 917 292 l 917 556 b 696 782 917 701 843 782 l 625 782 l 625 211 "},"Х":{"ha":840,"x_min":0,"x_max":0,"o":"m 57 0 b 40 38 31 0 26 17 l 332 504 l 49 951 b 67 986 39 969 43 986 l 140 986 b 206 956 181 986 190 985 l 419 608 l 635 956 b 693 986 649 983 656 986 l 774 986 b 792 951 797 986 801 969 l 504 506 l 801 38 b 785 0 814 18 811 0 l 704 0 b 646 32 665 0 661 3 l 417 403 l 196 32 b 140 0 181 3 172 0 l 57 0 "},"Ч":{"ha":854,"x_min":0,"x_max":0,"o":"m 638 0 b 604 36 613 0 604 10 l 604 390 b 397 365 571 382 499 365 b 68 706 158 365 68 489 l 68 950 b 101 986 68 976 76 986 l 168 986 b 201 950 193 986 201 976 l 201 706 b 410 490 201 558 258 490 b 604 517 506 490 575 508 l 604 950 b 638 986 604 976 613 986 l 704 986 b 738 950 729 986 738 976 l 738 36 b 704 0 738 10 729 0 l 638 0 "},"Ц":{"ha":949,"x_min":0,"x_max":0,"o":"m 810 -212 b 776 -176 785 -212 776 -203 l 776 0 l 151 0 b 117 36 125 0 117 10 l 117 950 b 151 986 117 976 125 986 l 217 986 b 251 950 243 986 251 976 l 251 125 l 667 125 l 667 950 b 701 986 667 976 675 986 l 765 986 b 801 950 792 986 801 976 l 801 125 l 869 125 b 904 88 896 125 904 115 l 904 -176 b 869 -212 904 -203 896 -212 l 810 -212 "},"Ш":{"ha":1249,"x_min":0,"x_max":0,"o":"m 151 0 b 117 36 125 0 117 10 l 117 950 b 151 986 117 976 125 986 l 215 986 b 251 950 242 986 251 976 l 251 125 l 558 125 l 558 950 b 593 986 558 976 568 986 l 657 986 b 692 950 682 986 692 976 l 692 125 l 999 125 l 999 950 b 1033 986 999 976 1007 986 l 1097 986 b 1132 950 1124 986 1132 976 l 1132 36 b 1097 0 1132 10 1124 0 l 151 0 "},"Щ":{"ha":1288,"x_min":0,"x_max":0,"o":"m 1150 -212 b 1115 -176 1124 -212 1115 -203 l 1115 0 l 151 0 b 117 36 126 0 117 10 l 117 950 b 151 986 117 976 126 986 l 217 986 b 251 950 243 986 251 976 l 251 125 l 563 125 l 563 950 b 597 986 563 976 571 986 l 660 986 b 694 950 686 986 694 976 l 694 125 l 1004 125 l 1004 950 b 1039 986 1004 976 1014 986 l 1103 986 b 1138 950 1129 986 1138 976 l 1138 125 l 1208 125 b 1243 88 1235 125 1243 115 l 1243 -176 b 1208 -212 1243 -203 1235 -212 l 1150 -212 "},"Ь":{"ha":844,"x_min":0,"x_max":0,"o":"m 151 0 b 117 36 125 0 117 10 l 117 950 b 151 986 117 976 125 986 l 217 986 b 251 950 243 986 251 976 l 251 628 l 493 628 b 789 315 675 628 789 511 b 492 0 789 118 672 0 l 151 0 m 488 125 b 656 315 592 125 656 194 b 488 504 656 435 592 504 l 251 504 l 251 125 "},"Ъ":{"ha":986,"x_min":0,"x_max":0,"o":"m 281 0 b 246 36 256 0 246 10 l 246 861 l 68 861 b 33 899 42 861 33 871 l 33 950 b 68 986 33 976 42 986 l 346 986 b 379 950 371 986 379 976 l 379 628 l 629 628 b 932 315 814 628 932 511 b 629 0 932 118 814 0 l 281 0 m 624 125 b 799 315 733 125 799 194 b 624 504 799 435 733 504 l 379 504 l 379 125 "},"Ы":{"ha":1193,"x_min":0,"x_max":0,"o":"m 151 0 b 117 36 125 0 117 10 l 117 950 b 151 986 117 976 125 986 l 217 986 b 251 950 243 986 251 976 l 251 626 l 499 626 b 800 315 683 626 800 513 b 499 0 800 119 682 0 l 151 0 m 976 0 b 943 36 951 0 943 10 l 943 950 b 976 986 943 976 951 986 l 1043 986 b 1076 950 1068 986 1076 976 l 1076 36 b 1043 0 1076 10 1068 0 l 976 0 m 493 125 b 667 315 601 125 667 196 b 493 506 667 435 601 506 l 251 506 l 251 125 "},"Э":{"ha":864,"x_min":0,"x_max":0,"o":"m 417 -21 b 68 218 219 -21 114 64 b 89 265 60 244 65 257 l 149 286 b 193 261 174 293 183 288 b 417 104 224 157 292 104 b 642 333 565 104 642 188 l 642 438 l 308 438 b 274 474 283 438 274 446 l 274 525 b 308 561 274 553 283 561 l 642 561 l 642 654 b 417 882 642 799 567 882 b 192 729 294 882 222 833 b 147 706 182 703 172 699 l 92 725 b 69 771 68 733 61 746 b 417 1007 117 924 224 1007 b 776 653 650 1007 776 871 l 776 335 b 417 -21 776 115 647 -21 "},"Ю":{"ha":1260,"x_min":0,"x_max":0,"o":"m 810 -21 b 449 333 576 -21 449 115 l 449 438 l 251 438 l 251 36 b 217 0 251 10 242 0 l 151 0 b 117 36 126 0 117 10 l 117 950 b 151 986 117 976 126 986 l 217 986 b 251 950 242 986 251 976 l 251 563 l 449 563 l 449 653 b 810 1007 449 871 576 1007 b 1171 653 1044 1007 1171 871 l 1171 333 b 810 -21 1171 115 1044 -21 m 810 104 b 1038 333 960 104 1038 188 l 1038 653 b 810 882 1038 799 960 882 b 581 653 658 882 581 799 l 581 333 b 810 104 581 188 658 104 "},"Я":{"ha":869,"x_min":0,"x_max":0,"o":"m 89 0 b 68 38 63 0 58 15 l 201 335 b 272 419 217 372 238 401 b 90 690 157 450 90 543 b 374 986 90 878 200 986 l 718 986 b 753 950 744 986 753 976 l 753 36 b 718 0 753 10 744 0 l 653 0 b 619 36 628 0 619 10 l 619 397 l 476 397 b 322 286 392 397 358 368 l 213 32 b 147 0 201 6 189 0 l 89 0 m 619 521 l 619 861 l 375 861 b 224 690 281 861 224 800 b 375 521 224 582 282 521 "},"а":{"ha":689,"x_min":0,"x_max":0,"o":"m 339 -21 b 63 200 144 -21 63 49 b 342 417 63 351 146 417 b 478 407 396 417 458 408 l 478 474 b 339 628 478 586 438 628 b 189 540 264 628 217 596 b 146 525 178 519 167 515 l 107 543 b 90 590 85 553 78 565 b 339 738 133 681 211 738 b 600 469 532 738 600 639 l 600 94 b 556 15 600 46 590 32 b 339 -21 510 -7 436 -21 m 331 82 b 460 100 388 82 432 89 b 478 131 475 106 478 111 l 478 308 b 335 318 453 311 389 318 b 186 200 232 318 186 281 b 331 82 186 119 231 82 "},"б":{"ha":742,"x_min":0,"x_max":0,"o":"m 381 -21 b 94 256 193 -21 94 85 l 94 601 b 440 1015 94 885 185 1015 l 482 1015 b 578 1032 524 1015 560 1022 b 621 1011 601 1044 610 1038 l 638 971 b 619 925 647 946 639 938 b 489 900 588 907 549 900 l 442 900 b 213 628 275 900 213 829 l 213 606 b 401 701 238 643 297 701 b 667 431 574 701 667 601 l 667 256 b 381 -21 667 85 569 -21 m 381 92 b 543 257 490 92 543 153 l 543 424 b 381 589 543 529 490 589 b 218 458 271 589 224 515 l 218 257 b 381 92 218 153 272 92 "},"в":{"ha":714,"x_min":0,"x_max":0,"o":"m 132 0 b 101 33 110 0 101 8 l 101 683 b 132 717 101 708 110 717 l 429 717 b 622 525 553 717 622 642 b 546 374 622 460 603 407 b 647 200 618 340 647 282 b 447 0 647 78 571 0 l 132 0 m 413 418 b 503 515 468 418 503 454 b 408 611 503 576 469 611 l 225 611 l 225 418 m 424 106 b 522 213 486 106 522 147 b 421 318 522 279 486 318 l 225 318 l 225 106 "},"г":{"ha":561,"x_min":0,"x_max":0,"o":"m 131 0 b 101 33 110 0 101 8 l 101 683 b 131 717 101 708 108 717 l 499 717 b 528 683 521 717 528 708 l 528 635 b 499 603 528 611 521 603 l 225 603 l 225 33 b 196 0 225 8 218 0 l 131 0 "},"д":{"ha":807,"x_min":0,"x_max":0,"o":"m 71 -193 b 40 -160 47 -193 40 -185 l 40 81 b 71 114 40 107 47 114 l 103 114 b 185 474 143 153 185 218 l 185 683 b 215 717 185 708 192 717 l 649 717 b 679 683 672 717 679 708 l 679 114 l 736 114 b 768 81 761 114 768 107 l 768 -160 b 736 -193 768 -185 761 -193 l 681 -193 b 647 -160 657 -193 647 -185 l 647 0 l 161 0 l 161 -160 b 128 -193 161 -185 153 -193 l 71 -193 m 556 114 l 556 603 l 304 603 l 304 467 b 238 114 304 264 278 174 "},"е":{"ha":707,"x_min":0,"x_max":0,"o":"m 356 -21 b 75 268 160 -21 75 99 l 75 440 b 358 738 75 628 175 738 b 639 450 550 738 639 614 l 639 369 b 592 321 639 340 626 321 l 199 321 l 199 254 b 356 86 199 149 251 86 b 518 183 444 86 489 124 b 565 197 532 206 542 210 l 604 175 b 618 122 626 163 632 146 b 356 -21 575 38 492 -21 m 518 417 l 518 457 b 358 632 518 567 468 632 b 199 457 250 632 199 567 l 199 417 "},"ё":{"ha":707,"x_min":0,"x_max":0,"o":"m 222 842 b 165 899 179 842 165 856 l 165 911 b 222 968 165 953 179 968 l 232 968 b 289 911 276 968 289 953 l 289 899 b 232 842 289 856 276 842 l 222 842 m 476 842 b 418 899 432 842 418 856 l 418 911 b 476 968 418 953 432 968 l 486 968 b 543 911 529 968 543 953 l 543 899 b 486 842 543 856 529 842 l 476 842 m 356 -21 b 75 268 160 -21 75 99 l 75 440 b 358 738 75 628 175 738 b 639 450 550 738 639 614 l 639 369 b 592 321 639 340 626 321 l 199 321 l 199 254 b 356 86 199 149 251 86 b 518 183 444 86 489 124 b 565 197 532 206 542 210 l 604 175 b 618 122 626 163 632 146 b 356 -21 575 38 492 -21 m 518 417 l 518 457 b 358 632 518 567 468 632 b 199 457 250 632 199 567 l 199 417 "},"ж":{"ha":993,"x_min":0,"x_max":0,"o":"m 68 0 b 49 39 38 0 35 11 l 161 286 b 239 390 183 336 206 371 l 58 678 b 79 717 42 704 49 717 l 131 717 b 190 692 165 717 176 715 l 350 424 l 369 424 l 435 424 l 435 683 b 467 717 435 708 443 717 l 525 717 b 557 683 550 717 557 708 l 557 424 l 622 424 l 642 424 l 801 692 b 860 717 814 715 825 717 l 910 717 b 933 678 942 717 949 704 l 753 390 b 832 286 786 371 808 336 l 944 39 b 922 0 957 11 954 0 l 871 0 b 814 29 835 0 824 4 l 728 232 b 622 310 704 286 676 310 l 557 310 l 557 35 b 525 0 557 8 550 0 l 467 0 b 435 35 443 0 435 8 l 435 310 l 371 310 b 264 232 315 310 288 286 l 179 29 b 124 0 169 4 160 0 l 68 0 "},"з":{"ha":688,"x_min":0,"x_max":0,"o":"m 353 -21 b 57 167 164 -21 85 97 b 78 214 47 193 56 208 l 125 228 b 167 206 150 236 158 232 b 347 89 176 178 217 89 b 493 207 451 89 493 136 b 383 313 493 276 460 313 l 271 313 b 242 346 250 313 242 321 l 242 382 b 271 415 242 407 250 415 l 382 415 b 485 517 446 415 485 451 b 347 628 485 579 443 628 b 174 519 247 628 190 575 b 133 496 165 493 158 488 l 89 511 b 69 558 65 518 63 532 b 346 738 90 621 164 738 b 604 525 518 738 604 657 b 515 371 604 463 578 399 l 515 369 b 618 194 586 340 618 279 b 353 -21 618 56 535 -21 "},"и":{"ha":757,"x_min":0,"x_max":0,"o":"m 132 0 b 101 33 110 0 101 8 l 101 683 b 132 717 101 708 108 717 l 194 717 b 225 683 218 717 225 708 l 225 344 b 204 165 225 276 219 225 l 210 165 b 268 290 232 221 246 251 l 521 700 b 551 717 528 714 536 717 l 626 717 b 656 683 649 717 656 708 l 656 33 b 626 0 656 8 649 0 l 563 0 b 532 33 540 0 532 8 l 532 367 b 554 551 532 444 540 497 l 547 551 b 483 418 526 501 508 463 l 238 17 b 206 0 231 3 221 0 l 132 0 "},"й":{"ha":728,"x_min":0,"x_max":0,"o":"m 386 815 b 185 963 286 815 215 867 b 200 994 179 981 183 988 l 243 1010 b 276 997 261 1015 269 1013 b 386 906 293 938 331 906 b 497 997 442 906 479 938 b 525 1011 504 1013 511 1015 l 574 994 b 589 963 590 988 594 981 b 386 815 558 867 488 815 m 132 0 b 101 33 110 0 101 8 l 101 683 b 132 717 101 708 108 717 l 194 717 b 225 683 218 717 225 708 l 225 344 b 204 165 225 276 219 225 l 210 165 b 268 290 232 221 246 251 l 521 700 b 551 717 528 714 536 717 l 626 717 b 656 683 649 717 656 708 l 656 33 b 626 0 656 8 649 0 l 563 0 b 532 33 540 0 532 8 l 532 367 b 554 551 532 444 540 497 l 547 551 b 483 418 526 501 508 463 l 238 17 b 206 0 231 3 221 0 l 132 0 "},"к":{"ha":697,"x_min":0,"x_max":0,"o":"m 132 0 b 101 35 110 0 101 8 l 101 683 b 132 717 101 708 110 717 l 196 717 b 225 683 218 717 225 708 l 225 424 l 333 424 l 343 424 l 510 692 b 567 717 524 717 533 717 l 618 717 b 642 678 650 717 656 703 l 456 400 b 544 288 496 381 519 344 l 651 39 b 628 0 664 11 658 0 l 576 0 b 522 29 542 0 532 4 l 438 232 b 343 310 415 286 392 310 l 225 310 l 225 35 b 196 0 225 8 218 0 l 132 0 "},"л":{"ha":724,"x_min":0,"x_max":0,"o":"m 92 -17 b 54 0 74 -25 64 -18 l 21 56 b 32 93 10 74 15 85 b 146 453 86 124 146 149 l 146 683 b 176 717 146 708 154 717 l 592 717 b 622 683 614 717 622 708 l 622 33 b 592 0 622 8 614 0 l 529 0 b 499 33 506 0 499 8 l 499 601 l 267 601 l 267 446 b 92 -17 267 92 179 29 "},"м":{"ha":883,"x_min":0,"x_max":0,"o":"m 132 0 b 101 33 107 0 101 7 l 101 681 b 136 717 101 708 108 717 l 200 717 b 244 689 224 717 235 711 l 442 278 l 639 689 b 679 717 647 710 654 717 l 749 717 b 782 681 776 717 782 708 l 782 33 b 751 0 782 7 775 0 l 696 0 b 664 33 671 0 664 7 l 664 356 b 682 543 664 407 668 476 l 676 543 b 611 400 649 481 632 443 l 497 174 b 458 149 488 154 479 149 l 426 149 b 388 175 406 149 397 154 l 276 396 b 207 543 253 444 235 481 l 201 543 b 218 349 213 474 218 403 l 218 33 b 188 0 218 7 210 0 l 132 0 "},"н":{"ha":747,"x_min":0,"x_max":0,"o":"m 132 0 b 101 33 110 0 101 8 l 101 683 b 132 717 101 708 108 717 l 194 717 b 225 683 217 717 225 708 l 225 424 l 522 424 l 522 683 b 553 717 522 708 531 717 l 615 717 b 646 683 639 717 646 708 l 646 33 b 615 0 646 8 639 0 l 553 0 b 522 33 531 0 522 8 l 522 310 l 225 310 l 225 33 b 194 0 225 8 217 0 l 132 0 "},"о":{"ha":725,"x_min":0,"x_max":0,"o":"m 361 -21 b 78 244 183 -21 78 81 l 78 472 b 361 738 78 636 183 738 b 646 472 543 738 646 636 l 646 244 b 361 -21 646 81 543 -21 m 361 92 b 522 244 463 92 522 149 l 522 472 b 361 625 522 569 463 625 b 201 472 264 625 201 569 l 201 244 b 361 92 201 149 264 92 "},"п":{"ha":740,"x_min":0,"x_max":0,"o":"m 132 0 b 101 33 110 0 101 8 l 101 683 b 132 717 101 708 108 717 l 610 717 b 640 683 632 717 640 708 l 640 33 b 610 0 640 8 632 0 l 546 0 b 517 33 524 0 517 8 l 517 603 l 225 603 l 225 33 b 194 0 225 8 217 0 l 132 0 "},"р":{"ha":726,"x_min":0,"x_max":0,"o":"m 129 -306 b 99 -272 106 -306 99 -297 l 99 618 b 146 694 99 663 106 674 b 365 738 192 715 268 738 b 647 450 558 738 647 638 l 647 254 b 389 -21 647 82 568 -21 b 222 17 319 -21 253 3 l 222 -272 b 192 -306 222 -297 215 -306 l 129 -306 m 374 93 b 524 257 479 93 524 151 l 524 447 b 361 625 524 567 476 625 b 239 601 314 625 265 615 b 222 575 225 594 222 590 l 222 129 b 374 93 253 115 310 93 "},"с":{"ha":690,"x_min":0,"x_max":0,"o":"m 353 -21 b 78 254 167 -21 78 82 l 78 463 b 361 738 78 633 169 738 b 625 551 513 738 593 661 b 604 506 633 525 628 513 l 558 489 b 514 513 533 481 522 488 b 357 628 492 590 447 628 b 201 464 251 628 201 567 l 201 254 b 356 89 201 150 253 89 b 511 208 443 89 486 131 b 554 231 521 233 531 239 l 608 215 b 628 168 631 208 638 194 b 353 -21 585 46 504 -21 "},"т":{"ha":599,"x_min":0,"x_max":0,"o":"m 268 0 b 238 33 246 0 238 8 l 238 603 l 64 603 b 33 635 40 603 33 611 l 33 683 b 64 717 33 708 40 717 l 535 717 b 565 683 557 717 565 708 l 565 635 b 535 603 565 611 557 603 l 361 603 l 361 33 b 331 0 361 8 354 0 l 268 0 "},"у":{"ha":742,"x_min":0,"x_max":0,"o":"m 367 -336 b 111 -194 232 -336 156 -281 b 125 -142 99 -171 101 -154 l 168 -119 b 215 -135 193 -107 203 -111 b 364 -225 243 -192 290 -225 b 517 -44 472 -225 517 -161 l 517 35 b 350 6 481 22 431 6 b 94 281 175 6 94 107 l 94 683 b 125 717 94 708 103 717 l 189 717 b 218 683 211 717 218 708 l 218 285 b 367 118 218 174 263 118 b 515 147 438 118 485 135 l 515 683 b 546 717 515 708 524 717 l 610 717 b 639 683 632 717 639 708 l 639 -35 b 367 -336 639 -215 563 -336 "},"ф":{"ha":996,"x_min":0,"x_max":0,"o":"m 468 -306 b 436 -272 444 -306 436 -297 l 436 -14 b 360 -21 411 -18 386 -21 b 76 275 194 -21 76 61 l 76 436 b 360 738 76 651 194 738 b 436 731 386 738 411 735 l 436 994 b 468 1026 436 1018 444 1026 l 529 1026 b 560 994 553 1026 560 1018 l 560 731 b 636 738 586 735 610 738 b 919 442 801 738 919 656 l 919 275 b 636 -21 919 61 801 -21 b 560 -14 610 -21 586 -18 l 560 -272 b 529 -306 560 -297 553 -306 l 468 -306 m 365 93 b 439 99 392 93 414 94 l 439 619 b 365 624 414 622 392 624 b 200 432 281 624 199 581 l 200 279 b 365 93 200 132 281 93 m 631 93 b 796 279 715 93 796 132 l 796 438 b 631 624 796 585 715 624 b 557 619 603 624 583 622 l 557 99 b 631 93 583 94 603 93 "},"х":{"ha":660,"x_min":0,"x_max":0,"o":"m 64 0 b 43 39 31 0 28 13 l 249 367 l 53 679 b 76 717 40 701 42 717 l 135 717 b 188 689 167 717 176 713 l 332 453 l 474 689 b 522 717 485 713 492 717 l 588 717 b 607 679 617 717 622 704 l 415 369 l 619 39 b 599 0 633 13 629 0 l 535 0 b 483 28 503 0 496 4 l 331 283 l 179 28 b 126 0 167 3 158 0 l 64 0 "},"ч":{"ha":686,"x_min":0,"x_max":0,"o":"m 492 0 b 461 33 468 0 461 8 l 461 274 b 304 251 436 267 383 251 b 58 515 135 251 58 342 l 58 683 b 89 717 58 708 67 717 l 153 717 b 182 683 175 717 182 708 l 182 518 b 328 364 182 410 221 364 b 461 389 392 364 449 383 l 461 683 b 492 717 461 708 468 717 l 554 717 b 585 683 578 717 585 708 l 585 33 b 554 0 585 8 578 0 l 492 0 "},"ц":{"ha":768,"x_min":0,"x_max":0,"o":"m 642 -193 b 608 -160 618 -193 608 -185 l 608 0 l 132 0 b 101 33 108 0 101 8 l 101 683 b 132 717 101 708 110 717 l 193 717 b 225 683 217 717 225 708 l 225 114 l 519 114 l 519 683 b 550 717 519 708 528 717 l 614 717 b 643 683 636 717 643 708 l 643 114 l 699 114 b 729 81 722 114 729 107 l 729 -160 b 699 -193 729 -185 722 -193 l 642 -193 "},"ш":{"ha":1038,"x_min":0,"x_max":0,"o":"m 132 0 b 101 33 108 0 101 8 l 101 683 b 132 717 101 708 110 717 l 194 717 b 225 683 218 717 225 708 l 225 114 l 457 114 l 457 683 b 488 717 457 708 464 717 l 549 717 b 579 683 572 717 579 708 l 579 114 l 813 114 l 813 683 b 843 717 813 708 821 717 l 906 717 b 936 683 929 717 936 708 l 936 33 b 906 0 936 8 929 0 l 132 0 "},"щ":{"ha":1071,"x_min":0,"x_max":0,"o":"m 943 -193 b 911 -160 919 -193 911 -185 l 911 0 l 132 0 b 101 33 110 0 101 8 l 101 683 b 132 717 101 708 110 717 l 193 717 b 225 683 218 717 225 708 l 225 114 l 461 114 l 461 683 b 493 717 461 708 469 717 l 553 717 b 585 683 576 717 585 708 l 585 114 l 821 114 l 821 683 b 853 717 821 708 829 717 l 914 717 b 944 683 938 717 944 708 l 944 114 l 1000 114 b 1031 81 1022 114 1031 107 l 1031 -160 b 1000 -193 1031 -185 1022 -193 l 943 -193 "},"ь":{"ha":692,"x_min":0,"x_max":0,"o":"m 132 0 b 101 33 108 0 101 8 l 101 683 b 132 717 101 708 108 717 l 194 717 b 225 683 217 717 225 708 l 225 499 l 410 499 b 640 251 553 499 640 408 b 410 0 640 93 553 0 l 132 0 m 399 111 b 517 251 474 111 517 165 b 399 388 517 338 474 388 l 225 388 l 225 111 "},"ъ":{"ha":813,"x_min":0,"x_max":0,"o":"m 236 0 b 206 33 214 0 206 8 l 206 603 l 65 603 b 33 635 42 603 33 611 l 33 683 b 65 717 33 708 42 717 l 300 717 b 329 683 322 717 329 708 l 329 499 l 524 499 b 761 251 671 499 761 408 b 524 0 761 93 671 0 l 236 0 m 514 111 b 638 251 592 111 638 165 b 514 388 638 338 592 388 l 329 388 l 329 111 "},"ы":{"ha":964,"x_min":0,"x_max":0,"o":"m 132 0 b 101 33 108 0 101 8 l 101 683 b 132 717 101 708 108 717 l 194 717 b 225 683 217 717 225 708 l 225 499 l 415 499 b 649 251 560 499 649 408 b 415 0 649 93 560 0 l 132 0 m 769 0 b 739 33 746 0 739 8 l 739 683 b 769 717 739 708 746 717 l 832 717 b 863 683 856 717 863 708 l 863 33 b 832 0 863 8 856 0 l 769 0 m 404 111 b 525 251 479 111 525 165 b 404 388 525 338 479 388 l 225 388 l 225 111 "},"э":{"ha":685,"x_min":0,"x_max":0,"o":"m 335 -21 b 61 171 185 -21 100 49 b 82 218 50 197 58 213 l 129 232 b 171 210 154 240 163 236 b 329 90 193 131 240 90 b 483 253 435 90 483 149 l 483 308 l 269 310 b 242 343 249 310 242 318 l 242 386 b 269 419 242 411 250 419 l 483 419 l 483 465 b 329 628 483 568 435 628 b 172 514 239 628 194 590 b 131 490 163 489 156 483 l 88 503 b 67 551 64 511 58 524 b 328 738 99 661 176 738 b 607 460 518 738 607 632 l 607 257 b 335 -21 607 83 519 -21 "},"ю":{"ha":1015,"x_min":0,"x_max":0,"o":"m 650 -21 b 367 243 474 -21 367 79 l 367 307 l 225 307 l 225 33 b 194 0 225 8 218 0 l 132 0 b 101 33 110 0 101 8 l 101 683 b 132 717 101 708 108 717 l 194 717 b 225 683 218 717 225 708 l 225 421 l 367 421 l 367 474 b 650 738 368 638 475 738 b 936 474 833 738 936 638 l 936 243 b 650 -21 936 79 833 -21 m 650 92 b 813 243 754 92 813 147 l 813 474 b 650 625 813 569 754 625 b 486 474 546 625 486 569 l 486 243 b 650 92 486 147 546 92 "},"я":{"ha":708,"x_min":0,"x_max":0,"o":"m 94 0 b 71 39 60 0 57 13 l 203 271 b 75 481 124 299 75 368 b 289 717 75 628 158 717 l 578 717 b 608 683 600 717 608 708 l 608 33 b 578 0 608 8 600 0 l 514 0 b 485 33 492 0 485 8 l 485 246 l 319 246 l 206 29 b 150 0 194 3 185 0 l 94 0 m 485 356 l 485 606 l 308 606 b 197 481 238 606 197 556 b 308 356 197 406 238 356 "},"π":{"ha":847,"x_min":0,"x_max":0,"o":"m 671 0 b 626 18 649 -10 638 -7 b 589 211 594 83 589 133 l 589 603 l 315 603 l 315 33 b 285 0 315 8 307 0 l 222 0 b 192 33 199 0 192 8 l 192 603 b 90 571 151 601 132 594 b 49 585 71 561 60 563 l 26 631 b 42 674 17 653 21 664 b 231 717 104 708 153 717 l 769 717 b 801 683 793 717 801 708 l 801 638 b 769 603 801 613 793 603 l 713 603 l 713 206 b 740 69 713 146 715 115 b 724 21 750 44 747 31 l 671 0 "},"⁄":{"ha":239,"x_min":0,"x_max":0,"o":"m -197 0 b -214 38 -222 0 -228 17 l 344 956 b 401 986 361 983 365 986 l 443 986 b 458 951 467 986 471 971 l -97 32 b -156 0 -115 4 -124 0 l -197 0 "},"½":{"ha":1114,"x_min":0,"x_max":0,"o":"m 240 444 b 204 481 213 444 204 454 l 204 861 l 126 818 b 75 831 104 804 88 810 l 61 854 b 78 904 46 878 56 890 l 208 982 b 251 993 222 990 233 993 l 272 993 b 308 957 300 993 308 983 l 308 481 b 272 444 308 454 300 444 l 240 444 m 200 0 b 183 38 175 0 171 17 l 742 956 b 799 986 758 983 763 986 l 840 986 b 857 951 864 986 868 971 l 300 32 b 242 0 282 4 275 0 l 200 0 m 711 0 b 681 33 689 0 681 8 l 681 82 b 785 264 681 174 707 229 l 854 296 b 938 385 901 315 938 326 b 863 461 938 432 913 461 b 779 389 814 461 788 425 b 739 368 769 365 761 360 l 703 379 b 685 422 681 386 676 397 b 869 560 706 496 761 560 b 1043 392 982 560 1043 490 b 910 218 1043 293 993 253 l 844 190 b 796 122 814 178 796 158 l 796 96 l 1010 96 b 1039 64 1032 96 1039 86 l 1039 31 b 1011 0 1039 10 1032 0 l 711 0 "},"⅓":{"ha":1138,"x_min":0,"x_max":0,"o":"m 240 444 b 204 481 213 444 204 454 l 204 861 l 126 818 b 75 831 104 804 88 810 l 61 854 b 78 904 46 878 56 890 l 208 982 b 251 993 222 990 233 993 l 272 993 b 308 957 300 993 308 983 l 308 481 b 272 444 308 454 300 444 l 240 444 m 215 0 b 197 38 189 0 185 17 l 757 956 b 814 986 774 983 778 986 l 854 986 b 871 951 878 986 882 971 l 314 32 b 256 0 296 4 289 0 l 215 0 m 892 -11 b 697 128 783 -11 721 35 b 714 171 690 156 696 165 l 747 182 b 785 161 769 189 775 188 b 889 83 800 108 832 83 b 971 157 943 83 971 113 b 908 232 971 200 947 232 l 847 232 b 822 264 826 232 822 236 l 822 292 b 850 326 822 322 826 326 l 903 326 b 961 393 940 326 961 356 b 886 467 961 438 932 467 b 786 394 832 467 801 450 b 743 371 774 365 769 361 l 717 382 b 701 424 700 389 693 397 b 892 560 728 518 786 560 b 1060 404 997 560 1058 494 b 1000 286 1058 349 1042 311 b 1074 149 1050 257 1074 207 b 892 -11 1074 53 1013 -11 "},"⅔":{"ha":1192,"x_min":0,"x_max":0,"o":"m 104 444 b 74 478 82 444 74 453 l 74 526 b 178 710 74 619 100 675 l 247 740 b 329 829 294 761 329 771 b 256 906 329 876 306 906 b 172 833 206 906 181 869 b 132 813 163 810 154 806 l 96 825 b 78 867 74 831 68 842 b 263 1004 99 940 153 1004 b 436 836 375 1004 436 936 b 303 663 436 738 386 699 l 238 636 b 189 567 207 622 189 603 l 189 540 l 403 540 b 432 508 425 540 432 531 l 432 475 b 404 444 432 454 425 444 l 104 444 m 294 0 b 278 38 269 0 265 17 l 836 956 b 893 986 853 983 857 986 l 935 986 b 951 951 958 986 963 971 l 394 32 b 336 0 376 4 369 0 l 294 0 m 949 -11 b 754 128 842 -11 778 35 b 771 171 747 156 753 165 l 804 182 b 843 161 826 189 832 188 b 947 83 857 108 889 83 b 1028 157 1001 83 1028 113 b 965 232 1028 200 1006 232 l 904 232 b 881 264 883 232 881 236 l 881 292 b 907 326 881 322 883 326 l 960 326 b 1018 393 997 326 1018 356 b 943 467 1018 438 990 467 b 843 394 889 467 860 450 b 800 371 831 365 826 361 l 774 382 b 758 424 757 389 750 397 b 950 560 785 518 843 560 b 1117 404 1056 560 1115 494 b 1057 286 1115 349 1100 311 b 1131 149 1108 257 1131 207 b 949 -11 1131 53 1071 -11 "},"¼":{"ha":1051,"x_min":0,"x_max":0,"o":"m 239 440 b 203 476 213 440 203 449 l 203 857 l 126 814 b 75 826 103 800 88 806 l 61 849 b 78 900 46 874 56 886 l 208 978 b 251 989 222 986 233 989 l 272 989 b 308 953 299 989 308 979 l 308 476 b 272 440 308 449 299 440 l 239 440 m 217 0 b 199 38 190 0 186 17 l 758 956 b 815 986 775 983 779 986 l 856 986 b 872 951 879 986 885 971 l 315 32 b 257 0 297 4 290 0 l 217 0 m 854 0 b 829 31 835 0 829 7 l 829 129 l 608 129 b 579 163 585 129 579 136 l 579 188 b 589 222 579 206 581 210 l 810 529 b 854 549 822 547 832 549 l 896 549 b 926 514 922 549 926 542 l 926 218 l 963 218 b 990 189 988 218 990 213 l 990 158 b 963 129 990 135 988 129 l 926 129 l 926 31 b 900 0 926 7 921 0 l 854 0 m 829 218 l 831 418 l 689 218 "},"¾":{"ha":1100,"x_min":0,"x_max":0,"o":"m 263 436 b 67 575 154 436 92 482 b 83 618 60 601 65 613 l 117 628 b 156 608 140 636 146 635 b 260 529 169 554 201 529 b 340 604 314 529 340 560 b 278 678 340 647 318 678 l 217 678 b 193 711 197 678 193 683 l 193 738 b 219 772 193 768 196 772 l 272 772 b 332 840 311 772 332 801 b 256 914 332 885 303 914 b 156 840 203 914 172 896 b 114 818 144 813 139 808 l 86 829 b 71 869 69 836 63 843 b 263 1007 97 965 156 1007 b 429 851 367 1007 428 942 b 369 733 428 796 413 758 b 443 596 421 703 443 654 b 263 436 443 500 383 436 m 265 0 b 249 38 240 0 236 17 l 807 956 b 864 986 824 983 828 986 l 906 986 b 922 951 929 986 933 971 l 365 32 b 307 0 347 4 340 0 l 265 0 m 904 0 b 879 31 885 0 879 7 l 879 129 l 658 129 b 629 163 635 129 629 136 l 629 188 b 639 222 629 206 631 210 l 860 529 b 906 549 874 547 882 549 l 946 549 b 976 514 972 549 976 542 l 976 218 l 1014 218 b 1042 189 1038 218 1042 213 l 1042 158 b 1014 129 1042 135 1038 129 l 976 129 l 976 31 b 951 0 976 7 971 0 l 904 0 m 879 218 l 881 418 l 739 218 "},"⅛":{"ha":1153,"x_min":0,"x_max":0,"o":"m 239 444 b 203 481 213 444 203 454 l 203 861 l 126 818 b 75 831 103 804 88 810 l 61 854 b 78 904 46 878 56 890 l 208 982 b 251 993 222 990 233 993 l 272 993 b 308 957 299 993 308 983 l 308 481 b 272 444 308 454 299 444 l 239 444 m 215 0 b 199 38 190 0 185 17 l 757 956 b 814 986 774 983 778 986 l 856 986 b 871 951 879 986 883 971 l 315 32 b 257 0 297 4 289 0 l 215 0 m 890 -11 b 692 136 756 -11 692 46 b 782 274 692 217 742 256 b 707 404 733 300 707 342 b 890 560 707 503 776 560 b 1072 417 1008 560 1072 504 b 1000 289 1072 343 1033 307 b 1089 156 1056 265 1089 225 b 890 -11 1089 50 1024 -11 m 908 321 b 972 404 928 331 972 350 b 890 476 972 447 947 476 b 807 403 836 476 807 450 b 908 321 807 356 838 336 m 892 72 b 983 153 950 72 983 101 b 874 236 983 201 951 221 b 797 149 854 226 797 207 b 892 72 797 103 828 72 "},"⅜":{"ha":1186,"x_min":0,"x_max":0,"o":"m 261 435 b 67 574 153 435 90 481 b 82 617 58 601 64 611 l 115 628 b 154 607 139 635 144 633 b 258 529 169 554 200 529 b 340 603 313 529 340 558 b 276 678 340 646 317 678 l 217 678 b 192 710 196 678 192 682 l 192 738 b 218 772 192 768 194 772 l 271 772 b 331 839 310 772 331 801 b 256 913 331 883 301 913 b 154 840 201 913 171 896 b 113 817 143 811 139 807 l 85 828 b 69 869 69 835 61 843 b 261 1006 97 964 156 1006 b 428 850 365 1006 428 940 b 368 732 428 794 411 757 b 442 594 419 703 442 653 b 261 435 442 499 382 435 m 275 0 b 258 38 250 0 246 17 l 817 956 b 875 986 835 983 839 986 l 915 986 b 932 951 939 986 943 971 l 375 32 b 317 0 357 4 350 0 l 275 0 m 926 -11 b 728 136 792 -11 728 46 b 818 274 728 217 778 256 b 743 404 769 300 743 342 b 926 560 743 503 814 560 b 1110 417 1044 560 1110 504 b 1036 289 1110 343 1069 307 b 1125 156 1092 265 1125 225 b 926 -11 1125 50 1060 -11 m 944 321 b 1008 404 964 331 1008 350 b 926 476 1008 447 983 476 b 843 403 872 476 843 450 b 944 321 843 356 874 336 m 928 72 b 1019 153 988 72 1019 101 b 911 236 1019 201 988 221 b 833 149 890 226 833 207 b 928 72 833 103 864 72 "},"⅝":{"ha":1182,"x_min":0,"x_max":0,"o":"m 250 435 b 63 575 140 435 89 486 b 76 618 53 601 58 613 l 111 631 b 151 614 133 639 142 636 b 247 526 165 558 192 526 b 335 619 306 526 335 567 b 243 708 335 675 306 708 l 106 708 b 78 739 82 708 76 718 l 99 965 b 132 994 100 989 108 994 l 390 994 b 414 969 408 994 414 989 l 414 931 b 390 906 414 910 410 906 l 188 906 l 176 793 l 251 793 b 432 621 375 793 432 722 b 250 435 432 508 369 435 m 260 0 b 243 38 235 0 231 17 l 801 956 b 858 986 818 983 822 986 l 900 986 b 917 951 924 986 928 971 l 360 32 b 301 0 342 4 335 0 l 260 0 m 922 -11 b 724 136 788 -11 724 46 b 814 274 724 217 774 256 b 739 404 765 300 739 342 b 922 560 739 503 808 560 b 1104 417 1040 560 1104 504 b 1032 289 1104 343 1065 307 b 1121 156 1088 265 1121 225 b 922 -11 1121 50 1056 -11 m 940 321 b 1004 404 960 331 1004 350 b 922 476 1004 447 979 476 b 839 403 868 476 839 450 b 940 321 839 356 869 336 m 924 72 b 1015 153 982 72 1015 101 b 906 236 1015 201 983 221 b 829 149 886 226 829 207 b 924 72 829 103 860 72 "},"⅞":{"ha":1126,"x_min":0,"x_max":0,"o":"m 143 444 b 125 482 117 444 113 453 l 296 897 l 83 897 b 58 924 61 897 58 904 l 58 965 b 83 993 58 990 64 993 l 386 993 b 413 967 407 993 413 988 l 413 940 b 406 906 413 925 411 917 l 228 467 b 186 444 219 447 215 444 l 143 444 m 174 0 b 157 38 149 0 144 17 l 715 956 b 772 986 732 983 736 986 l 814 986 b 831 951 838 986 842 971 l 274 32 b 215 0 256 4 249 0 l 174 0 m 867 -11 b 668 136 732 -11 668 46 b 757 274 668 217 718 256 b 682 404 708 300 682 342 b 867 560 682 503 753 560 b 1049 417 985 560 1049 504 b 976 289 1049 343 1010 307 b 1064 156 1031 265 1064 225 b 867 -11 1064 50 999 -11 m 883 321 b 949 404 903 331 949 350 b 867 476 949 447 922 476 b 783 403 813 476 783 450 b 883 321 783 356 813 336 m 868 72 b 958 153 926 72 958 101 b 850 236 958 201 928 221 b 774 149 831 226 774 207 b 868 72 774 103 804 72 "},".":{"ha":313,"x_min":0,"x_max":0,"o":"m 151 -10 b 81 61 99 -10 81 7 l 81 72 b 151 143 81 125 97 143 l 161 143 b 232 72 214 143 232 125 l 232 61 b 161 -10 232 7 214 -10 l 151 -10 "},",":{"ha":304,"x_min":0,"x_max":0,"o":"m 74 -169 b 50 -143 51 -169 47 -164 l 92 99 b 136 139 96 131 107 139 l 186 139 b 219 99 219 139 229 125 l 138 -136 b 97 -169 129 -160 122 -169 l 74 -169 "},":":{"ha":343,"x_min":0,"x_max":0,"o":"m 169 529 b 97 601 115 529 97 546 l 97 611 b 169 683 97 665 115 683 l 178 683 b 249 611 232 683 249 665 l 249 601 b 178 529 249 547 232 529 l 169 529 m 169 -10 b 97 61 115 -10 97 7 l 97 72 b 169 143 97 125 115 143 l 178 143 b 249 72 232 143 249 125 l 249 61 b 178 -10 249 7 232 -10 l 169 -10 "},";":{"ha":374,"x_min":0,"x_max":0,"o":"m 194 529 b 124 601 142 529 124 546 l 124 611 b 194 683 124 665 140 683 l 204 683 b 275 611 257 683 275 665 l 275 601 b 204 529 275 547 257 529 l 194 529 m 106 -169 b 83 -143 85 -169 81 -164 l 125 99 b 169 139 129 131 140 139 l 218 139 b 253 99 253 139 263 125 l 171 -136 b 131 -169 163 -160 154 -169 l 106 -169 "},"…":{"ha":932,"x_min":0,"x_max":0,"o":"m 153 -10 b 82 61 100 -10 82 7 l 82 72 b 153 143 82 125 99 143 l 161 143 b 233 72 215 143 233 125 l 233 61 b 161 -10 233 7 215 -10 l 153 -10 m 463 -10 b 392 61 410 -10 392 7 l 392 72 b 463 143 392 125 408 143 l 471 143 b 543 72 525 143 543 125 l 543 61 b 471 -10 543 7 525 -10 l 463 -10 m 772 -10 b 701 61 719 -10 701 7 l 701 72 b 772 143 701 125 718 143 l 781 143 b 853 72 835 143 853 125 l 853 61 b 781 -10 853 7 835 -10 l 772 -10 "},"!":{"ha":338,"x_min":0,"x_max":0,"o":"m 151 256 b 119 289 128 256 119 264 l 104 994 b 138 1028 104 1019 113 1028 l 200 1028 b 233 994 225 1028 235 1019 l 218 289 b 185 256 217 264 210 256 l 151 256 m 164 -10 b 93 61 111 -10 93 7 l 93 72 b 164 143 93 125 110 143 l 172 143 b 244 72 226 143 244 125 l 244 61 b 172 -10 244 7 226 -10 l 164 -10 "},"¡":{"ha":324,"x_min":0,"x_max":0,"o":"m 167 725 b 238 654 219 725 238 707 l 238 643 b 167 572 238 589 219 572 l 157 572 b 86 643 104 572 86 589 l 86 654 b 157 725 86 708 104 725 m 179 460 b 211 426 203 460 211 451 l 226 -281 b 194 -312 228 -304 218 -312 l 131 -312 b 99 -281 106 -312 97 -304 l 113 426 b 146 460 114 451 121 460 "},"?":{"ha":776,"x_min":0,"x_max":0,"o":"m 326 233 b 294 268 303 233 294 242 b 428 510 294 406 360 461 b 578 735 500 561 578 606 b 394 910 578 838 514 910 b 178 757 279 910 214 849 b 135 733 167 731 158 725 l 79 753 b 58 797 56 761 49 772 b 394 1028 108 932 208 1028 b 717 740 604 1028 717 899 b 508 429 717 561 607 500 b 414 268 457 392 414 347 b 382 233 414 242 406 233 l 326 233 m 351 -10 b 281 61 299 -10 281 7 l 281 72 b 351 143 281 125 297 143 l 361 143 b 432 72 414 143 432 125 l 432 61 b 361 -10 432 7 414 -10 l 351 -10 "},"¿":{"ha":803,"x_min":0,"x_max":0,"o":"m 451 725 b 522 653 504 725 522 708 l 522 643 b 451 571 522 589 504 571 l 442 571 b 371 643 388 571 371 589 l 371 653 b 442 725 371 707 388 725 l 451 725 m 475 481 b 507 446 499 481 507 472 b 375 206 507 310 443 254 b 224 -19 301 153 224 108 b 407 -194 224 -124 288 -194 b 625 -43 524 -194 588 -135 b 668 -19 636 -17 644 -11 l 724 -37 b 744 -83 747 -46 753 -58 b 407 -314 694 -218 594 -314 b 86 -26 199 -314 86 -183 b 294 286 86 153 196 215 b 388 446 346 322 388 368 b 419 481 388 472 396 481 l 475 481 "},"·":{"ha":347,"x_min":0,"x_max":0,"o":"m 169 310 b 99 381 117 310 99 326 l 99 392 b 169 463 99 444 115 463 l 178 463 b 250 392 232 463 250 444 l 250 381 b 178 310 250 326 232 310 l 169 310 "},"•":{"ha":490,"x_min":0,"x_max":0,"o":"m 244 238 b 117 367 171 238 117 293 b 244 494 117 439 171 494 b 372 367 318 494 372 439 b 244 238 372 293 318 238 "},"*":{"ha":521,"x_min":0,"x_max":0,"o":"m 142 601 b 139 632 129 613 129 618 l 217 733 l 104 761 b 88 788 86 764 82 772 l 99 824 b 126 833 103 839 113 842 l 233 786 l 225 914 b 244 936 224 929 228 936 l 276 936 b 297 914 294 936 299 929 l 292 788 l 397 833 b 426 822 413 842 421 838 l 438 786 b 419 760 442 772 438 764 l 306 732 l 385 632 b 382 601 394 621 394 611 l 354 581 b 324 588 340 571 333 572 l 261 689 l 199 588 b 171 579 190 572 183 571 "},"#":{"ha":943,"x_min":0,"x_max":0,"o":"m 163 0 b 142 31 142 0 136 8 l 203 256 l 82 256 b 60 285 60 256 54 264 l 76 333 b 115 361 83 356 92 361 l 233 361 l 293 571 l 171 571 b 150 600 150 571 143 579 l 167 649 b 206 676 174 671 183 676 l 324 676 l 379 883 b 415 915 385 907 393 915 l 474 915 b 496 883 496 915 501 907 l 440 676 l 624 676 l 678 883 b 714 915 685 907 693 915 l 772 915 b 794 883 794 915 800 907 l 740 676 l 863 676 b 883 647 883 676 890 668 l 868 599 b 829 571 861 578 851 571 l 708 571 l 650 361 l 772 361 b 794 332 794 361 801 353 l 776 283 b 739 256 769 263 761 256 l 618 256 l 558 31 b 522 0 551 8 543 0 l 463 0 b 442 31 440 0 436 10 l 501 256 l 318 256 l 258 31 b 222 0 253 8 244 0 l 163 0 m 533 361 l 592 571 l 408 571 l 350 361 "},"/":{"ha":615,"x_min":0,"x_max":0,"o":"m 79 -83 b 57 -53 54 -83 50 -74 l 432 957 b 476 988 442 981 451 988 l 536 988 b 558 957 561 988 567 978 l 183 -53 b 139 -83 174 -76 164 -83 l 79 -83 "},"\\":{"ha":563,"x_min":0,"x_max":0,"o":"m 417 -83 b 382 -56 397 -83 389 -78 l 54 958 b 71 986 49 978 53 986 l 146 986 b 181 958 167 986 174 981 l 510 -56 b 492 -83 515 -75 511 -83 l 417 -83 "},"(":{"ha":393,"x_min":0,"x_max":0,"o":"m 274 -343 b 94 -21 161 -279 94 -200 l 94 704 b 274 1025 94 882 161 960 b 314 1006 293 1035 300 1026 l 342 967 b 326 922 356 946 344 936 b 215 704 261 876 215 821 l 215 -24 b 325 -240 215 -139 258 -196 b 339 -282 346 -253 350 -262 l 314 -325 b 274 -343 301 -346 293 -354 "},")":{"ha":388,"x_min":0,"x_max":0,"o":"m 114 -343 b 74 -324 94 -353 86 -344 l 50 -282 b 64 -239 38 -262 43 -251 b 174 -22 133 -201 174 -139 l 174 706 b 63 922 174 821 131 883 b 47 967 43 936 32 946 l 74 1007 b 114 1025 89 1026 94 1036 b 294 704 231 968 294 883 l 294 -21 b 114 -343 294 -199 231 -285 "},"{":{"ha":465,"x_min":0,"x_max":0,"o":"m 346 -356 b 160 -175 207 -356 160 -300 l 160 149 b 64 275 160 224 144 275 l 53 275 b 25 308 32 275 25 285 l 25 368 b 51 401 25 390 32 401 l 64 401 b 160 526 144 401 160 454 l 160 856 b 344 1038 160 979 208 1038 l 394 1038 b 428 1004 419 1038 428 1029 l 428 957 b 394 925 428 932 419 925 l 349 925 b 278 849 299 925 278 897 l 278 510 b 182 339 278 424 240 368 b 278 167 250 311 278 254 l 278 -168 b 349 -243 278 -217 299 -243 l 394 -243 b 428 -276 419 -243 428 -251 l 428 -324 b 394 -356 428 -349 419 -356 l 346 -356 "},"}":{"ha":465,"x_min":0,"x_max":0,"o":"m 71 -356 b 38 -324 46 -356 38 -349 l 38 -276 b 71 -243 38 -251 46 -243 l 117 -243 b 188 -168 167 -243 188 -217 l 188 167 b 283 339 188 254 215 311 b 188 510 225 368 188 424 l 188 849 b 117 925 188 897 167 925 l 71 925 b 38 957 46 925 38 932 l 38 1004 b 71 1038 38 1029 46 1038 l 121 1038 b 306 856 257 1038 306 979 l 306 526 b 401 401 306 454 326 401 l 414 401 b 440 368 433 401 440 390 l 440 308 b 413 275 440 285 433 275 l 401 275 b 306 149 326 275 306 224 l 306 -175 b 119 -356 306 -300 258 -356 l 71 -356 "},"[":{"ha":408,"x_min":0,"x_max":0,"o":"m 138 -354 b 104 -322 110 -354 104 -349 l 104 1004 b 138 1038 104 1031 110 1038 l 336 1038 b 368 1004 364 1038 368 1032 l 368 958 b 336 926 368 931 364 926 l 222 926 l 222 -243 l 336 -243 b 368 -275 364 -243 368 -249 l 368 -322 b 336 -354 368 -350 364 -354 l 138 -354 "},"]":{"ha":408,"x_min":0,"x_max":0,"o":"m 72 -354 b 40 -322 44 -354 40 -350 l 40 -275 b 72 -243 40 -249 44 -243 l 186 -243 l 186 926 l 72 926 b 40 958 44 926 40 931 l 40 1004 b 72 1038 40 1032 44 1038 l 271 1038 b 304 1004 299 1038 304 1031 l 304 -322 b 271 -354 304 -349 299 -354 l 72 -354 "},"-":{"ha":583,"x_min":0,"x_max":0,"o":"m 131 308 b 97 344 106 308 97 318 l 97 392 b 131 428 97 419 106 428 l 453 428 b 486 392 478 428 486 419 l 486 344 b 453 308 486 318 478 308 l 131 308 "},"–":{"ha":789,"x_min":0,"x_max":0,"o":"m 131 311 b 97 347 106 311 97 321 l 97 394 b 131 431 97 422 106 431 l 658 431 b 692 394 683 431 692 422 l 692 347 b 658 311 692 321 683 311 l 131 311 "},"—":{"ha":1065,"x_min":0,"x_max":0,"o":"m 132 311 b 97 347 106 311 97 319 l 97 394 b 132 431 97 422 106 431 l 933 431 b 968 394 960 431 968 422 l 968 347 b 933 311 968 319 960 311 l 132 311 "},"_":{"ha":708,"x_min":0,"x_max":0,"o":"m 85 -119 b 49 -83 58 -119 49 -110 l 49 -36 b 85 0 49 -10 58 0 l 624 0 b 660 -36 650 0 660 -10 l 660 -83 b 624 -119 660 -110 650 -119 l 85 -119 "},"‚":{"ha":300,"x_min":0,"x_max":0,"o":"m 126 -187 b 93 -154 101 -187 93 -179 l 93 119 b 126 153 93 144 101 153 l 175 153 b 207 119 199 153 210 144 l 188 -154 b 151 -187 185 -179 176 -187 l 126 -187 "},"„":{"ha":493,"x_min":0,"x_max":0,"o":"m 72 -169 b 50 -143 51 -169 47 -164 l 92 99 b 136 139 96 131 106 139 l 185 139 b 219 99 219 139 229 125 l 138 -136 b 96 -169 129 -160 121 -169 l 72 -169 m 260 -169 b 238 -143 239 -169 235 -164 l 279 99 b 324 139 283 131 294 139 l 372 139 b 407 99 407 139 417 125 l 325 -136 b 285 -169 317 -160 308 -169 l 260 -169 "},"“":{"ha":508,"x_min":0,"x_max":0,"o":"m 225 986 b 247 961 246 986 250 981 l 206 718 b 161 679 201 688 190 679 l 113 679 b 78 718 78 679 68 692 l 160 953 b 200 986 168 976 175 986 l 225 986 m 413 986 b 435 961 433 986 438 981 l 393 718 b 349 679 389 688 378 679 l 300 679 b 265 718 265 679 256 692 l 347 953 b 388 986 356 976 364 986 l 413 986 "},"”":{"ha":501,"x_min":0,"x_max":0,"o":"m 107 679 b 85 704 86 679 82 685 l 126 946 b 171 986 131 978 142 986 l 219 986 b 254 946 254 986 264 974 l 172 713 b 132 679 164 688 156 679 l 107 679 m 294 679 b 272 704 274 679 269 685 l 314 946 b 358 986 318 978 329 986 l 407 986 b 442 946 442 986 451 974 l 360 713 b 319 679 351 688 344 679 l 294 679 "},"‘":{"ha":321,"x_min":0,"x_max":0,"o":"m 224 986 b 246 961 244 986 249 981 l 204 718 b 160 679 200 688 189 679 l 111 679 b 76 718 76 679 67 692 l 158 953 b 199 986 167 976 175 986 l 224 986 "},"’":{"ha":314,"x_min":0,"x_max":0,"o":"m 107 679 b 85 704 86 679 82 685 l 126 946 b 171 986 131 978 142 986 l 219 986 b 254 946 254 986 264 974 l 172 713 b 132 679 164 688 156 679 l 107 679 "},"«":{"ha":794,"x_min":0,"x_max":0,"o":"m 68 344 b 68 385 53 360 53 369 l 328 654 b 365 656 340 669 351 669 l 399 621 b 400 581 414 606 414 596 l 200 367 l 399 157 b 399 115 413 142 414 129 l 361 81 b 324 81 346 67 338 67 m 374 344 b 374 385 358 358 358 369 l 633 654 b 672 654 647 668 657 669 l 707 622 b 707 581 722 607 721 596 l 501 367 l 704 157 b 704 117 718 142 718 131 l 667 81 b 629 81 651 67 644 67 "},"»":{"ha":794,"x_min":0,"x_max":0,"o":"m 90 117 b 89 157 75 131 75 143 l 296 367 l 88 581 b 88 622 74 596 72 607 l 124 656 b 161 656 138 669 149 669 l 419 385 b 419 344 433 369 435 360 l 164 81 b 126 81 150 67 142 67 m 396 115 b 396 157 381 129 382 142 l 601 367 l 394 581 b 394 621 379 596 379 606 l 429 656 b 467 656 443 669 453 669 l 726 385 b 726 344 740 369 740 360 l 471 81 b 433 81 457 65 447 68 "},"‹":{"ha":469,"x_min":0,"x_max":0,"o":"m 68 344 b 68 385 54 358 54 371 l 319 649 b 354 650 332 664 339 663 l 383 624 b 385 583 397 610 399 599 l 179 367 l 383 154 b 382 114 396 140 397 126 l 349 83 b 313 85 335 71 326 69 "},"›":{"ha":468,"x_min":0,"x_max":0,"o":"m 89 114 b 88 154 74 126 75 140 l 290 367 l 86 583 b 88 624 72 599 72 610 l 117 650 b 151 650 132 664 139 664 l 403 385 b 401 344 415 371 415 358 l 158 83 b 124 82 144 69 138 69 "},"\"":{"ha":472,"x_min":0,"x_max":0,"o":"m 128 646 b 97 674 103 646 97 649 l 97 957 b 128 986 97 982 103 986 l 178 986 b 208 957 203 986 210 982 l 193 674 b 161 646 192 649 186 646 l 128 646 m 301 646 b 271 674 276 646 271 649 l 271 957 b 301 986 271 982 276 986 l 353 986 b 383 957 376 986 385 982 l 368 674 b 336 646 365 649 360 646 l 301 646 "},"'":{"ha":301,"x_min":0,"x_max":0,"o":"m 129 646 b 99 674 104 646 99 649 l 99 957 b 129 986 99 982 104 986 l 181 986 b 211 957 206 986 213 982 l 196 674 b 164 646 194 649 188 646 l 129 646 "}," ":{"ha":317,"x_min":0,"x_max":0,"o":""}," ":{"ha":317,"x_min":0,"x_max":0,"o":""},"€":{"ha":1007,"x_min":0,"x_max":0,"o":"m 582 -21 b 213 306 356 -21 222 93 l 211 333 l 79 333 b 57 365 57 333 50 342 l 67 400 b 106 431 75 425 82 431 l 211 431 l 211 542 l 132 542 b 108 574 108 542 103 550 l 119 608 b 158 639 126 633 136 639 l 210 639 l 210 672 b 582 1007 213 878 350 1007 b 908 843 756 1007 853 944 b 893 783 925 814 921 796 l 849 761 b 793 779 822 747 811 753 b 582 882 765 832 713 882 b 344 676 431 882 344 806 l 344 639 l 708 639 b 731 607 731 639 738 631 l 721 572 b 681 542 714 550 704 542 l 340 542 l 340 431 l 650 431 b 672 399 672 431 679 422 l 663 364 b 622 333 656 342 644 333 l 346 333 l 346 306 b 581 104 350 175 439 104 b 790 214 708 104 757 149 b 844 231 806 236 817 243 l 900 207 b 915 144 926 194 932 174 b 582 -21 863 42 761 -21 "},"₽":{"ha":910,"x_min":0,"x_max":0,"o":"m 192 0 b 158 36 167 0 158 10 l 158 171 l 97 171 b 64 204 72 171 64 179 l 64 233 b 97 268 64 260 72 268 l 158 268 l 158 950 b 192 986 158 976 167 986 l 543 986 b 850 681 729 986 850 875 b 543 381 850 486 731 381 l 292 381 l 292 268 l 699 268 b 732 233 724 268 732 260 l 732 204 b 699 171 732 179 724 171 l 292 171 l 292 36 b 258 0 292 10 283 0 l 192 0 m 536 501 b 717 681 649 501 717 564 b 536 861 717 799 649 861 l 292 861 l 292 501 "},"¢":{"ha":738,"x_min":0,"x_max":0,"o":"m 344 -117 b 314 -83 322 -117 314 -108 l 314 -17 b 86 254 161 1 86 97 l 86 467 b 314 732 86 618 161 713 l 314 814 b 344 847 314 839 322 847 l 408 847 b 439 814 431 847 439 839 l 439 732 b 656 551 563 717 626 649 b 635 506 663 525 656 514 l 586 489 b 543 513 563 481 551 488 b 376 628 519 590 465 628 b 210 464 264 628 210 567 l 210 254 b 374 89 210 150 265 89 b 539 208 461 89 514 129 b 582 232 547 233 557 238 l 638 215 b 658 171 661 210 668 197 b 439 -14 624 65 556 1 l 439 -83 b 408 -117 439 -108 431 -117 l 344 -117 "},"¤":{"ha":836,"x_min":0,"x_max":0,"o":"m 113 178 b 113 222 96 192 96 206 l 182 296 b 138 468 154 343 138 401 b 182 638 138 533 154 592 l 111 713 b 111 758 96 729 94 742 l 160 801 b 203 799 178 815 188 817 l 267 732 b 419 778 308 761 361 778 b 568 733 476 778 526 761 l 632 800 b 675 801 649 818 657 817 l 724 758 b 724 713 740 743 739 731 l 653 640 b 699 468 682 593 699 533 b 656 296 699 403 683 343 l 725 224 b 725 178 742 207 742 193 l 676 135 b 633 136 660 119 650 119 l 571 203 b 419 157 529 174 478 157 b 268 201 361 157 310 174 l 204 135 b 161 133 188 118 178 118 m 419 264 b 586 468 518 264 586 347 b 419 669 586 590 518 669 b 251 468 318 669 251 590 b 419 264 251 347 318 264 "}}}
